<svg xmlns="http://www.w3.org/2000/svg" xmlns:xlink="http://www.w3.org/1999/xlink" width="415.001" height="383.878" viewBox="0 0 415.001 383.878">
  <defs>
    <linearGradient id="linear-gradient" x1="1.465" y1="-1.105" x2="-0.775" y2="-2.131" gradientUnits="objectBoundingBox">
      <stop offset="0.01"/>
      <stop offset="0.08" stop-opacity="0.69"/>
      <stop offset="0.21" stop-opacity="0.322"/>
      <stop offset="1" stop-opacity="0"/>
    </linearGradient>
  </defs>
  <g id="cc_image" data-name="cc image" transform="translate(0.504)">
    <g id="Group_32" data-name="Group 32" transform="translate(0 0)">
      <path id="blob_6_" data-name="blob(6)" d="M341.669,30.3c34.506,49.295,31.931,129.723-3.09,193.547S235.059,334.89,153.686,342.154C72.312,349.938-22.452,318.285-37.9,266.4-53.353,213.988,10.51,140.824,57.892,83.745S136.175-14.326,186.647-25.741C237.634-37.157,307.677-19,341.669,30.3Z" transform="translate(48.257 29.035)"/>
      <path id="blob_6_2" data-name="blob(6)" d="M-15.709,29.5c-34.474,48.633-31.9,127.982,3.087,190.948S90.8,330,172.1,337.17c81.3,7.679,175.974-23.549,191.411-74.741,15.436-51.7-48.367-123.886-95.705-180.2S189.595-14.523,139.169-25.785C88.229-37.048,18.251-19.13-15.709,29.5Z" transform="translate(40.257 45.035)" fill="#fbeeee" stroke="#707070" stroke-width="1"/>
    </g>
    <g id="content_creation" transform="translate(46 71)">
      <path id="Path_698" data-name="Path 698" d="M168.38,16.506c-36.351,4.815-70.68,26.77-88.23,59.161-5.034,9.32-8.817,19.3-14.262,28.406C59.781,114.14,51.627,122.915,45.2,132.789c-19.488,29.7-21.2,69.3-7.039,101.51C48.833,258.586,69.2,272.731,95.8,272.831c13.1.042,25.361-4.572,38.2-5.2,17.727-.839,36.342,4.824,53.372,9,19.027,4.664,38.44,9.228,58,8.029s39.623-8.951,51.292-24.69c11.552-15.57,13.255-36.5,10.545-55.7s-9.379-37.609-12.945-56.644c-4.111-22.022-4.195-44.992-12-65.982-11.963-32.173-42.013-56.091-75.453-63.582a109.513,109.513,0,0,0-38.448-1.56Z" transform="translate(-28.849 -15.494)" fill="#68e1fd" opacity="0.18"/>
      <path id="Path_699" data-name="Path 699" d="M241.844,65.506V236.773a14.967,14.967,0,0,1-14.95,14.958H152.758A14.958,14.958,0,0,1,137.8,236.773V65.506A14.958,14.958,0,0,1,152.75,50.54h74.144A14.958,14.958,0,0,1,241.844,65.506Z" transform="translate(-46.398 -21.139)" fill="#68e1fd"/>
      <rect id="Rectangle_183" data-name="Rectangle 183" width="99.941" height="195.797" rx="17.24" transform="translate(93.449 31.943)" fill="#473f47"/>
      <path id="Path_700" data-name="Path 700" d="M237.995,70.144V231.73A13.817,13.817,0,0,1,224.043,245.4H157.508a14.043,14.043,0,0,1-6.938-1.812,13.608,13.608,0,0,1-7.03-11.862V70.144A13.826,13.826,0,0,1,157.508,56.47H168.75v1.988a6.611,6.611,0,0,0,4.195,6.015,7,7,0,0,0,2.517.487h30.906a6.712,6.712,0,0,0,6.711-6.611V56.47h10.906a14.094,14.094,0,0,1,9.706,3.8A13.49,13.49,0,0,1,237.995,70.144Z" transform="translate(-47.323 -22.094)" fill="#68e1fd"/>
      <path id="Path_701" data-name="Path 701" d="M247.471,164.16v47.181H206.632a4.253,4.253,0,0,1-4.262-4.262h0V168.43a4.253,4.253,0,0,1,4.253-4.27Z" transform="translate(-56.799 -39.44)" fill="#020202" opacity="0.1"/>
      <path id="Path_702" data-name="Path 702" d="M116.218,212h30.428a1.988,1.988,0,0,1,1.988,1.988h0a1.988,1.988,0,0,1-1.988,1.988H116.218a1.988,1.988,0,0,1-1.988-1.988h0A1.988,1.988,0,0,1,116.218,212Z" transform="translate(-42.602 -47.146)" fill="#473f47"/>
      <path id="Path_703" data-name="Path 703" d="M93.444,183.809l-.914,5.973,2.517.294,2.735-6.326Z" transform="translate(-14.903 -29.592)" fill="#fcbdba"/>
      <path id="Path_704" data-name="Path 704" d="M124.465,205.617a2.022,2.022,0,0,1-.31-.344,1.049,1.049,0,0,1-.839.109l-1.25-.218a2.1,2.1,0,0,1-.646-.176.092.092,0,0,0-.092,0h0l-.277.52a7.675,7.675,0,0,0-.78,2.945,27.215,27.215,0,0,0,7.273.7,1.133,1.133,0,0,0,1.04-.436.839.839,0,0,0,0-.671,1.98,1.98,0,0,0-1.166-1.04c-.646-.277-1.309-.495-1.946-.839A3.8,3.8,0,0,1,124.465,205.617Z" transform="translate(-43.574 -46.014)" fill="#68e1fd"/>
      <path id="Path_705" data-name="Path 705" d="M113.529,185.961l-.789,5.99,2.517.243,2.609-6.384Z" transform="translate(-18.158 -29.924)" fill="#fcbdba"/>
      <path id="Path_706" data-name="Path 706" d="M228.223,100.079v18.515a9.178,9.178,0,0,1-9.178,9.178H165.312L143.5,152.823V90.91H219a9.169,9.169,0,0,1,9.228,9.119Z" transform="translate(-47.316 -27.641)" fill="#020202" opacity="0.1"/>
      <rect id="Rectangle_184" data-name="Rectangle 184" width="79.119" height="36.871" rx="10.93" transform="translate(99.573 55.383)" fill="#fff"/>
      <path id="Path_707" data-name="Path 707" d="M157.937,117.69a1.963,1.963,0,0,1-.906-.143,2.081,2.081,0,0,1-.839-1.367c-1.5-4.622-4.6-9.136-9.228-10.52-1.208,4.933-1.116,10.067-1.023,15.159,0,1.359.151,2.911,1.233,3.716a4.2,4.2,0,0,0,2.374.612,31.729,31.729,0,0,0,15.21-3.263c1.426-.7,4.346-3.465,1.628-4.362-.839-.277-2.643.143-3.515.151Z" transform="translate(-47.701 -30.017)" fill="#020202" opacity="0.1"/>
      <circle id="Ellipse_73" data-name="Ellipse 73" cx="6.611" cy="6.611" r="6.611" transform="translate(170.622 48.646)" fill="#68e1fd"/>
      <circle id="Ellipse_74" data-name="Ellipse 74" cx="6.611" cy="6.611" r="6.611" transform="translate(170.622 48.646)" fill="#020202" opacity="0.28"/>
      <path id="Path_708" data-name="Path 708" d="M167.98,95.55h42.961a1.82,1.82,0,0,1,1.82,1.82h0a1.82,1.82,0,0,1-1.82,1.82H167.98a1.82,1.82,0,0,1-1.82-1.82h0A1.82,1.82,0,0,1,167.98,95.55Z" transform="translate(-50.966 -28.389)" fill="#68e1fd"/>
      <rect id="Rectangle_185" data-name="Rectangle 185" width="46.602" height="3.641" rx="1.82" transform="translate(115.194 76.868)" fill="#68e1fd"/>
      <path id="Path_709" data-name="Path 709" d="M93.36,133.9l3.733,20.789L93.36,177.051l6.057.461,8.826-25.185-2.995-19.958Z" transform="translate(-15.037 -21.316)" fill="#473f47"/>
      <path id="Path_710" data-name="Path 710" d="M115.816,132.37l6.728,27.668L117.1,179.1l-5.378-.277.747-16.258-9.488-26.275Z" transform="translate(-16.586 -21.316)" fill="#473f47"/>
      <path id="Path_711" data-name="Path 711" d="M168.951,120.294a10.593,10.593,0,0,1,2.576-1.1.965.965,0,0,1,.881.059.839.839,0,0,1,.26.495,3.029,3.029,0,0,1-.143,1.829,19.215,19.215,0,0,0,3.188,1.393,1.678,1.678,0,0,1,1.133.747,1.074,1.074,0,0,1-.327,1.166,2.516,2.516,0,0,1-1.158.52c-2.768.646-7.273,0-7.928-3.305-.143-.721.117-.839.7-1.267C168.4,120.638,168.666,120.462,168.951,120.294Z" transform="translate(-51.165 -32.185)" fill="#fcbdba"/>
      <path id="Path_712" data-name="Path 712" d="M143.138,89.388a11.844,11.844,0,0,1,1.2,4.018,4.052,4.052,0,0,1-1.619,3.674,4.714,4.714,0,0,0-.956.6c-1.007,1.04.151,2.928-.436,4.27a1.988,1.988,0,0,1-2.517.931,3.356,3.356,0,0,1-1.862-2.206,10.3,10.3,0,0,1-.344-2.995l-.1-6.015a7.752,7.752,0,0,1,.6-3.918,3.926,3.926,0,0,1,3.607-1.963C142.206,86.007,142.634,88.205,143.138,89.388Z" transform="translate(-46.182 -26.816)" fill="#fcbdba"/>
      <path id="Path_713" data-name="Path 713" d="M161.817,122.279s-11.527,10.294-12.349,10.294-5.931-6.468-5.931-6.468l-.419,14.648a35.189,35.189,0,0,1-4.438,2.2c-2.517,1.023-5.646,1.971-8.389,1.678-5.6-.512-8.07-2.391-8.07-2.391l3.448-34.505s6.527-4.69,8.758-3.976a13.7,13.7,0,0,0,4.824,0c3.221-.428,6.518,3.976,6.518,3.976l4.279,14.077,10.067-3.574A3.867,3.867,0,0,1,161.817,122.279Z" transform="translate(-43.888 -29.699)" fill="#fff"/>
      <path id="Path_714" data-name="Path 714" d="M142.932,81.746a3.448,3.448,0,0,0-.5-2.164c-.78-1.082-2.357-1.183-3.658-.889a13.633,13.633,0,0,0-2.584,1.007,3.608,3.608,0,0,1-1.9.243,6.863,6.863,0,0,0-4.656,1.737c-1.745,1.678-2.164,4.119-2.341,6.418-.193,2.6.982,4.748,2.676,6.711,1.468,1.728,4.119,3.423,6.023,1.242a5.453,5.453,0,0,0,1.074-3.893,2.164,2.164,0,0,1-1.938-1.678,1.518,1.518,0,0,1,.512-1.544,1.216,1.216,0,0,1,1.678.411,1.31,1.31,0,0,1,.117.277,6.8,6.8,0,0,0,.587-1.745c.226-.579.956-1.082,1.435-.7.277.226.445.7.8.629a.629.629,0,0,0,.294-.218,9.463,9.463,0,0,0,1.745-2.29,8.39,8.39,0,0,0,.646-3.171C142.924,82.023,142.932,81.881,142.932,81.746Z" transform="translate(-44.701 -25.651)" fill="#fc682d"/>
      <path id="Path_715" data-name="Path 715" d="M115.575,80.791a5.965,5.965,0,0,0-6.032,3.2c-1.334,2.727-.378,5.94-.159,8.968a4.715,4.715,0,0,1-2.752,5.2c-2.139,1.284-4.589,2.148-6.3,3.968a8.842,8.842,0,0,0-2.248,5.419,4.2,4.2,0,0,0,.419,2.45,4.773,4.773,0,0,0,1.435,1.376,14.639,14.639,0,0,0,11.049,2.6,10.3,10.3,0,0,0,8.045-7.55c.839-4.027-1.2-8.029-1.971-12.064a3.632,3.632,0,0,1,.31-2.861c.638-.839,1.829-1.057,2.743-1.6C125.13,86.949,119.249,81.312,115.575,80.791Z" transform="translate(-39.995 -26.004)" fill="#fc682d"/>
      <rect id="Rectangle_186" data-name="Rectangle 186" width="3.884" height="3.884" rx="1.942" transform="translate(80.731 58.705)" fill="#68e1fd"/>
      <path id="Path_716" data-name="Path 716" d="M144.666,207.749a2.066,2.066,0,0,1-.319-.344,1.057,1.057,0,0,1-.839.126l-1.258-.185a2.106,2.106,0,0,1-.646-.176h-.092l-.26.529a7.727,7.727,0,0,0-.721,2.961,26.929,26.929,0,0,0,7.29.545,1.1,1.1,0,0,0,1.023-.453.839.839,0,0,0,0-.671,2.022,2.022,0,0,0-1.183-1.015c-.654-.26-1.326-.47-1.963-.772a4.336,4.336,0,0,1-1.032-.545Z" transform="translate(-46.838 -46.368)" fill="#68e1fd"/>
      <path id="Path_717" data-name="Path 717" d="M136.355,216.71H132.5l-3.087,8.331h-15.94l3.087-8.331H112.7L85.6,289.94h3.859l2.685-7.24h15.94l-2.685,7.24h3.859l2.685-7.24h.109v-.31l24.1-65.117V289.94h3.867V216.71Zm-8,11.149-4.01,10.906H108.4l4.027-10.906ZM103.335,252.44l4.018-10.856h15.94l-4.018,10.856Zm14.874,2.844L114.2,266.14H98.259l4.018-10.856ZM93.2,279.873l4.01-10.906h15.94l-4.027,10.906Z" transform="translate(-37.99 -47.905)" fill="#68e1fd"/>
      <path id="Path_718" data-name="Path 718" d="M136.355,216.71H132.5l-3.087,8.331h-15.94l3.087-8.331H112.7L85.6,289.94h3.859l2.685-7.24h15.94l-2.685,7.24h3.859l2.685-7.24h.109v-.31l24.1-65.117V289.94h3.867V216.71Zm-8,11.149-4.01,10.906H108.4l4.027-10.906ZM103.335,252.44l4.018-10.856h15.94l-4.018,10.856Zm14.874,2.844L114.2,266.14H98.259l4.018-10.856ZM93.2,279.873l4.01-10.906h15.94l-4.027,10.906Z" transform="translate(-37.99 -47.905)" fill="url(#linear-gradient)"/>
      <rect id="Rectangle_187" data-name="Rectangle 187" width="66.611" height="47.173" rx="5.08" transform="translate(145.571 119.644)" fill="#fff"/>
      <rect id="Rectangle_188" data-name="Rectangle 188" width="30.495" height="4.656" rx="2.328" transform="translate(109.196 125.181)" fill="#020202" opacity="0.1"/>
      <rect id="Rectangle_189" data-name="Rectangle 189" width="30.495" height="4.656" rx="2.328" transform="translate(109.196 134.418)" fill="#020202" opacity="0.1"/>
      <rect id="Rectangle_190" data-name="Rectangle 190" width="30.495" height="4.656" rx="2.328" transform="translate(109.196 143.654)" fill="#020202" opacity="0.1"/>
      <path id="Path_719" data-name="Path 719" d="M231.9,184.516H185.66V150.38h.839v33.3h45.4Z" transform="translate(-29.904 -24.217)" fill="#68e1fd"/>
      <path id="Path_720" data-name="Path 720" d="M186.226,173.767l-.436-.721,11.661-7.164,17.139,2.651,15.143-8.742.419.721-15.4,8.893-.143-.025-16.98-2.626Z" transform="translate(-29.925 -25.733)" fill="#68e1fd"/>
      <circle id="Ellipse_75" data-name="Ellipse 75" cx="1.829" cy="1.829" r="1.829" transform="translate(166.301 138.839)" fill="#68e1fd"/>
      <circle id="Ellipse_76" data-name="Ellipse 76" cx="1.829" cy="1.829" r="1.829" transform="translate(182.92 141.398)" fill="#68e1fd"/>
      <circle id="Ellipse_77" data-name="Ellipse 77" cx="1.829" cy="1.829" r="1.829" transform="translate(197.879 132.866)" fill="#68e1fd"/>
      <circle id="Ellipse_78" data-name="Ellipse 78" cx="1.829" cy="1.829" r="1.829" transform="translate(166.301 138.839)" fill="#020202" opacity="0.28"/>
      <circle id="Ellipse_79" data-name="Ellipse 79" cx="1.829" cy="1.829" r="1.829" transform="translate(182.92 141.398)" fill="#020202" opacity="0.28"/>
      <circle id="Ellipse_80" data-name="Ellipse 80" cx="1.829" cy="1.829" r="1.829" transform="translate(197.879 132.866)" fill="#020202" opacity="0.28"/>
    </g>
  </g>
</svg>
