<svg xmlns="http://www.w3.org/2000/svg" xmlns:xlink="http://www.w3.org/1999/xlink" width="413.582" height="382.707" viewBox="0 0 413.582 382.707">
  <defs>
    <linearGradient id="linear-gradient" x1="0.517" y1="2.744" x2="0.492" y2="-0.513" gradientUnits="objectBoundingBox">
      <stop offset="0.01"/>
      <stop offset="0.97" stop-opacity="0"/>
    </linearGradient>
    <linearGradient id="linear-gradient-2" x1="0.584" y1="1.15" x2="1.584" y2="1.15" gradientUnits="objectBoundingBox">
      <stop offset="0" stop-color="#183866"/>
      <stop offset="1" stop-color="#1a7fc1"/>
    </linearGradient>
    <linearGradient id="linear-gradient-3" x1="0.491" y1="0.299" x2="0.502" y2="1.526" gradientUnits="objectBoundingBox">
      <stop offset="0.02" stop-color="#fff" stop-opacity="0"/>
      <stop offset="1" stop-color="#fff"/>
    </linearGradient>
    <linearGradient id="linear-gradient-4" x1="145.075" y1="110.377" x2="143.645" y2="109.783" gradientUnits="objectBoundingBox">
      <stop offset="0" stop-color="#ecc4d7"/>
      <stop offset="0.42" stop-color="#efd4d1"/>
      <stop offset="1" stop-color="#f2eac9"/>
    </linearGradient>
    <linearGradient id="linear-gradient-5" x1="0.654" y1="1.262" x2="0.658" y2="8.516" xlink:href="#linear-gradient"/>
    <linearGradient id="linear-gradient-6" x1="2.106" y1="2.443" x2="1.552" y2="2.158" xlink:href="#linear-gradient"/>
    <linearGradient id="linear-gradient-7" x1="1.393" y1="13.579" x2="0.031" y2="12.954" xlink:href="#linear-gradient-4"/>
    <linearGradient id="linear-gradient-8" x1="5.089" y1="3.321" x2="3.745" y2="3.344" xlink:href="#linear-gradient"/>
    <linearGradient id="linear-gradient-9" x1="3.899" y1="2.987" x2="1.628" y2="2.431" xlink:href="#linear-gradient-4"/>
    <linearGradient id="linear-gradient-10" x1="4.224" y1="4.176" x2="2.755" y2="3.785" xlink:href="#linear-gradient-4"/>
    <linearGradient id="linear-gradient-11" x1="3.29" y1="4.864" x2="2.685" y2="4.591" xlink:href="#linear-gradient"/>
    <linearGradient id="linear-gradient-12" x1="1.391" y1="3.061" x2="2.391" y2="3.061" xlink:href="#linear-gradient-4"/>
    <linearGradient id="linear-gradient-13" x1="0.504" y1="-34.398" x2="0.497" y2="-36.152" xlink:href="#linear-gradient"/>
    <linearGradient id="linear-gradient-14" x1="7.537" y1="0.938" x2="1.079" y2="0.947" xlink:href="#linear-gradient"/>
    <linearGradient id="linear-gradient-15" x1="1.052" y1="7.008" x2="0.963" y2="2.711" xlink:href="#linear-gradient"/>
    <linearGradient id="linear-gradient-16" x1="1.458" y1="0.544" x2="1.169" y2="1.946" xlink:href="#linear-gradient-4"/>
    <linearGradient id="linear-gradient-17" x1="2.821" y1="3.329" x2="4.124" y2="4.876" xlink:href="#linear-gradient-4"/>
    <linearGradient id="linear-gradient-18" x1="1.963" y1="4.798" x2="2.963" y2="4.798" xlink:href="#linear-gradient-4"/>
  </defs>
  <g id="civicengagement_image" data-name="civicengagement image" transform="translate(0.504)">
    <path id="blob_6_" data-name="blob(6)" d="M334.49,28.75c33.858,48.007,31.331,126.335-3.032,188.493S229.885,325.385,150.041,332.46C70.2,340.04-22.786,309.214-37.947,258.68c-15.16-51.04,47.5-122.293,93.994-177.88S132.859-14.71,182.382-25.827C232.411-36.945,301.138-19.258,334.49,28.75Z" transform="translate(54.478 29.035)" fill="#186585"/>
    <path id="blob_6_2" data-name="blob(6)" d="M-16.188,27.333c-33.8,46.831-31.279,123.239,3.027,183.873S88.242,316.7,167.952,323.6c79.71,7.394,172.537-22.676,187.672-71.972,15.135-49.789-47.423-119.3-93.836-173.521S185.1-15.061,135.664-25.906C85.719-36.751,17.108-19.5-16.188,27.333Z" transform="translate(40.257 57.477)" fill="#fbeeee" stroke="#707070" stroke-width="1"/>
    <g id="_digital_content" transform="translate(23.109 81.771)">
      <path id="Path_490" data-name="Path 490" d="M65.009,202.95c-6.915,11.93-13.929,24.106-16.845,37.586s-1.092,28.717,8.061,39.029c5.154,5.805,12.132,9.593,18.989,13.26,32,17.164,64.968,34.643,101.036,38.853a145.384,145.384,0,0,0,59.855-5.572c21.177-6.6,42.062-19.582,50.185-40.219,3.882-9.885,4.534-20.669,6.587-31.062,5.1-25.872,18.836-53.281,7.338-77.015-12.581-26.016-47.09-30.554-75.977-31.615-36.27-1.348-73.573-2.871-109.425,4.143C86.177,155.928,78.933,178.956,65.009,202.95Z" transform="translate(-25.816 -79.875)" fill="#68e1fd" opacity="0.18"/>
      <path id="Path_491" data-name="Path 491" d="M242.887,496.16c3.622-.472,5.805-6.511-31.147-5.019-17.973-1.469-35.982-1.483-54-1.492-45.3-.031-106.94,3-152.237,2.97-2.7,0-6.6,1.8-5.226,4.143a3.947,3.947,0,0,0,2.7,1.456c54.49,12.451,127.636,5.486,183.106,12.37,11.435.584,15.857,5.01-1.312,15.911,4.21,11.436,18.512,11.422,23.194,11.382l81.081-.661c3.595-.031,7.391-.108,10.519-1.9s5.226-5.918,3.541-9.108c-1.505-2.849-5.136-3.7-8.34-4.044-14.558-1.51-29.256,1.348-43.859.449-12.891-.827-23.338-5.518-35.164-10C209.893,510.4,206.365,500.9,242.887,496.16Z" transform="translate(0.004 -269.636)" opacity="0.56" fill="url(#linear-gradient)"/>
      <path id="Path_492" data-name="Path 492" d="M282.058,9.2V162.657a9.193,9.193,0,0,1-9.184,9.2H15.332a9.18,9.18,0,0,1-9.2-9.157V9.2a9.207,9.207,0,0,1,9.2-9.2H272.856A9.2,9.2,0,0,1,282.058,9.2Z" transform="translate(-3.374)" fill="#68e1fd"/>
      <path id="Path_493" data-name="Path 493" d="M410.4,365.982a4.24,4.24,0,0,1,0,2.588,36.013,36.013,0,0,0-1.159,3.595l-13.179-.373s-.369-3.37,2-4.844,7.3-2.31,7.917-3.208Z" transform="translate(-218.088 -200.301)" fill="#25233a"/>
      <path id="Path_494" data-name="Path 494" d="M529.557,168.087v61.167a9.193,9.193,0,0,1-9.184,9.2H455.58v-60.8a9.6,9.6,0,0,1,8.6-9.553c-.449-.517-.858-1.047-1.254-1.6-2.638-3.626-7.239-12.055-5.841-16.715a3.332,3.332,0,0,1,2.921-2.485c1.69,0,2.9,1.564,3.824,2.984l3.936,6.048a11.65,11.65,0,0,0,3.262,3.729c2.736,1.752,6.52.9,9.063-1.105s4.129-4.983,5.648-7.859l3.419-6.484a6.421,6.421,0,0,1,1.474-2.067,13.2,13.2,0,0,0,1.406-1.038,4.178,4.178,0,0,0,.831-2.274l1.456-9.324a16.288,16.288,0,0,1,1.8-6.093c1.114-1.811,3.222-3.2,5.32-2.817a5.468,5.468,0,0,1,3.927,3.968,15.541,15.541,0,0,1,.283,5.841l-.741,10.141,1.977-.189c.953,2.521-.5,5.271-.62,7.967-.148,3.145,1.438,6.65-.4,9.2-1.236,1.716-3.8,2.507-4.233,4.579-.328,1.564.768,3.244.2,4.74a2.72,2.72,0,0,1-.494.809h27.368A6.567,6.567,0,0,1,529.557,168.087Z" transform="translate(-250.873 -66.597)" opacity="0.19" fill="url(#linear-gradient-2)"/>
      <path id="Path_495" data-name="Path 495" d="M360.053,312.323H169.219a2.319,2.319,0,0,1-2.319-2.314h0a2.319,2.319,0,0,1,2.319-2.319H360.053a2.318,2.318,0,0,1,2.319,2.318h0A2.318,2.318,0,0,1,360.053,312.323Z" transform="translate(-91.905 -169.436)" fill="#fff" opacity="0.18"/>
      <path id="Path_496" data-name="Path 496" d="M552.334,408.346H488.768c-1.851,0-1.15,6.785-2.62,5.873-.3-.189-4.493-4.763-4.785-4.983-2.247-1.757-2.193-7.423-2.193-10.492V291.282a9.6,9.6,0,0,1,9.593-9.6h63.571c6.614.252,8.51,4.857,8.6,5.32s4.242,7.872,4.242,8.367l-3.24,103.377a9.6,9.6,0,0,1-9.6,9.6Z" transform="translate(-263.863 -155.113)" fill="#25233a"/>
      <rect id="Rectangle_142" data-name="Rectangle 142" width="82.748" height="126.666" rx="21.37" transform="translate(220.397 136.322)" fill="#68e1fd"/>
      <rect id="Rectangle_143" data-name="Rectangle 143" width="74.287" height="95.433" rx="17.58" transform="translate(225.695 150.53)" fill="url(#linear-gradient-3)"/>
      <path id="Path_497" data-name="Path 497" d="M480.521,405.81a4.246,4.246,0,0,1,1.236,2.274,37.036,37.036,0,0,0,.7,3.7l-11.745,5.981s-1.937-2.786-.562-5.212,5.3-5.518,5.392-6.605Z" transform="translate(-258.622 -223.468)" fill="#25233a"/>
      <path id="Path_498" data-name="Path 498" d="M481.45,397.75l.8,4.426,4.691-.53-.768-4.565Z" transform="translate(-265.119 -218.661)" fill="url(#linear-gradient-4)"/>
      <path id="Path_499" data-name="Path 499" d="M282.058,9.2v5.392H6.13V9.2a9.207,9.207,0,0,1,9.2-9.2H272.856A9.2,9.2,0,0,1,282.058,9.2Z" transform="translate(-3.374)" fill="url(#linear-gradient-5)"/>
      <rect id="Rectangle_144" data-name="Rectangle 144" width="133.266" height="103.84" transform="translate(75.449 26.798)" fill="#fff" opacity="0.57"/>
      <path id="Path_500" data-name="Path 500" d="M255.188,127.662a26.263,26.263,0,0,1-.521,5.468c-.737,3.046-2.539,5.72-4.309,8.313a8.668,8.668,0,0,0-7.369-3.595,53.289,53.289,0,0,0-12.451,1.308c-6.385,1.249-12.743,2.849-19.177,2.269-3.258-.3-6.457-1.146-9.728-1.263-6.353-.238-12.433,2.283-18.494,4.2-.953.3-2.3.413-2.647-.526a1.968,1.968,0,0,1,.09-1.254,64.742,64.742,0,0,0,2.305-10.523c.7-6.057.09-12.181-.53-18.247-.669-6.619-1.348-13.242-2.287-19.829-.975-6.812-2.22-13.9-.157-20.462a11.642,11.642,0,0,1,2.7-4.817,13.93,13.93,0,0,1,3.631-2.435,35.362,35.362,0,0,1,8.016-3.064,51.268,51.268,0,0,1,7.4-.984l12.8-1.074a35.777,35.777,0,0,1,9.921.09,18,18,0,0,1,9.261,5.023,2.549,2.549,0,0,0,1.411.93,2.512,2.512,0,0,0,1.348-.382,16.105,16.105,0,0,1,11.952-.562c3.738,1.159,4.637,3.9,4.776,7.7q.148,3.559.144,7.113a182.235,182.235,0,0,1-1.35,22.147c-.524,4.256-1.18,8.718.325,12.748.71,1.887,1.869,3.595,2.449,5.522A20.5,20.5,0,0,1,255.188,127.662Z" transform="translate(-98.456 -33.505)" fill="#3f3d56"/>
      <path id="Path_501" data-name="Path 501" d="M299.778,142.252a26.265,26.265,0,0,1-.521,5.468c-.737,3.046-2.539,5.72-4.309,8.313a8.667,8.667,0,0,0-7.369-3.595,53.286,53.286,0,0,0-12.451,1.308l-15.358-4.821,3.352-25.082L277.3,91.23s15.053-7.535,18.562-1.636a24.4,24.4,0,0,1,1.99,6.075,182.241,182.241,0,0,1-1.35,22.147c-.524,4.256-1.18,8.718.325,12.748.71,1.887,1.869,3.595,2.449,5.522A20.359,20.359,0,0,1,299.778,142.252Z" transform="translate(-143.046 -48.095)" fill="#25233a"/>
      <rect id="Rectangle_145" data-name="Rectangle 145" width="58.21" height="55.218" transform="translate(10.197 26.798)" fill="#fff" opacity="0.57"/>
      <rect id="Rectangle_146" data-name="Rectangle 146" width="58.21" height="55.218" transform="translate(10.197 88.405)" fill="#fff" opacity="0.57"/>
      <path id="Path_502" data-name="Path 502" d="M544.506,81.628H496.554a2.319,2.319,0,0,1-2.314-2.319h0A2.319,2.319,0,0,1,496.554,77h47.952a2.319,2.319,0,0,1,2.319,2.314h0A2.319,2.319,0,0,1,544.506,81.628Z" transform="translate(-272.162 -42.402)" fill="#fff" opacity="0.18"/>
      <path id="Path_503" data-name="Path 503" d="M544.506,109.323H496.554A2.319,2.319,0,0,1,494.24,107h0a2.323,2.323,0,0,1,2.314-2.314h47.952A2.319,2.319,0,0,1,546.825,107h0A2.319,2.319,0,0,1,544.506,109.323Z" transform="translate(-272.162 -57.65)" fill="#fff" opacity="0.18"/>
      <path id="Path_504" data-name="Path 504" d="M544.506,136.963H496.554a2.319,2.319,0,0,1-2.314-2.319h0a2.323,2.323,0,0,1,2.314-2.314h47.952a2.319,2.319,0,0,1,2.319,2.314h0A2.319,2.319,0,0,1,544.506,136.963Z" transform="translate(-272.162 -72.87)" fill="#fff" opacity="0.18"/>
      <path id="Path_505" data-name="Path 505" d="M544.506,164.633H496.554a2.319,2.319,0,0,1-2.314-2.319h0A2.323,2.323,0,0,1,496.554,160h47.952a2.319,2.319,0,0,1,2.319,2.314h0A2.319,2.319,0,0,1,544.506,164.633Z" transform="translate(-272.162 -88.107)" fill="#fff" opacity="0.18"/>
      <path id="Path_506" data-name="Path 506" d="M544.506,192.323H496.554A2.319,2.319,0,0,1,494.24,190h0a2.323,2.323,0,0,1,2.314-2.314h47.952A2.319,2.319,0,0,1,546.825,190h0A2.319,2.319,0,0,1,544.506,192.323Z" transform="translate(-272.162 -103.356)" fill="#fff" opacity="0.18"/>
      <path id="Path_507" data-name="Path 507" d="M544.506,219.973H496.554a2.319,2.319,0,0,1-2.314-2.319h0a2.323,2.323,0,0,1,2.314-2.314h47.952a2.319,2.319,0,0,1,2.319,2.314h0A2.319,2.319,0,0,1,544.506,219.973Z" transform="translate(-272.162 -118.582)" fill="#fff" opacity="0.18"/>
      <path id="Path_508" data-name="Path 508" d="M464.413,241.62s-21.393.845-24.861,4.412-18.962,47.179-18.962,47.179l7.589,2.844s15.771-30.918,17.052-32.352,18.315-.975,24.017-3.109,11.858-8.47,11.858-8.47Z" transform="translate(-231.605 -133.053)" fill="#25233a"/>
      <path id="Path_509" data-name="Path 509" d="M531.14,174.453l-13.03,28.11s5.5,11.683,16.692,10.483l3.792-.827,7.728-19.15,6.16-14.747s.1-5.522-4.111-5.787S537.786,167.5,531.14,174.453Z" transform="translate(-285.307 -93.997)" fill="#68e1fd"/>
      <path id="Path_510" data-name="Path 510" d="M531.14,174.453l-13.03,28.11s5.5,11.683,16.692,10.483l3.792-.827,7.728-19.15,6.16-14.747s.1-5.522-4.111-5.787S537.786,167.5,531.14,174.453Z" transform="translate(-285.307 -93.997)" fill="url(#linear-gradient-6)"/>
      <path id="Path_511" data-name="Path 511" d="M474.374,272.136l21.532-18.786,16.751,4.385s-2.943,15.569-8.447,18.422-19.15,8.038-19.15,8.038l-3.365,34.944-5.954.292s-5.581-39.123-4.633-41.671A27.876,27.876,0,0,1,474.374,272.136Z" transform="translate(-259.364 -139.513)" fill="#3f3d56"/>
      <path id="Path_512" data-name="Path 512" d="M418.86,356.44l-1.42,4.269,4.372,1.779,2.808-3.887Z" transform="translate(-229.87 -196.281)" fill="url(#linear-gradient-7)"/>
      <path id="Path_513" data-name="Path 513" d="M584.842,176.11s2.925,1.564,4.3,6.794,3.087,15.466,3.087,15.466l-9.247,4.651-2.08-15.727S580.645,178.716,584.842,176.11Z" transform="translate(-319.88 -96.979)" fill="#68e1fd"/>
      <path id="Path_514" data-name="Path 514" d="M584.842,176.11s2.925,1.564,4.3,6.794,3.087,15.466,3.087,15.466l-9.247,4.651-2.08-15.727S580.645,178.716,584.842,176.11Z" transform="translate(-319.88 -96.979)" fill="url(#linear-gradient-8)"/>
      <path id="Path_515" data-name="Path 515" d="M592.885,259.464l-7.355-28.052,7.436-3.743s5.334,30.783,5.661,31.1a44.047,44.047,0,0,0,7.917,3.253c4.529,1.46.688,1.91-3.186,2.017S594.1,264.794,592.885,259.464Z" transform="translate(-322.433 -125.371)" fill="url(#linear-gradient-9)"/>
      <path id="Path_516" data-name="Path 516" d="M556.434,127.388s-3.073,7.266-3.855,7.5.84,1.514.84,1.514-.063,1.946,0,2.7,1.11,1.348,2.858,1.564-.449,5.936-.449,5.936-.944,2.247,5.536.584l1.766-.211s4.754-14.5,4.709-16.176S559.8,121.92,556.434,127.388Z" transform="translate(-304.17 -69.039)" fill="url(#linear-gradient-10)"/>
      <path id="Path_517" data-name="Path 517" d="M552.831,112.963a3.015,3.015,0,0,0-.13,3.015,14.93,14.93,0,0,1,.9,1.348,5.745,5.745,0,0,0,.4.966,1.93,1.93,0,0,0,1.622.674l3.321.225a4.944,4.944,0,0,1,2.462.6c1.55,1.007,1.856,3.464,1.42,5.432-.193.863-.409,1.982.247,2.467a2.574,2.574,0,0,1,.409-1.132.674.674,0,0,1,.926-.2h0l.045.031a1,1,0,0,1,.243.5,2.332,2.332,0,0,1-1.034,2.494c-.247.13-.544.225-.678.5-.256.517.283,1.047.651,1.469a3.173,3.173,0,0,1,.647,2.723c1.519-.822,1.8-3.1,2.552-4.794s2.328-3.145,2.521-5.122a3.927,3.927,0,0,0-.989-3.024,1.672,1.672,0,0,1-.548-.786,2.977,2.977,0,0,1,.193-1.083c.216-1.132-.755-2.071-1.645-2.633a1.734,1.734,0,0,1-.728-.687c-.768-1.645-.651-2.323-2.5-2.831a7.728,7.728,0,0,0-3.3-.261c-1.582.247-2.175.449-3.64-.337C555.01,111.885,553.73,111.638,552.831,112.963Z" transform="translate(-304.167 -61.677)" fill="#3f3d56"/>
      <path id="Path_518" data-name="Path 518" d="M538.568,172.59a19.682,19.682,0,0,0-11.449,6.776c-5.194,6.03-6.039,5.464-6.039,5.464l4.767,5.6S532.331,175.237,538.568,172.59Z" transform="translate(-286.942 -95.04)" fill="#68e1fd"/>
      <path id="Path_519" data-name="Path 519" d="M538.568,172.59a19.682,19.682,0,0,0-11.449,6.776c-5.194,6.03-6.039,5.464-6.039,5.464l4.767,5.6S532.331,175.237,538.568,172.59Z" transform="translate(-286.942 -95.04)" fill="url(#linear-gradient-11)"/>
      <path id="Path_520" data-name="Path 520" d="M493.673,185.919l-2.921,6.911s-5.338,3.667-11.6-.9-9.382-21.424-9.382-21.424-3.213-3.177-6.291-4.188,3.028-2.647,6.291-1.478,3.824.822,3.824.822,1.537-1.546,2.39-1.227-1.546,4.628-1.546,4.628,4.377,16.131,7.711,16.854,5.567.678,7.131-1.348l1.559-2.017Z" transform="translate(-254.758 -90.527)" fill="url(#linear-gradient-12)"/>
      <rect id="Rectangle_147" data-name="Rectangle 147" width="19.33" height="6.637" rx="3.318" transform="translate(251.873 250.227)" fill="#68e1fd"/>
      <rect id="Rectangle_148" data-name="Rectangle 148" width="19.33" height="6.637" rx="3.318" transform="translate(251.873 250.227)" fill="url(#linear-gradient-13)"/>
      <path id="Path_521" data-name="Path 521" d="M26.947,0c-1.42,0-13.377.418-13.377,14.585v157.1a9.211,9.211,0,0,1-7.441-9.032V9.2a9.207,9.207,0,0,1,9.2-9.2Z" transform="translate(-3.374)" fill="url(#linear-gradient-14)"/>
      <path id="Path_522" data-name="Path 522" d="M176.887,227.009l-8.987,4.749v22.071h98.852S257.631,228,220.795,225.495c-24.587-1.654-21.608-1.842-30.878-1.77a28.307,28.307,0,0,0-13.031,3.285Z" transform="translate(-92.456 -123.192)" fill="#68e1fd"/>
      <path id="Path_523" data-name="Path 523" d="M175.53,263.33s2.485-18.813,22.417-21.613,43.877,2.975,47.31,4.812c17.56,9.382,17,16.8,17,16.8Z" transform="translate(-96.658 -132.692)" fill="url(#linear-gradient-15)"/>
      <path id="Path_524" data-name="Path 524" d="M250.161,147.62c-4.349,0-7.3-.072-9.315.04-3.595.2-4.192.971-4.39,3.644-.261,3.5,4.318,13.412,2.84,17.151a2.094,2.094,0,0,1-1.564,1.379s-17.416,0-29.462-16.773c0,0,8.488-8.429,7.7-20.377s-5.073-31.543-.8-33.65,41.689-10.406,47.305,4.637S262.342,147.656,250.161,147.62Z" transform="translate(-114.687 -52.232)" fill="url(#linear-gradient-16)"/>
      <path id="Path_525" data-name="Path 525" d="M217.566,86.265c-1.573,4.044-1.379,8.636-1.689,13.031s-1.411,9.2-4.61,11.683a9.345,9.345,0,0,0-2.1,1.757c-1.411,1.955-.449,4.889-.791,7.4-.643,4.727-5.54,6.794-8.047,10.613-1.532,2.337-2.139,5.329-3.617,7.71s-4.552,4.017-6.547,2.193a7.485,7.485,0,0,1-1.752-3.959,180.121,180.121,0,0,1-3.568-55.178c.6-6.668,2.125-14.23,7.284-17.366a17.272,17.272,0,0,1,6.664-1.919c13.188-1.905,27.566-3.541,38.876,4.493a6.809,6.809,0,0,1,2.6,2.88c2.656,6.6-7.827,6.219-10.55,6.906C224.742,77.733,219.741,80.685,217.566,86.265Z" transform="translate(-101.39 -33.406)" fill="#3f3d56"/>
      <path id="Path_526" data-name="Path 526" d="M265.268,231.756a2.3,2.3,0,0,1-1.37,0,4.516,4.516,0,0,1-2.152-1.86c-2.925-3.918-5.661-8.232-6.232-13.089-.22-1.869-.036-3.959,1.276-5.311a6.7,6.7,0,0,1,4.134-1.645c1.429-.162,1.132.121,4.273.288.571.031,6,.391,6.515.737-8.142.112-9.085,1.033-9.283,3.707C262.168,218.109,266.746,228.017,265.268,231.756Z" transform="translate(-140.659 -115.532)" fill="url(#linear-gradient-17)"/>
      <path id="Path_527" data-name="Path 527" d="M368.55,268.963s6.376-12.195,10.335-13.031,5.239-3.981,7.98-4.624,3.051,1.411,3.631,6.07-3.563,11.588-3.563,11.588Z" transform="translate(-202.948 -138.325)" fill="url(#linear-gradient-18)"/>
      <rect id="Rectangle_149" data-name="Rectangle 149" width="67.017" height="22.183" rx="10.59" transform="translate(229.209 160.159)" fill="#68e1fd"/>
      <rect id="Rectangle_150" data-name="Rectangle 150" width="48.033" height="3.514" rx="1.757" transform="translate(243.345 187.469)" fill="#68e1fd"/>
      <rect id="Rectangle_151" data-name="Rectangle 151" width="48.033" height="3.514" rx="1.757" transform="translate(243.345 202.261)" fill="#68e1fd"/>
      <rect id="Rectangle_152" data-name="Rectangle 152" width="48.033" height="3.514" rx="1.757" transform="translate(243.345 217.053)" fill="#68e1fd"/>
      <rect id="Rectangle_153" data-name="Rectangle 153" width="48.033" height="3.514" rx="1.757" transform="translate(243.345 231.26)" fill="#68e1fd"/>
    </g>
  </g>
</svg>
