<svg id="Group_58" data-name="Group 58" xmlns="http://www.w3.org/2000/svg" width="505.24" height="343.532" viewBox="0 0 505.24 343.532">
  <path id="Path_888" data-name="Path 888" d="M897.181,675.742c-11.332,8.163-26.016,8.573-40.211,7.57-1.982-.14-3.95-.3-5.9-.481-.012,0-.027,0-.039-.005-.094-.009-.188-.018-.277-.023l-1.2-.113.094.18.3.558c-.106-.187-.212-.369-.319-.556-.031-.056-.066-.112-.1-.168-3.677-6.4-7.324-13.033-8.255-20.34-.962-7.584,1.741-16.172,8.416-19.9a13.466,13.466,0,0,1,2.764-1.158c.4-.121.8-.22,1.213-.307a14.437,14.437,0,0,1,16.789,18.768c5.659-5.8,4.6-15.217,2.651-23.084s-4.324-16.622-.346-23.688a15.621,15.621,0,0,1,10.464-7.357c.134-.029.267-.058.4-.083a21.07,21.07,0,0,1,15.137,2.652c8.345,5.259,12.631,15.229,14.022,25C915.024,648.92,910.064,666.46,897.181,675.742Z" transform="translate(-443.923 -340.361)" fill="#f2f2f2"/>
  <path id="Path_889" data-name="Path 889" d="M899.162,650.822a35.818,35.818,0,0,1-2.472,10.093,31.1,31.1,0,0,1-4.829,7.887,39.848,39.848,0,0,1-15.306,11.037,57.347,57.347,0,0,1-13.945,3.747c-1.982-.14-3.95-.3-5.9-.481-.012,0-.027,0-.039-.005-.094-.009-.187-.018-.277-.023l-1.2-.113.094.18.3.558c-.106-.187-.212-.369-.319-.556-.031-.056-.066-.112-.1-.168a31.422,31.422,0,0,0,2.925-41.4c.4-.121.8-.22,1.213-.307a33.145,33.145,0,0,1,3.024,5.008,32.482,32.482,0,0,1,2.8,20.208,33.21,33.21,0,0,1-8.414,16.565c.378-.027.761-.057,1.135-.092a58.231,58.231,0,0,0,20.583-5.244,37.07,37.07,0,0,0,13.887-11.395c3.892-5.368,5.607-11.825,5.9-18.387a77.588,77.588,0,0,0-2.2-21.007,88.163,88.163,0,0,0-7.409-20.182.634.634,0,0,1,.252-.837.54.54,0,0,1,.4-.083.47.47,0,0,1,.31.266c.405.79.8,1.582,1.185,2.382a89.16,89.16,0,0,1,6.981,20.938A71.8,71.8,0,0,1,899.162,650.822Z" transform="translate(-449.563 -340.635)" fill="#fff"/>
  <path id="Path_890" data-name="Path 890" d="M199.715,272.69a2.719,2.719,0,0,1-.986-.186,2.683,2.683,0,0,1-1.721-2.516v-28.2a3.6,3.6,0,0,0-3.6-3.6h-5.774a9.009,9.009,0,0,1-9-9V172.5a9.009,9.009,0,0,1,9-9H391.31a9.009,9.009,0,0,1,9,9v56.693a9.009,9.009,0,0,1-9,9H234.1a3.61,3.61,0,0,0-2.654,1.167L201.7,271.812A2.684,2.684,0,0,1,199.715,272.69ZM187.633,164.7a7.808,7.808,0,0,0-7.8,7.8v56.693a7.808,7.808,0,0,0,7.8,7.8h5.774a4.8,4.8,0,0,1,4.8,4.8v28.2A1.5,1.5,0,0,0,200.813,271l29.75-32.455a4.811,4.811,0,0,1,3.538-1.556H391.31a7.808,7.808,0,0,0,7.8-7.8V172.5a7.808,7.808,0,0,0-7.8-7.8Z" transform="translate(-178.635 -163.5)" fill="#ccc"/>
  <circle id="Ellipse_112" data-name="Ellipse 112" cx="7.874" cy="7.874" r="7.874" transform="translate(14.198 9.786)" fill="#ccc"/>
  <path id="Path_891" data-name="Path 891" d="M391.465,260.02h-185.3a4.2,4.2,0,1,1,0-8.4h185.3a4.2,4.2,0,0,1,0,8.4Z" transform="translate(-187.977 -198.79)" fill="#ccc"/>
  <path id="Path_892" data-name="Path 892" d="M331.1,230.25H206.162a4.2,4.2,0,0,1,0-8.4H331.1a4.2,4.2,0,1,1,0,8.4Z" transform="translate(-187.977 -186.868)" fill="#ccc"/>
  <path id="Path_893" data-name="Path 893" d="M199.715,606.286a2.719,2.719,0,0,1-.986-.186,2.683,2.683,0,0,1-1.721-2.516v-28.2a3.6,3.6,0,0,0-3.6-3.6h-5.774a9.009,9.009,0,0,1-9-9V506.095a9.009,9.009,0,0,1,9-9H391.31a9.009,9.009,0,0,1,9,9v56.693a9.009,9.009,0,0,1-9,9H234.1a3.61,3.61,0,0,0-2.654,1.167L201.7,605.409A2.684,2.684,0,0,1,199.715,606.286ZM187.634,498.3a7.808,7.808,0,0,0-7.8,7.8v56.694a7.808,7.808,0,0,0,7.8,7.8h5.774a4.8,4.8,0,0,1,4.8,4.8v28.2a1.5,1.5,0,0,0,2.606,1.014l29.75-32.455a4.812,4.812,0,0,1,3.538-1.556H391.31a7.808,7.808,0,0,0,7.8-7.8V506.095a7.808,7.808,0,0,0-7.8-7.8Z" transform="translate(-178.635 -297.095)" fill="#ccc"/>
  <path id="Path_894" data-name="Path 894" d="M581.488,432.921a2.683,2.683,0,0,1-1.982-.878l-29.75-32.455a3.609,3.609,0,0,0-2.654-1.167H389.892a9.009,9.009,0,0,1-9-9V332.729a9.009,9.009,0,0,1,9-9H593.569a9.009,9.009,0,0,1,9,9v56.693a9.009,9.009,0,0,1-9,9h-5.774a3.6,3.6,0,0,0-3.6,3.6v28.2a2.682,2.682,0,0,1-1.721,2.516A2.714,2.714,0,0,1,581.488,432.921ZM389.892,324.93a7.808,7.808,0,0,0-7.8,7.8v56.693a7.808,7.808,0,0,0,7.8,7.8H547.1a4.811,4.811,0,0,1,3.537,1.556l29.75,32.455A1.5,1.5,0,0,0,583,430.219v-28.2a4.8,4.8,0,0,1,4.8-4.8h5.774a7.808,7.808,0,0,0,7.8-7.8V332.73a7.808,7.808,0,0,0-7.8-7.8Z" transform="translate(-259.633 -227.667)" fill="#3f3d56"/>
  <circle id="Ellipse_113" data-name="Ellipse 113" cx="7.874" cy="7.874" r="7.874" transform="translate(14.198 209.788)" fill="#ccc"/>
  <path id="Path_895" data-name="Path 895" d="M391.465,593.616h-185.3a4.2,4.2,0,0,1,0-8.4h185.3a4.2,4.2,0,0,1,0,8.4Z" transform="translate(-187.977 -332.384)" fill="#ccc"/>
  <path id="Path_896" data-name="Path 896" d="M331.1,563.846H206.162a4.2,4.2,0,0,1,0-8.4H331.1a4.2,4.2,0,0,1,0,8.4Z" transform="translate(-187.977 -320.462)" fill="#ccc"/>
  <circle id="Ellipse_114" data-name="Ellipse 114" cx="7.874" cy="7.874" r="7.874" transform="translate(135.459 105.325)" fill="#3f3d56"/>
  <path id="Path_897" data-name="Path 897" d="M593.724,419.375h-185.3a4.2,4.2,0,0,1,0-8.4h185.3a4.2,4.2,0,0,1,0,8.4Z" transform="translate(-268.975 -262.606)" fill="#186585"/>
  <path id="Path_898" data-name="Path 898" d="M533.356,389.6H408.421a4.2,4.2,0,0,1,0-8.4H533.356a4.2,4.2,0,0,1,0,8.4Z" transform="translate(-268.975 -250.684)" fill="#186585"/>
  <path id="Path_899" data-name="Path 899" d="M720.08,510.149a6.029,6.029,0,0,1,8.15-4.363l14.065-16.161,2.987,10.725-13.814,13.7a6.061,6.061,0,0,1-11.388-3.9Z" transform="translate(-395.412 -294.103)" fill="#ffb8b8"/>
  <circle id="Ellipse_115" data-name="Ellipse 115" cx="14.725" cy="14.725" r="14.725" transform="translate(387.135 110.758)" fill="#ffb8b8"/>
  <path id="Path_900" data-name="Path 900" d="M634.191,528.435h-7.35l-3.5-28.351h10.849Z" transform="translate(-249.629 -200.268)" fill="#ffb8b8"/>
  <path id="Path_901" data-name="Path 901" d="M807.367,716.394h-23.7v-.3a9.225,9.225,0,0,1,9.225-9.224h14.475Z" transform="translate(-420.931 -381.102)" fill="#2f2e41"/>
  <path id="Path_902" data-name="Path 902" d="M672.847,541.436H665.5l-1.018-27.673,8.37-.677Z" transform="translate(-266.103 -205.474)" fill="#ffb8b8"/>
  <path id="Path_903" data-name="Path 903" d="M844.367,729.394h-23.7v-.3a9.225,9.225,0,0,1,9.225-9.224h14.476Z" transform="translate(-435.748 -386.308)" fill="#2f2e41"/>
  <path id="Path_904" data-name="Path 904" d="M830.168,641.614l-5.724-.674a2.705,2.705,0,0,1-2.382-2.64l-1.073-74.545a.9.9,0,0,0-1.747-.287L811.3,585.89l.568,42.028a2.7,2.7,0,0,1-2.535,2.729l-7.472.317a2.714,2.714,0,0,1-2.844-2.353l-3.9-47.543,0-.03,5.922-49.653,44.475,3.218L833.162,639.251a2.7,2.7,0,0,1-2.678,2.382,2.619,2.619,0,0,1-.317-.019Z" transform="translate(-425.514 -310.827)" fill="#2f2e41"/>
  <path id="Path_905" data-name="Path 905" d="M804.363,484.493a2.682,2.682,0,0,1-1.412-2.169s4-24.871,5.465-25.338l-3.207-26.6a24.527,24.527,0,0,1,5.264-18.28,23.39,23.39,0,0,1,16.206-8.683q.672-.061,1.337-.092a23.6,23.6,0,0,1,19.865,9.042A24.053,24.053,0,0,1,852.21,434.2l-1.8,6.259V484.2a2.731,2.731,0,0,1-1.116,2.19,29.908,29.908,0,0,1-18.079,5.563C819.579,491.955,808.58,486.751,804.363,484.493Z" transform="translate(-428.654 -259.532)" fill="#186585"/>
  <path id="Path_906" data-name="Path 906" d="M741.826,483.914l-7.735-5.784a2.7,2.7,0,0,1-.358-4l46.082-49.446a9.025,9.025,0,0,1,11.7-1.244h0a8.98,8.98,0,0,1,1.154,13.775l-47.341,46.465a2.681,2.681,0,0,1-3.215.425A2.762,2.762,0,0,1,741.826,483.914Z" transform="translate(-400.644 -266.957)" fill="#186585"/>
  <path id="Path_907" data-name="Path 907" d="M846.144,503.764A6.029,6.029,0,0,1,854.966,501l16.839-13.246.929,11.094L856.6,509.728a6.062,6.062,0,0,1-10.457-5.964Z" transform="translate(-445.759 -293.354)" fill="#ffb8b8"/>
  <path id="Path_908" data-name="Path 908" d="M864.952,479.6a2.676,2.676,0,0,1-1.812-1.948l-1.7-7.144a2.66,2.66,0,0,1,.99-2.765l11.444-12.377-16.834-25.957a9.138,9.138,0,1,1,15.488-9.372l15.65,30.463a13.86,13.86,0,0,1-4.629,17.863l-15.993,10.684a2.675,2.675,0,0,1-1.781.682,2.727,2.727,0,0,1-.821-.128Z" transform="translate(-449.495 -264.021)" fill="#186585"/>
  <path id="Path_909" data-name="Path 909" d="M847.873,371.113a2.637,2.637,0,0,1-3.893-1.538l-.009-.037a12.6,12.6,0,0,1,.014-3.766,4.72,4.72,0,0,0-.915-3.562c-1.607-1.716-4.445-.787-6.758-1.211a5.7,5.7,0,0,1-4.468-6.065c.031-.262.082-.524.138-.786a4.391,4.391,0,0,0-4.587-5.294c-2.334.146-4.851.867-6.792-.852a5.006,5.006,0,0,1-1.231-5.391c1.086-3.19,4.195-4.874,7.275-5.806a26.732,26.732,0,0,1,22.678,3.6,12,12,0,0,1,4.628,5.31c.843,2.23.457,5.052-1.408,6.537a12.064,12.064,0,0,1,2.857,11.7C854.493,366.938,850.093,369.819,847.873,371.113Z" transform="translate(-435.101 -232.466)" fill="#2f2e41"/>
  <path id="Path_910" data-name="Path 910" d="M867.981,735.1a.6.6,0,0,1-.6.6H638.959a.6.6,0,0,1,0-1.2H867.381a.6.6,0,0,1,.6.6Z" transform="translate(-362.74 -392.167)" fill="#3f3d56"/>
</svg>
