<svg xmlns="http://www.w3.org/2000/svg" width="434.696" height="277.386" viewBox="0 0 434.696 277.386">
  <g id="undraw_Data_points_re_vkpq" transform="translate(0 0)">
    <path id="Path_3" data-name="Path 3" d="M207.484,673.172a16.731,16.731,0,0,0,6-14.423c-.66-5.387-4.75-10.339-10.055-11.483s-11.353,2.023-12.964,7.2c-.887-9.991-1.909-20.4-7.221-28.91a30.617,30.617,0,0,0-22.17-14.2,27.47,27.47,0,0,0-24.166,9.865,24.931,24.931,0,0,0-3.066,25.668c2.905,6.027,8.258,10.513,13.866,14.162a89.488,89.488,0,0,0,61.2,13.389Z" transform="translate(-130.169 -398.2)" fill="#f2f2f2"/>
    <path id="Path_4" data-name="Path 4" d="M160.749,617.69a146.416,146.416,0,0,1,20.4,20.262,146.846,146.846,0,0,1,22.982,38.405c.414,1.014-1.233,1.456-1.642.453a145.335,145.335,0,0,0-13.28-25.126,145.884,145.884,0,0,0-29.669-32.79C158.7,618.2,159.906,617,160.749,617.69Z" transform="translate(-145.078 -401.586)" fill="#fff"/>
    <path id="Path_5" data-name="Path 5" d="M566.574,149.129H342.081a3.23,3.23,0,0,0-3.227,3.227V304.476a3.23,3.23,0,0,0,3.227,3.227H566.574a3.23,3.23,0,0,0,3.227-3.227V152.356A3.23,3.23,0,0,0,566.574,149.129Zm2.3,155.347a2.306,2.306,0,0,1-2.3,2.3H342.081a2.306,2.306,0,0,1-2.3-2.3V152.356a2.306,2.306,0,0,1,2.3-2.3H566.574a2.306,2.306,0,0,1,2.3,2.3Z" transform="translate(-241.887 -149.129)" fill="#3f3d56"/>
    <rect id="Rectangle_34" data-name="Rectangle 34" width="230.025" height="0.922" transform="translate(97.428 12.926)" fill="#3f3d56"/>
    <circle id="Ellipse_1" data-name="Ellipse 1" cx="2.766" cy="2.766" r="2.766" transform="translate(102.499 4.149)" fill="#3f3d56"/>
    <circle id="Ellipse_2" data-name="Ellipse 2" cx="2.766" cy="2.766" r="2.766" transform="translate(110.451 4.149)" fill="#3f3d56"/>
    <circle id="Ellipse_3" data-name="Ellipse 3" cx="2.766" cy="2.766" r="2.766" transform="translate(118.402 4.149)" fill="#3f3d56"/>
    <path id="Path_6" data-name="Path 6" d="M582.3,216.083H543.581a3.227,3.227,0,0,1,0-6.454H582.3a3.227,3.227,0,1,1,0,6.454Z" transform="translate(-350.501 -181.74)" fill="#ccc"/>
    <path id="Path_7" data-name="Path 7" d="M577.814,250.083H486.081a3.227,3.227,0,0,1,0-6.454h91.733a3.227,3.227,0,0,1,0,6.454Z" transform="translate(-319.507 -200.067)" fill="#ccc"/>
    <path id="Path_8" data-name="Path 8" d="M727.978,425.465a17.58,17.58,0,1,1,17.581-17.58A17.581,17.581,0,0,1,727.978,425.465Zm0-33.949a16.368,16.368,0,1,0,16.368,16.368,16.368,16.368,0,0,0-16.368-16.368Z" transform="translate(-442.159 -279.129)" fill="#3f3d56"/>
    <path id="Path_9" data-name="Path 9" d="M408.242,323.322a17.581,17.581,0,1,1,17.581-17.581,17.581,17.581,0,0,1-17.581,17.581Zm0-33.949a16.368,16.368,0,1,0,16.368,16.368,16.368,16.368,0,0,0-16.368-16.368Z" transform="translate(-269.812 -224.072)" fill="#3f3d56"/>
    <path id="Path_10" data-name="Path 10" d="M425.614,324.722a1.737,1.737,0,0,1-1.737-1.734v-9.865a1.736,1.736,0,0,1,1.734-1.734h0a1.736,1.736,0,0,1,1.734,1.734v9.864a1.736,1.736,0,0,1-1.734,1.735Zm-4.529,0a1.742,1.742,0,0,1-1.759-1.734v-5.314a1.736,1.736,0,0,1,1.734-1.734h.025a1.736,1.736,0,0,1,1.734,1.734v5.314a1.736,1.736,0,0,1-1.734,1.735Zm-4.572,0a1.737,1.737,0,0,1-1.737-1.734v-15.17a1.736,1.736,0,0,1,1.734-1.734h0a1.736,1.736,0,0,1,1.734,1.734v15.17a1.736,1.736,0,0,1-1.734,1.734Zm-4.555,0a1.734,1.734,0,0,1-1.736-1.736l0-2.278a1.734,1.734,0,0,1,3.469,0v2.278a1.736,1.736,0,0,1-1.734,1.734Z" transform="translate(-280.356 -233.732)" fill="#186585"/>
    <path id="Path_11" data-name="Path 11" d="M986.783,707.322a17.58,17.58,0,1,1,17.58-17.581,17.581,17.581,0,0,1-17.58,17.581Zm0-33.949a16.368,16.368,0,1,0,16.368,16.368,16.368,16.368,0,0,0-16.368-16.368Z" transform="translate(-581.662 -431.058)" fill="#3f3d56"/>
    <path id="Path_12" data-name="Path 12" d="M1001.9,703.291l-3.427,5.241a1.857,1.857,0,0,1,.424,1.187,1.886,1.886,0,0,1-3.771,0,2.22,2.22,0,0,1,.033-.362l-2.262-1.318a1.878,1.878,0,0,1-2.237.282l-2.407,2.255v2.248a1.683,1.683,0,0,0,1.676,1.679h14.249a1.687,1.687,0,0,0,1.679-1.679v-8.335l-2.3-1.531a1.893,1.893,0,0,1-1.654.333Z" transform="translate(-591.931 -447.659)" fill="#186585"/>
    <path id="Path_13" data-name="Path 13" d="M991.585,699.225a1.886,1.886,0,0,1,1.886,1.886h0v.242l2.36,1.321a1.882,1.882,0,0,1,1.194-.427,2.084,2.084,0,0,1,.409.043l3.435-5.317a1.879,1.879,0,1,1,3.409-1.086,2,2,0,0,1-.051.445l1.625,1.086v-3.145a1.686,1.686,0,0,0-1.679-1.679H989.924a1.683,1.683,0,0,0-1.676,1.679v9.009l1.571-1.506a1.882,1.882,0,0,1,1.766-2.534Z" transform="translate(-591.928 -442.072)" fill="#186585"/>
    <path id="Path_14" data-name="Path 14" d="M570.31,323.322a17.581,17.581,0,1,1,17.58-17.581,17.581,17.581,0,0,1-17.58,17.581Zm0-33.949a16.368,16.368,0,1,0,16.368,16.368,16.368,16.368,0,0,0-16.368-16.368Z" transform="translate(-357.171 -224.072)" fill="#3f3d56"/>
    <path id="Path_15" data-name="Path 15" d="M569.11,325.22a1.278,1.278,0,0,1-.905-2.181l6.5-6.514a1.084,1.084,0,0,1,.772-.321h0a1.084,1.084,0,0,1,.772.32l3.013,3.013a.651.651,0,0,0,.463.192h0a.65.65,0,0,0,.463-.192l4.253-4.261a.218.218,0,0,0,0-.309l-1.376-1.374a.655.655,0,0,1,.463-1.119h4.888a.656.656,0,0,1,.655.655v4.885a.655.655,0,0,1-1.118.463l-1.378-1.378a.218.218,0,0,0-.309,0l-5.76,5.756a1.084,1.084,0,0,1-.772.32h0a1.085,1.085,0,0,1-.772-.32l-3.014-3.014a.671.671,0,0,0-.926,0l-5,5A1.269,1.269,0,0,1,569.11,325.22Z" transform="translate(-365.313 -237.177)" fill="#186585"/>
    <path id="Path_16" data-name="Path 16" d="M570.31,423.322a17.581,17.581,0,1,1,17.58-17.581A17.581,17.581,0,0,1,570.31,423.322Z" transform="translate(-357.171 -277.974)" fill="#e6e6e6"/>
    <path id="Path_17" data-name="Path 17" d="M728.31,320.322a17.581,17.581,0,1,1,17.581-17.581,17.58,17.58,0,0,1-17.581,17.581Z" transform="translate(-442.338 -222.454)" fill="#e6e6e6"/>
    <path id="Path_18" data-name="Path 18" d="M418.726,388.161a17.647,17.647,0,0,0-8.616,2.259,16.372,16.372,0,0,1,3.135,32.028,16.892,16.892,0,0,0,2.1.549,17.4,17.4,0,0,0,3.383.327,17.581,17.581,0,1,0,0-35.163Z" transform="translate(-280.296 -277.974)" fill="#e6e6e6"/>
    <path id="Path_19" data-name="Path 19" d="M389.772,390.633a17.051,17.051,0,0,0-3.384-.332,17.6,17.6,0,1,0,3.384.332Zm1.189,32.969a16.37,16.37,0,1,1-4.573-32.088c.484,0,.964.023,1.438.06a16.372,16.372,0,0,1,3.135,32.028Z" transform="translate(-258.012 -279.128)" fill="#3f3d56"/>
    <path id="Path_20" data-name="Path 20" d="M414.55,412.759a9.861,9.861,0,0,0-11.791-7.424c-.249.057-.507.127-.734.2l2.35,10.324L414.7,413.51C414.655,413.27,414.607,413.008,414.55,412.759Z" transform="translate(-275.938 -287.099)" fill="#186585"/>
    <path id="Path_21" data-name="Path 21" d="M404.086,417.959,393.758,420.3l-2.345-10.324a9.857,9.857,0,1,0,12.665,7.979Z" transform="translate(-266.474 -289.735)" fill="#186585"/>
    <path id="Path_22" data-name="Path 22" d="M800.18,565.465a17.581,17.581,0,1,1,17.58-17.581A17.581,17.581,0,0,1,800.18,565.465Zm0-33.948a16.368,16.368,0,1,0,16.368,16.368,16.368,16.368,0,0,0-16.368-16.368Z" transform="translate(-481.078 -354.593)" fill="#3f3d56"/>
    <path id="Path_23" data-name="Path 23" d="M815.651,567.249a3.254,3.254,0,1,1,3.251-3.256,3.254,3.254,0,0,1-3.251,3.256Zm-7.586,0A3.255,3.255,0,0,1,804.813,564v-7.586a3.251,3.251,0,0,1,6.5,0V564a3.255,3.255,0,0,1-3.252,3.251Zm-7.584,0A3.257,3.257,0,0,1,797.228,564v-3.031a3.254,3.254,0,0,1,6.507,0V564a3.257,3.257,0,0,1-3.254,3.254Z" transform="translate(-488.963 -366.914)" fill="#186585"/>
    <path id="Path_24" data-name="Path 24" d="M205.887,565.2l5.359-.608.2-20.958-7.909.9Z" transform="translate(-109.715 -293.034)" fill="#a0616a"/>
    <path id="Path_25" data-name="Path 25" d="M0,0H16.949V6.549H6.549A6.549,6.549,0,0,1,0,0Z" transform="translate(112.432 275.361) rotate(173.526)" fill="#2f2e41"/>
    <path id="Path_26" data-name="Path 26" d="M89.08,565.367h5.393l2.565-20.8H89.079Z" transform="translate(-48.016 -293.536)" fill="#a0616a"/>
    <path id="Path_27" data-name="Path 27" d="M0,0H16.949V6.549H6.549A6.549,6.549,0,0,1,0,0Z" transform="translate(56.856 276.838) rotate(179.997)" fill="#2f2e41"/>
    <path id="Path_28" data-name="Path 28" d="M254.711,533.138l3.079,10.016,16.716,36.172,4.4,34.311-10.117.44-6.159-31.672-21.115-22.874-18.475,59.825-8.358-.88s7.038-77.42,16.716-85.338C231.4,533.138,247.232,525.66,254.711,533.138Z" transform="translate(-174.954 -354.329)" fill="#2f2e41"/>
    <circle id="Ellipse_4" data-name="Ellipse 4" cx="10.804" cy="10.804" r="10.804" transform="translate(55.294 113.983)" fill="#a0616a"/>
    <path id="Path_29" data-name="Path 29" d="M269.382,492.275s1.32-44.869-17.156-41.789-10.777,46.408-10.777,46.408,3.959,7.918,13.637-.88S269.382,492.275,269.382,492.275Z" transform="translate(-188.525 -311.487)" fill="#186585"/>
    <path id="Path_30" data-name="Path 30" d="M362.833,452.283a4.423,4.423,0,0,1-6.725.886l-13.839,7.456.725-8.136,13.03-5.833a4.447,4.447,0,0,1,6.808,5.627Z" transform="translate(-243.728 -308.842)" fill="#a0616a"/>
    <path id="Path_31" data-name="Path 31" d="M263.374,455.875l22.464,3.8,20.131-9.5,3.056,6.535-22.037,14.037s-23.331,1.584-28.725-4.569c-2.023-2.307-2.254-4.407-1.753-6.131a6.062,6.062,0,0,1,6.864-4.167Z" transform="translate(-197.379 -311.398)" fill="#186585"/>
    <path id="Path_32" data-name="Path 32" d="M217.019,411.535a.446.446,0,0,0-.063-.711,6.283,6.283,0,0,1,.605-11.014c3.176-1.514,7.481-.336,9.829-3.247a5.459,5.459,0,0,0,1.013-4.433c-.507-2.749-2.573-4.79-4.887-6.189a17.784,17.784,0,0,0-26.872,17.215c.3,2.646,1.115,5.612-.458,7.76-1.384,1.89-4,2.245-6.293,2.715a23.693,23.693,0,0,0-13.015,7.086,16.5,16.5,0,0,0-4.116,13.945c1.007,4.924,5.049,9.251,10.017,10.014a13.688,13.688,0,0,0,11.187-3.91,23.8,23.8,0,0,0,6.03-10.53c1.405-4.648,1.959-9.656,4.5-13.8,2.482-4.051,7.832-6.955,12.024-4.845a.45.45,0,0,0,.5-.06Z" transform="translate(-152.207 -275.396)" fill="#2f2e41"/>
    <path id="Path_33" data-name="Path 33" d="M940.686,542.641a4.467,4.467,0,0,0,1.6-6.661l10.41-57.61-9.714-.128-7.229,56.969a4.491,4.491,0,0,0,4.936,7.43Z" transform="translate(-562.778 -326.531)" fill="#ffb8b8"/>
    <path id="Path_34" data-name="Path 34" d="M750.094,462.891l-3.688,17.517.461,39.183h6.915l3.227-38.261,5.071-16.134Z" transform="translate(-402.334 -249.511)" fill="#ffb8b8"/>
    <path id="Path_35" data-name="Path 35" d="M799.668,465.742l-3.688,17.517.461,39.183h6.915l3.227-38.261,5.071-16.134Z" transform="translate(-429.056 -251.048)" fill="#ffb8b8"/>
    <path id="Path_36" data-name="Path 36" d="M6.862,0h10.9V6.862H0A6.862,6.862,0,0,1,6.862,0Z" transform="translate(335.257 269.652) rotate(-0.144)" fill="#2f2e41"/>
    <path id="Path_37" data-name="Path 37" d="M6.862,0h10.9V6.862H0A6.862,6.862,0,0,1,6.863,0Z" transform="translate(358.28 270.392) rotate(-0.144)" fill="#2f2e41"/>
    <circle id="Ellipse_5" data-name="Ellipse 5" cx="11.322" cy="11.322" r="11.322" transform="translate(353.263 104.83)" fill="#ffb8b8"/>
    <path id="Path_38" data-name="Path 38" d="M925.83,446.548c-3.445-5.405-14.26-18.224-30.353-10.866a6.842,6.842,0,0,0-3.949,6.744c.779,10.279,1.761,36.469-6.621,52.141,0,0,24.432,7.376,37.8.461,0,0-4.61-30.885,0-36.878a24.85,24.85,0,0,0,3.694-6.327,5.942,5.942,0,0,0-.569-5.275Z" transform="translate(-536.224 -302.391)" fill="#3f3d56"/>
    <path id="Path_39" data-name="Path 39" d="M959.055,461.02l4.524,1.885a1.714,1.714,0,0,1,1.053,1.511l.416,9.972-10.141-.922Z" transform="translate(-573.956 -317.247)" fill="#3f3d56"/>
    <path id="Path_40" data-name="Path 40" d="M878.942,564.02s-10.141,18.9-8.3,36.417l14.29,2.3,10.141-24.431-2.3,24.892,14.751.461s9.68-35.956,6.454-39.183Z" transform="translate(-528.416 -372.767)" fill="#2f2e41"/>
    <path id="Path_41" data-name="Path 41" d="M851.58,511.875a4.467,4.467,0,0,0,3.553-5.856l20.573-38.781-9.212-3.085-17.348,39.141a4.491,4.491,0,0,0,2.434,8.582Z" transform="translate(-515.458 -318.936)" fill="#ffb8b8"/>
    <path id="Path_42" data-name="Path 42" d="M897.542,445.546l-3.81-1.7s-3.231-2-6.095,2.4-5.957,14.065-5.957,14.065l12.433,3.5Z" transform="translate(-534.485 -307.743)" fill="#3f3d56"/>
    <path id="Path_43" data-name="Path 43" d="M908.274,387.827c.407-1.411.289-3.321-1.079-3.855a4.894,4.894,0,0,0-2.27.019,6.058,6.058,0,0,1-4.186-1.152,12.052,12.052,0,0,1-3.12-4.217l-1.256-2.354a10.223,10.223,0,0,1-.712-1.534,6.05,6.05,0,0,1,1.613-6.03,8.747,8.747,0,0,1,5.975-2.343,16.126,16.126,0,0,1,6.385,1.368,28.239,28.239,0,0,1,9.521,6.4c1.766,1.807,3.375,4.161,3.005,6.661-.287,1.946-1.706,3.5-3.058,4.932l-4.907,5.18a7.215,7.215,0,0,1-3.011,2.225,2.483,2.483,0,0,1-3.107-1.385A14.365,14.365,0,0,1,908.274,387.827Z" transform="translate(-541.875 -266.224)" fill="#2f2e41"/>
    <path id="Path_44" data-name="Path 44" d="M562.735,749.793H128.961a.461.461,0,1,1,0-.922H562.735a.461.461,0,0,1,0,.922Z" transform="translate(-128.5 -472.407)" fill="#3f3d56"/>
    <path id="Path_45" data-name="Path 45" d="M745.825,441.208H732.918a1.383,1.383,0,1,1,0-2.766h12.907a1.383,1.383,0,1,1,0,2.766Z" transform="translate(-453.553 -305.077)" fill="#186585"/>
    <path id="Path_46" data-name="Path 46" d="M745.825,428.208H732.918a1.383,1.383,0,1,1,0-2.766h12.907a1.383,1.383,0,1,1,0,2.766Z" transform="translate(-453.553 -298.07)" fill="#186585"/>
    <path id="Path_47" data-name="Path 47" d="M745.825,415.208H732.918a1.383,1.383,0,1,1,0-2.766h12.907a1.383,1.383,0,1,1,0,2.766Z" transform="translate(-453.553 -291.062)" fill="#186585"/>
  </g>
</svg>
