<svg id="undraw_data_xmfy" xmlns="http://www.w3.org/2000/svg" xmlns:xlink="http://www.w3.org/1999/xlink" width="545" height="434.93" viewBox="0 0 545 434.93">
  <defs>
    <linearGradient id="linear-gradient" x1="0.5" y1="1" x2="0.5" gradientUnits="objectBoundingBox">
      <stop offset="0" stop-color="gray" stop-opacity="0.251"/>
      <stop offset="0.54" stop-color="gray" stop-opacity="0.122"/>
      <stop offset="1" stop-color="gray" stop-opacity="0.102"/>
    </linearGradient>
    <linearGradient id="linear-gradient-10" x1="0.516" y1="0.999" x2="0.516" y2="-0.001" xlink:href="#linear-gradient"/>
    <linearGradient id="linear-gradient-11" x1="1.221" y1="1.356" x2="1.221" y2="0.356" xlink:href="#linear-gradient"/>
    <linearGradient id="linear-gradient-12" x1="1.26" y1="1.627" x2="1.26" y2="0.627" xlink:href="#linear-gradient"/>
    <linearGradient id="linear-gradient-13" x1="0.506" y1="0.964" x2="0.506" y2="0.023" xlink:href="#linear-gradient"/>
    <linearGradient id="linear-gradient-14" xlink:href="#linear-gradient"/>
    <linearGradient id="linear-gradient-15" x1="0.498" x2="0.498" y2="0.007" xlink:href="#linear-gradient"/>
    <linearGradient id="linear-gradient-16" xlink:href="#linear-gradient"/>
    <linearGradient id="linear-gradient-21" xlink:href="#linear-gradient"/>
    <linearGradient id="linear-gradient-27" x1="0" y1="0.5" x2="1" y2="0.5" xlink:href="#linear-gradient"/>
  </defs>
  <ellipse id="Ellipse_36" data-name="Ellipse 36" cx="40.982" cy="10.398" rx="40.982" ry="10.398" transform="translate(185.337 414.133)" fill="#f2f2f2"/>
  <ellipse id="Ellipse_37" data-name="Ellipse 37" cx="40.982" cy="10.398" rx="40.982" ry="10.398" transform="translate(188.395 299.138)" fill="#f2f2f2"/>
  <ellipse id="Ellipse_38" data-name="Ellipse 38" cx="40.982" cy="10.398" rx="40.982" ry="10.398" transform="translate(0 304.032)" fill="#f2f2f2"/>
  <rect id="Rectangle_67" data-name="Rectangle 67" width="234.27" height="8.869" transform="translate(13.836 2.447)" fill="#f5f5f5"/>
  <rect id="Rectangle_68" data-name="Rectangle 68" width="242.222" height="297.273" transform="translate(9.554)" fill="url(#linear-gradient)"/>
  <rect id="Rectangle_69" data-name="Rectangle 69" width="234.27" height="281.063" transform="translate(13.836 11.316)" fill="#fff"/>
  <ellipse id="Ellipse_39" data-name="Ellipse 39" cx="2.5" cy="1" rx="2.5" ry="1" transform="translate(16 6)" fill="#ff5252"/>
  <circle id="Ellipse_40" data-name="Ellipse 40" cx="2.141" cy="2.141" r="2.141" transform="translate(22.399 4.893)" fill="#ff0"/>
  <circle id="Ellipse_41" data-name="Ellipse 41" cx="2.141" cy="2.141" r="2.141" transform="translate(28.29 4.893)" fill="#69f0ae"/>
  <g id="Group_9" data-name="Group 9" transform="translate(20.564 22.02)" opacity="0.2">
    <rect id="Rectangle_70" data-name="Rectangle 70" width="91.139" height="5.505" fill="#186585"/>
  </g>
  <rect id="Rectangle_71" data-name="Rectangle 71" width="91.139" height="5.505" transform="translate(85.402 44.652)" fill="#f5f5f5"/>
  <rect id="Rectangle_72" data-name="Rectangle 72" width="91.139" height="5.505" transform="translate(20.564 222.037)" fill="#186585" opacity="0.5"/>
  <rect id="Rectangle_73" data-name="Rectangle 73" width="30.584" height="6.728" transform="translate(123.937 221.425)" fill="url(#linear-gradient)"/>
  <rect id="Rectangle_74" data-name="Rectangle 74" width="30.584" height="6.728" transform="translate(123.937 255.679)" fill="url(#linear-gradient)"/>
  <rect id="Rectangle_75" data-name="Rectangle 75" width="30.584" height="6.728" transform="translate(186.328 255.679)" fill="url(#linear-gradient)"/>
  <rect id="Rectangle_76" data-name="Rectangle 76" width="28.749" height="5.505" transform="translate(125.16 222.037)" fill="#186585"/>
  <rect id="Rectangle_77" data-name="Rectangle 77" width="28.749" height="5.505" transform="translate(125.16 256.291)" fill="#186585"/>
  <rect id="Rectangle_78" data-name="Rectangle 78" width="28.749" height="5.505" transform="translate(186.939 256.291)" fill="#186585"/>
  <rect id="Rectangle_79" data-name="Rectangle 79" width="91.139" height="5.505" transform="translate(20.564 239.164)" fill="#f5f5f5"/>
  <rect id="Rectangle_80" data-name="Rectangle 80" width="91.139" height="5.505" transform="translate(125.16 239.164)" fill="#186585" opacity="0.5"/>
  <rect id="Rectangle_81" data-name="Rectangle 81" width="91.139" height="5.505" transform="translate(125.16 273.417)" fill="#f5f5f5"/>
  <rect id="Rectangle_82" data-name="Rectangle 82" width="91.139" height="5.505" transform="translate(20.564 256.291)" fill="#186585" opacity="0.5"/>
  <rect id="Rectangle_83" data-name="Rectangle 83" width="91.139" height="5.505" transform="translate(20.564 273.417)" fill="#f5f5f5"/>
  <rect id="Rectangle_84" data-name="Rectangle 84" width="51.38" height="5.505" transform="translate(85.402 53.827)" fill="#f5f5f5"/>
  <rect id="Rectangle_85" data-name="Rectangle 85" width="17.738" height="5.505" transform="translate(145.957 53.827)" fill="#f5f5f5"/>
  <rect id="Rectangle_86" data-name="Rectangle 86" width="51.38" height="5.505" transform="translate(85.402 72.177)" fill="#f5f5f5"/>
  <rect id="Rectangle_87" data-name="Rectangle 87" width="17.738" height="5.505" transform="translate(145.957 72.177)" fill="#f5f5f5"/>
  <rect id="Rectangle_88" data-name="Rectangle 88" width="91.139" height="5.505" transform="translate(85.402 63.002)" fill="#f5f5f5"/>
  <g id="Group_10" data-name="Group 10" transform="translate(149.016 22.02)" opacity="0.2">
    <rect id="Rectangle_89" data-name="Rectangle 89" width="91.139" height="5.505" fill="#186585"/>
  </g>
  <rect id="Rectangle_90" data-name="Rectangle 90" width="11.01" height="6.728" transform="translate(200.396 44.04)" fill="url(#linear-gradient)"/>
  <rect id="Rectangle_91" data-name="Rectangle 91" width="11.01" height="6.728" transform="translate(200.396 53.215)" fill="url(#linear-gradient)"/>
  <rect id="Rectangle_92" data-name="Rectangle 92" width="11.01" height="6.728" transform="translate(200.396 62.391)" fill="url(#linear-gradient)"/>
  <rect id="Rectangle_93" data-name="Rectangle 93" width="9.787" height="5.505" transform="translate(201.008 44.652)" fill="#ff5252"/>
  <rect id="Rectangle_94" data-name="Rectangle 94" width="9.787" height="5.505" transform="translate(201.008 53.827)" fill="#ff9800"/>
  <rect id="Rectangle_95" data-name="Rectangle 95" width="9.787" height="5.505" transform="translate(201.008 63.002)" fill="#69f0ae"/>
  <rect id="Rectangle_96" data-name="Rectangle 96" width="11.01" height="6.728" transform="translate(200.396 71.566)" fill="url(#linear-gradient)"/>
  <rect id="Rectangle_97" data-name="Rectangle 97" width="9.787" height="5.505" transform="translate(201.008 72.177)" fill="#186585"/>
  <rect id="Rectangle_98" data-name="Rectangle 98" width="224.484" height="91.751" transform="translate(18.729 111.324)" fill="url(#linear-gradient)"/>
  <rect id="Rectangle_99" data-name="Rectangle 99" width="219.59" height="86.857" transform="translate(20.564 113.159)" fill="#186585" opacity="0.5"/>
  <path id="Path_417" data-name="Path 417" d="M40.348,191.728H253.21V185H33.62v86.857h6.728Z" transform="translate(-13.056 -71.841)" fill="#fff" opacity="0.5"/>
  <rect id="Rectangle_100" data-name="Rectangle 100" width="226.319" height="92.974" transform="translate(19.865 126.072) rotate(-5.2)" fill="url(#linear-gradient-10)"/>
  <rect id="Rectangle_101" data-name="Rectangle 101" width="219.59" height="86.857" transform="translate(23.739 128.168) rotate(-5.2)" fill="#fff"/>
  <path id="Path_418" data-name="Path 418" d="M217.592,373.732,213.8,325.551s19.573-20.8,59.088-5.383,58.146,4.533,64.568-5.878,39.759-22.02,50.561-4.606,23.757-2.165,23.757-2.165l4.38,48.12Z" transform="translate(-177.528 -174.578)" fill="#186585" opacity="0.5"/>
  <line id="Line_7" data-name="Line 7" x2="0.33" y2="3.658" transform="translate(59.962 140.477)" fill="none" stroke="#186585" stroke-miterlimit="10" stroke-width="1"/>
  <line id="Line_8" data-name="Line 8" x2="3.511" y2="38.572" transform="translate(60.935 151.144)" fill="none" stroke="#186585" stroke-miterlimit="10" stroke-width="1" stroke-dasharray="11.51 11.51"/>
  <line id="Line_9" data-name="Line 9" x2="0.336" y2="3.652" transform="translate(64.764 193.221)" fill="none" stroke="#186585" stroke-miterlimit="10" stroke-width="1"/>
  <line id="Line_10" data-name="Line 10" x2="0.336" y2="3.652" transform="translate(97.574 146.447)" fill="none" stroke="#186585" stroke-miterlimit="10" stroke-width="1"/>
  <line id="Line_11" data-name="Line 11" x2="2.538" y2="27.837" transform="translate(98.632 158.056)" fill="none" stroke="#186585" stroke-miterlimit="10" stroke-width="1" stroke-dasharray="13.06 13.06"/>
  <line id="Line_12" data-name="Line 12" x2="0.33" y2="3.658" transform="translate(101.531 189.869)" fill="none" stroke="#186585" stroke-miterlimit="10" stroke-width="1"/>
  <line id="Line_13" data-name="Line 13" x2="0.367" y2="3.652" transform="translate(135.95 152.979)" fill="none" stroke="#186585" stroke-miterlimit="10" stroke-width="1"/>
  <line id="Line_14" data-name="Line 14" x2="2.067" y2="20.858" transform="translate(136.911 162.595)" fill="none" stroke="#186585" stroke-miterlimit="10" stroke-width="1" stroke-dasharray="9.79 9.79"/>
  <line id="Line_15" data-name="Line 15" x2="0.361" y2="3.658" transform="translate(139.278 186.432)" fill="none" stroke="#186585" stroke-miterlimit="10" stroke-width="1"/>
  <line id="Line_16" data-name="Line 16" x2="0.33" y2="3.658" transform="translate(170.442 131.412)" fill="none" stroke="#186585" stroke-miterlimit="10" stroke-width="1"/>
  <line id="Line_17" data-name="Line 17" x2="3.444" y2="37.795" transform="translate(171.397 141.939)" fill="none" stroke="#186585" stroke-miterlimit="10" stroke-width="1" stroke-dasharray="11.28 11.28"/>
  <line id="Line_18" data-name="Line 18" x2="0.336" y2="3.658" transform="translate(175.152 183.165)" fill="none" stroke="#186585" stroke-miterlimit="10" stroke-width="1"/>
  <line id="Line_19" data-name="Line 19" x2="0.33" y2="3.652" transform="translate(195.338 126.365)" fill="none" stroke="#186585" stroke-miterlimit="10" stroke-width="1"/>
  <line id="Line_20" data-name="Line 20" x2="3.639" y2="39.961" transform="translate(196.328 137.284)" fill="none" stroke="#186585" stroke-miterlimit="10" stroke-width="1" stroke-dasharray="11.93 11.93"/>
  <line id="Line_21" data-name="Line 21" x2="0.336" y2="3.652" transform="translate(200.298 180.878)" fill="none" stroke="#186585" stroke-miterlimit="10" stroke-width="1"/>
  <circle id="Ellipse_42" data-name="Ellipse 42" cx="3.058" cy="3.058" r="3.058" transform="translate(56.523 137.472) rotate(-5.2)" fill="#ff9800"/>
  <circle id="Ellipse_43" data-name="Ellipse 43" cx="3.058" cy="3.058" r="3.058" transform="translate(93.957 143.895) rotate(-5.2)" fill="#ff5252"/>
  <circle id="Ellipse_44" data-name="Ellipse 44" cx="3.058" cy="3.058" r="3.058" transform="translate(132.617 150.201) rotate(-5.2)" fill="#69f0ae"/>
  <circle id="Ellipse_45" data-name="Ellipse 45" cx="4.282" cy="4.282" r="4.282" transform="translate(165.564 127.548) rotate(-5.2)" fill="url(#linear-gradient-11)"/>
  <circle id="Ellipse_46" data-name="Ellipse 46" cx="4.282" cy="4.282" r="4.282" transform="translate(190.926 122.786) rotate(-5.2)" fill="url(#linear-gradient-12)"/>
  <circle id="Ellipse_47" data-name="Ellipse 47" cx="3.058" cy="3.058" r="3.058" transform="translate(166.893 128.656) rotate(-5.2)" fill="#186585"/>
  <circle id="Ellipse_48" data-name="Ellipse 48" cx="3.058" cy="3.058" r="3.058" transform="translate(192.255 123.894) rotate(-5.2)" fill="#186585"/>
  <circle id="Ellipse_49" data-name="Ellipse 49" cx="3.058" cy="3.058" r="3.058" transform="translate(231.019 131.421) rotate(-5.2)" fill="#69f0ae"/>
  <g id="Group_11" data-name="Group 11" transform="translate(240.546 194.924)" opacity="0.2">
    <path id="Path_419" data-name="Path 419" d="M547.76,413.182l.043.141C548.274,413.06,547.76,413.182,547.76,413.182Z" transform="translate(-547.76 -413.154)" fill="url(#linear-gradient-13)"/>
  </g>
  <g id="Group_12" data-name="Group 12" transform="translate(198.761 192.066)" opacity="0.2">
    <path id="Path_420" data-name="Path 420" d="M516.167,514.117l9.958-1.609-1.37-6.117h0v-.086h-.037l-7.059-32.419V450.246a8.763,8.763,0,0,0-.049-.9c10.545-13.983,4.282-35.924,3.67-37.838-.11.055-.275.128-.508.22a12.89,12.89,0,0,0-.483-2.526s-3.058-1.945-4.728.557c-1.456,2.184-.373,3.517-.073,3.829l-.208.067a7.047,7.047,0,0,1,.966,2.41,5.3,5.3,0,0,0-.33-.612c-.385-.067-.612-.128-.612-.128l-.073-.067-.208.067c1.058,1.548,1.431,4.282,1.382,7.524a10.622,10.622,0,0,0-1.223-1.413,10.8,10.8,0,0,0-7.157-2.985h-.508a6.32,6.32,0,0,0-.832.055h-.208l-.349.049-.4.073-.287.061-.5.135-.183.055c-.208.067-.41.135-.612.214a10.548,10.548,0,0,1-2.1.758,1.019,1.019,0,0,0-.3.031h0a3.5,3.5,0,0,1-2.294-.654l-.22-.171a3.236,3.236,0,0,1-.239-.226,1.554,1.554,0,0,0-.1.667,2.049,2.049,0,0,0,.716,1.389,1.935,1.935,0,0,0,.379.257,1.64,1.64,0,0,0,.648.183h.177c-.141.067-.281.129-.428.184h-.031c-.159.055-.312.1-.477.147h0a5.311,5.311,0,0,1-2.447.037h0l-.263-.061c-.128-.037-.263-.073-.385-.116a2.908,2.908,0,0,0,.135.269l.049.08.11.171.067.086.122.153.073.08.153.153.061.055.226.19.079.055.165.116.11.067.147.086.122.061.153.067.129.055.171.061.214.061.159.043H500.3a3.057,3.057,0,0,0,.918-.226l-.563.232h0l-.281.1-.287.1-.287.086-.294.086-.287.073-.306.073-.281.055-.324.055-.269.043-.349.043h-1.468a2.575,2.575,0,0,1,.924.489,2.444,2.444,0,0,0,.569.306,2.172,2.172,0,0,0,.275.061h1.37a4,4,0,0,1,1.584.508,2.847,2.847,0,0,1,.679.612c-.086.141-.171.275-.245.422s-.129.245-.19.373a7.613,7.613,0,0,0-.324.777,8.615,8.615,0,0,0-.526,2.967v.71a2.022,2.022,0,0,0,.049.44v.116q.037.269.1.532v.1q.049.22.11.434l.037.128A8.575,8.575,0,0,0,501,434.14l.043.1q.1.226.214.44v.043q.134.245.281.483v.037q.135.22.288.428l.037.049a8.665,8.665,0,0,0,.716.863h0a8.652,8.652,0,0,0,2.306,1.731,3.843,3.843,0,0,0-.067.4h0a3.875,3.875,0,0,0,0,.416v3.23q-.275.147-.538.312c-7.664-3.48-19.078-28.137-19.078-28.137h-.275c1.113-.832,0-4.453,0-4.453a5.223,5.223,0,0,0-2.141-.71H481.8l-.122.037h-.061l-.183.067h0l-.171.08-.061.031-.116.067-.079.373-.11.073-.067.055-.1.086-.067.061-.1.1-.061.067-.1.122-.049.061-.153.208c-1.67,2.5,0,3.9,0,3.9a24.894,24.894,0,0,0-.153,2.905c-.122,18.02,19.164,31.984,20.148,32.682a36.991,36.991,0,0,0,.043,23.543.4.4,0,0,0,.049.086,36.138,36.138,0,0,0-10.839,34.18l.08.373h.177a2.447,2.447,0,0,1-.067.245,2.806,2.806,0,0,1-.177.428,3.32,3.32,0,0,1-.446.654h0c-.19.22-.41.44-.642.667l-.245.233c-.972.93-1.957,1.835-1.223,2.2H497.42v-4.594h.183s-.073-.141-.183-.416v-.049h-.037c-.55-1.419-1.835-5.811.22-12.576,2.5-8.349,12.234-12.521,12.234-12.521l.177.612h-.037l7.634,25.079a1.021,1.021,0,0,1-.031.3,4.083,4.083,0,0,1-.165.7,4.414,4.414,0,0,1-.208.514c-.471.973-1.284,2.116-1.639,2.973a2.88,2.88,0,0,0-.128.361,1.114,1.114,0,0,0-.043.428.5.5,0,0,0,.324.41h.141l.294-.049Zm-2.948-71.4q-.287-.159-.612-.3v-3.034a3.851,3.851,0,0,0-.067-.691,8.631,8.631,0,0,0,1.835-1.181c-.367,1.872-.777,3.664-1.15,5.205Z" transform="translate(-479.447 -408.482)" fill="url(#linear-gradient-14)"/>
  </g>
  <path id="Path_421" data-name="Path 421" d="M479.862,419.45s-1.835-1.541,0-4.318,5.242-.612,5.242-.612,1.223,4.006,0,4.93S479.862,419.45,479.862,419.45Z" transform="translate(-280.531 -218.448)" fill="#ca7070"/>
  <path id="_Path_" data-name="&lt;Path&gt;" d="M503.959,591.75h-8.5a2.789,2.789,0,0,1-.8,2.184c-1.144,1.321-3.444,2.918-2.361,3.462h11.658Z" transform="translate(-285.568 -287.584)" fill="#00695c"/>
  <path id="Path_422" data-name="Path 422" d="M495.284,593.934a2.789,2.789,0,0,0,.8-2.184h-.612a2.789,2.789,0,0,1-.8,2.184c-1.144,1.321-3.444,2.918-2.361,3.462h.612C491.84,596.851,494.14,595.261,495.284,593.934Z" transform="translate(-285.572 -287.584)" fill="#fff" opacity="0.2"/>
  <path id="_Path_2" data-name="&lt;Path&gt;" d="M554.446,588.89l-7.952,1.291a4.049,4.049,0,0,1-.361,2.8c-.869,1.835-2.82,4.123-1.645,4.618L556,595.765Z" transform="translate(-305.801 -286.473)" fill="#00695c"/>
  <path id="Path_423" data-name="Path 423" d="M547.954,416.926s9.1,28.693-6.16,44.579l-4.4-3.37s9.016-31.318,3.97-38.67C550.266,416.5,547.954,416.926,547.954,416.926Z" transform="translate(-303.187 -219.687)" fill="#00695c"/>
  <path id="Path_424" data-name="Path 424" d="M543.862,417.44s-1.835-1.541,0-4.318,5.242-.612,5.242-.612,1.223,4.006,0,4.93S543.862,417.44,543.862,417.44Z" transform="translate(-305.383 -217.668)" fill="#ca7070"/>
  <path id="Path_425" data-name="Path 425" d="M546.745,592.969a4.05,4.05,0,0,0,.361-2.808l7.34-1.223v-.1l-7.952,1.321a4.049,4.049,0,0,1-.361,2.8c-.869,1.835-2.82,4.123-1.645,4.618l.483-.08C544.1,596.89,545.913,594.694,546.745,592.969Z" transform="translate(-305.801 -286.454)" fill="#fff" opacity="0.2"/>
  <rect id="Rectangle_102" data-name="Rectangle 102" width="8.631" height="12.79" rx="4.315" transform="translate(226.612 223.97)" fill="#ca7070"/>
  <path id="Path_426" data-name="Path 426" d="M537.814,462.729s8.906-30.932,4.055-38.535c-.428-.08-.7-.141-.7-.141l-.08-.073-.226.073c5.046,7.34-3.97,38.67-3.97,38.67l4.4,3.37.385-.416Z" transform="translate(-302.993 -222.434)" fill="#fff" opacity="0.2"/>
  <circle id="Ellipse_50" data-name="Ellipse 50" cx="9.554" cy="9.554" r="9.554" transform="translate(221.529 209.333)" fill="#ca7070"/>
  <path id="Path_427" data-name="Path 427" d="M522.823,459.833v-4.159a4.287,4.287,0,0,1,.1-.905,9.554,9.554,0,0,1,3.829-18.038h-.538a9.554,9.554,0,0,0-4.373,18.051,4.279,4.279,0,0,0-.1.905v4.159a4.282,4.282,0,0,0,4.857,4.282,4.331,4.331,0,0,1-3.774-4.294Z" transform="translate(-295.134 -227.385)" fill="#fff" opacity="0.2"/>
  <path id="Path_428" data-name="Path 428" d="M534.681,507.482s-18.43,2.08-19.109,0c-4.777-14.643,0-26.2,0-26.2a9.554,9.554,0,0,1,9.554-9.554h0a9.554,9.554,0,0,1,9.554,9.554Z" transform="translate(-293.89 -240.977)" fill="#00695c"/>
  <path id="Path_429" data-name="Path 429" d="M527.766,530.18l8.325,38.223h-8.325l-8.631-28.357s-10.79,4.624-13.561,13.873,0,14.484,0,14.484h-8.943l-.092-.416a39.759,39.759,0,0,1,12.111-37.807h0" transform="translate(-286.975 -263.674)" fill="#263238"/>
  <path id="Path_430" data-name="Path 430" d="M516.552,507.494c-4.777-14.643,0-26.2,0-26.2a9.554,9.554,0,0,1,8.938-9.536h-.613a9.554,9.554,0,0,0-9.554,9.554,40.748,40.748,0,0,0,0,26.2c.245.746,2.765.954,5.9.924C518.674,508.381,516.747,508.136,516.552,507.494Z" transform="translate(-293.793 -240.988)" fill="#fff" opacity="0.2"/>
  <path id="Path_431" data-name="Path 431" d="M502.471,462.237s-24.656-17.261-22.191-39.147h5.548s13.249,28.693,21.739,31.446S502.471,462.237,502.471,462.237Z" transform="translate(-280.942 -222.088)" fill="#00695c"/>
  <g id="Group_13" data-name="Group 13" transform="translate(208.68 266.659)" opacity="0.2">
    <path id="Path_432" data-name="Path 432" d="M534.31,547.08l8.472,27.837h1.223l-8.631-28.357S534.977,546.731,534.31,547.08Z" transform="translate(-510.671 -536.694)" fill="#fff"/>
    <path id="Path_433" data-name="Path 433" d="M509.895,530.43h-1.223a39.759,39.759,0,0,0-12.111,37.807l.092.416h1.223l-.092-.416A39.759,39.759,0,0,1,509.895,530.43Z" transform="translate(-495.663 -530.43)" fill="#fff"/>
  </g>
  <path id="Path_434" data-name="Path 434" d="M481.205,423.6h-.924c-2.447,21.886,22.191,39.147,22.191,39.147l.612-.232C500.228,460.4,478.9,444.03,481.205,423.6Z" transform="translate(-280.944 -222.286)" fill="#fff" opacity="0.2"/>
  <path id="Path_435" data-name="Path 435" d="M515.722,439.3a15.817,15.817,0,0,1,1.113,3.847c.612,2.679,1.994,5.352,4.373,6.728a9.708,9.708,0,0,0,4.282,1.168c2.275.141,4.74-.3,6.349-1.914a7.868,7.868,0,0,0,1.939-3.909,13.231,13.231,0,0,0-3.48-12.16,11.738,11.738,0,0,0-12.233-2.563,11.681,11.681,0,0,1-2.318.844,3.86,3.86,0,0,1-3.383-1.126,2.135,2.135,0,0,0,2.061,2.765,5.952,5.952,0,0,1-4.563.245,3.872,3.872,0,0,0,4.893,1.951,13.041,13.041,0,0,1-5.505,1.125c.4,0,1.174.734,1.658.881a10.51,10.51,0,0,0,1.835.128,3.56,3.56,0,0,1,2.979,1.988Z" transform="translate(-292.259 -224.68)" fill="#263238"/>
  <g id="Group_14" data-name="Group 14" transform="translate(216.966 205.076)" opacity="0.2">
    <path id="Path_436" data-name="Path 436" d="M516.313,433.245a5.891,5.891,0,0,1-2.263.581,5.934,5.934,0,0,0,2.881-.581,2.159,2.159,0,0,1-2.165-2.33,3.631,3.631,0,0,1-.514-.434,2.135,2.135,0,0,0,2.061,2.765Z" transform="translate(-511.09 -430.034)" fill="#fff"/>
    <path id="Path_437" data-name="Path 437" d="M520.312,431.341a11.679,11.679,0,0,0,2.318-.844,10.634,10.634,0,0,1,3.67-.74,10.742,10.742,0,0,0-4.282.74,11.686,11.686,0,0,1-2.318.844,1.017,1.017,0,0,0-.33.037A3.666,3.666,0,0,0,520.312,431.341Z" transform="translate(-513.155 -429.751)" fill="#fff"/>
    <path id="Path_438" data-name="Path 438" d="M511.479,440.626c-.483-.141-1.26-.869-1.658-.881a13.042,13.042,0,0,0,5.505-1.126,3.414,3.414,0,0,1-1.223.257,13.047,13.047,0,0,1-4.893.869c.4,0,1.174.734,1.658.881a4.1,4.1,0,0,0,1.285.1A2.68,2.68,0,0,1,511.479,440.626Z" transform="translate(-509.21 -433.195)" fill="#fff"/>
    <path id="Path_439" data-name="Path 439" d="M528.131,455.839a9.7,9.7,0,0,1-4.282-1.168c-2.379-1.388-3.737-4.061-4.374-6.728a15.812,15.812,0,0,0-1.113-3.847,3.56,3.56,0,0,0-3.015-1.976,6.173,6.173,0,0,0-.918,0h.3a3.56,3.56,0,0,1,3.016,1.976,15.812,15.812,0,0,1,1.113,3.847c.612,2.679,1.994,5.352,4.374,6.728a9.7,9.7,0,0,0,4.282,1.168h.618Z" transform="translate(-511.237 -434.547)" fill="#fff"/>
    <path id="Path_440" data-name="Path 440" d="M514.137,437.6a3.9,3.9,0,0,1-3.132-2,5.7,5.7,0,0,1-.716-.2A3.9,3.9,0,0,0,514.137,437.6Z" transform="translate(-509.629 -431.944)" fill="#fff"/>
  </g>
  <path id="Path_441" data-name="Path 441" d="M480.484,419.446s-1.835-1.541,0-4.318a2.955,2.955,0,0,1,2.288-1.4,3,3,0,0,0-2.9,1.4c-1.835,2.777,0,4.318,0,4.318a16.713,16.713,0,0,0,3.627.4,18.249,18.249,0,0,1-3.016-.4Z" transform="translate(-280.534 -218.444)" fill="#fff" opacity="0.2"/>
  <g id="Group_15" data-name="Group 15" transform="translate(22.37 200.957)" opacity="0.2">
    <path id="Path_442" data-name="Path 442" d="M191.315,423.209l.049-.165S190.741,422.921,191.315,423.209Z" transform="translate(-191.072 -423.018)" fill="url(#linear-gradient-15)"/>
  </g>
  <g id="Group_16" data-name="Group 16" transform="translate(9.664 197.502)" opacity="0.2">
    <path id="Path_443" data-name="Path 443" d="M240.887,431.266a4.025,4.025,0,0,0-.22-.569c0-.061-.061-.11-.092-.165a3.434,3.434,0,0,0-.184-.318l-.122-.159a3.107,3.107,0,0,0-.2-.239l-.141-.141q-.11-.1-.22-.184l-.153-.11-.245-.147-.153-.079-.275-.116-.141-.055a3.4,3.4,0,0,0-.4-.11h0a6.318,6.318,0,0,0-2.685.073s-2.563,3.78-1.578,5.138l-.324-.1s-19.041,21.249-29.782,25.195q-.41-.281-.85-.526v-3.976a4.7,4.7,0,0,0,0-.5h0a4.654,4.654,0,0,0-.08-.471l.08-.043.318-.177.459-.281.294-.19a6.089,6.089,0,0,0,.612-.477l.239-.208q.22-.183.422-.385l.245-.239q.257-.263.489-.538l.171-.208q.22-.275.422-.563l.171-.257q.183-.281.349-.575l.11-.19a8.367,8.367,0,0,0,.373-.783l.1-.239q.128-.324.239-.655a1.135,1.135,0,0,1,.073-.232c.086-.288.165-.575.226-.875a.363.363,0,0,1,.031-.177q.073-.373.116-.758V445.4c0-.312.049-.612.049-.948a10.4,10.4,0,0,0-2.313-6.54c.814-1.271,1.346-2.024,1.346-2.024-.489-.336-.973-.642-1.45-.942l-.465-.275c-.318-.19-.612-.379-.954-.55l-.532-.281c-.287-.153-.569-.3-.85-.434l-.544-.251-.814-.355-.532-.214c-.269-.1-.538-.2-.8-.294l-.5-.171c-.275-.086-.55-.165-.82-.239l-.447-.122c-.306-.073-.612-.135-.911-.2l-.324-.067c-.41-.073-.814-.128-1.223-.165h0a14.5,14.5,0,0,0-7.34,1.125c.122-2.924.612-5.334,1.639-6.826l-.251-.086-.086.086s-.3.067-.771.153a6.4,6.4,0,0,0-.4.74,8.509,8.509,0,0,1,1.168-2.912l-.251-.086c.361-.373,1.67-1.982-.086-4.618-2.018-3.022-5.713-.673-5.713-.673a15.634,15.634,0,0,0-.575,3.058c-.281-.116-.483-.2-.612-.269a76.152,76.152,0,0,0-2.869,19.182c-6.661,9.456-9.414,23.415-9.952,26.424h0l-.043.238h0c-.037.22-.055.337-.055.337l17.316.4v27.6L175.01,521.873s4.8.153,12.013,1.076l-1.994,14.258h0l-.667,4h12c1.333-2.667-5.334-4-5.334-4h-.147l2.6-13.3q1.725.287,3.548.612a34.758,34.758,0,0,0,5.4.612h0a28.721,28.721,0,0,0,4.5-.2c.881,7.212-.275,11.518-.5,12.234h-.067l-.667,4h12c1.162-2.324-3.756-3.639-5.034-3.933l.055-.392a66.923,66.923,0,0,0,.471-13.579,16.437,16.437,0,0,0,4.282-2.551h0l.165-.147h0l.049-.049-8.937-25.079c1.67-7.1-4.141-14.546-1.04-18.271s1.223-8.478.856-9.291c8.392-3.67,25.354-12.845,30.113-28.749a30.079,30.079,0,0,0,.85-3.407S241.927,434.747,240.887,431.266Z" transform="translate(-170.3 -417.368)" fill="url(#linear-gradient-16)"/>
  </g>
  <path id="Path_444" data-name="Path 444" d="M192.872,430.926s-9.1,28.694,6.16,44.579l4.4-3.37s-9.016-31.318-3.97-38.67C190.56,430.5,192.872,430.926,192.872,430.926Z" transform="translate(-168.356 -225.123)" fill="#ff5252"/>
  <path id="Path_445" data-name="Path 445" d="M201.187,431.44s1.835-1.541,0-4.318-5.242-.612-5.242-.612-1.223,4.006,0,4.93S201.187,431.44,201.187,431.44Z" transform="translate(-170.383 -223.104)" fill="#f6b9ad"/>
  <rect id="Rectangle_103" data-name="Rectangle 103" width="8.631" height="12.79" rx="4.315" transform="translate(42.67 245.323) rotate(180)" fill="#f6b9ad"/>
  <path id="Path_446" data-name="Path 446" d="M207.347,476.729s-8.906-30.932-4.055-38.535c.428-.08.7-.141.7-.141l.08-.073.226.073c-5.046,7.34,3.97,38.67,3.97,38.67l-4.4,3.37-.385-.416Z" transform="translate(-172.886 -227.871)" fill="#fff" opacity="0.2"/>
  <circle id="Ellipse_51" data-name="Ellipse 51" cx="9.554" cy="9.554" r="9.554" transform="translate(28.645 217.896)" fill="#f6b9ad"/>
  <path id="Path_447" data-name="Path 447" d="M220.007,473.833v-4.159a4.283,4.283,0,0,0-.1-.905,9.554,9.554,0,0,0-3.829-18.038h.538a9.554,9.554,0,0,1,4.373,18.05,4.278,4.278,0,0,1,.1.905v4.159a4.282,4.282,0,0,1-4.857,4.282A4.331,4.331,0,0,0,220.007,473.833Z" transform="translate(-178.413 -232.822)" fill="#fff" opacity="0.2"/>
  <path id="Path_448" data-name="Path 448" d="M201.08,521.482s18.43,2.08,19.109,0c2.2-6.728-3.67-14-.734-17.555,3.058-3.67.734-8.643.734-8.643a9.554,9.554,0,0,0-9.554-9.554h0a9.554,9.554,0,0,0-9.554,9.554Z" transform="translate(-172.588 -246.413)" fill="#ff5252"/>
  <path id="Path_449" data-name="Path 449" d="M225.172,503.927c3.058-3.67.734-8.643.734-8.643a9.554,9.554,0,0,0-9.554-9.554,4.059,4.059,0,0,0-.612.031,9.548,9.548,0,0,1,8.943,9.524s2.324,4.973-.734,8.643c-2.96,3.554,2.936,10.82.734,17.555-.208.642-2.11.887-4.637.924,3.113.031,5.621-.177,5.86-.924C228.133,514.742,222.212,507.481,225.172,503.927Z" transform="translate(-178.281 -246.413)" fill="#fff" opacity="0.2"/>
  <path id="Path_450" data-name="Path 450" d="M214.746,543.18h0c6.728,9.536,9.707,23.947,7.78,37.807l-.055.416h-5.744s1.78-5.242,0-14.484a22.87,22.87,0,0,0-8.71-13.873L202.476,581.4H197.13l5.346-38.223Z" transform="translate(-171.054 -268.723)" fill="#f6b9ad"/>
  <path id="Path_451" data-name="Path 451" d="M275.577,449.231s2.22-.93,1.266-4.129-4.832-2.122-4.832-2.122-2.355,3.468-1.444,4.716S275.577,449.231,275.577,449.231Z" transform="translate(-199.491 -229.744)" fill="#f6b9ad"/>
  <path id="Path_452" data-name="Path 452" d="M221.651,483.2s28.632-9.279,32.688-30.926l-5.3-1.627s-21.072,23.525-29.972,23.69S221.651,483.2,221.651,483.2Z" transform="translate(-178.259 -232.791)" fill="#ff5252"/>
  <path id="Path_453" data-name="Path 453" d="M256.779,453.35l.887.269c-4.055,21.647-32.688,30.926-32.688,30.926l-.508-.4C227.853,482.973,253,473.541,256.779,453.35Z" transform="translate(-181.671 -233.839)" fill="#fff" opacity="0.2"/>
  <g id="Group_17" data-name="Group 17" transform="translate(30.192 274.457)" opacity="0.2">
    <path id="Path_454" data-name="Path 454" d="M209.4,559.31l-5.542,28.357h1.223l5.383-27.525a13.2,13.2,0,0,0-1.064-.832Z" transform="translate(-203.86 -549.444)" fill="#fff"/>
    <path id="Path_455" data-name="Path 455" d="M225.153,543.18H223.93c6.728,9.536,9.707,23.947,7.78,37.807l-.055.416h1.223l.055-.416C234.861,567.127,231.894,552.716,225.153,543.18Z" transform="translate(-211.654 -543.18)" fill="#fff"/>
  </g>
  <path id="Path_456" data-name="Path 456" d="M276.017,449.1s2.22-.93,1.266-4.129a2.954,2.954,0,0,0-1.774-2.012,3,3,0,0,1,2.361,2.19c.954,3.193-1.266,4.129-1.266,4.129a16.714,16.714,0,0,1-3.584-.673A18.252,18.252,0,0,0,276.017,449.1Z" transform="translate(-200.525 -229.805)" fill="#fff" opacity="0.2"/>
  <path id="Path_457" data-name="Path 457" d="M193.7,542.48,182.08,566.947a143.744,143.744,0,0,1,20.185,2.447c12.845,2.447,18.962-3.67,18.962-3.67l-8.288-23.244Z" transform="translate(-165.21 -268.451)" fill="#263238"/>
  <path id="Path_458" data-name="Path 458" d="M202.237,605.48s6.117,1.223,4.893,3.67H196.12l.612-3.67Z" transform="translate(-170.662 -292.915)" fill="#ff5252"/>
  <path id="Path_459" data-name="Path 459" d="M234.237,605.48s6.117,1.223,4.893,3.67H228.12l.612-3.67Z" transform="translate(-183.089 -292.915)" fill="#ff5252"/>
  <path id="Path_460" data-name="Path 460" d="M209.374,450.786s-14.68,20.8-7.952,29.36l-26.3-.612S182.46,432.436,209.374,450.786Z" transform="translate(-162.507 -231.195)" fill="#fccc63"/>
  <path id="Path_461" data-name="Path 461" d="M209.374,450.832a22.28,22.28,0,0,0-10.245-4.172,25.892,25.892,0,0,1,7.187,3.56s-14.68,20.8-7.952,29.36l-23.152-.538c-.061.349-.092.538-.092.538l26.3.612C194.694,471.628,209.374,450.832,209.374,450.832Z" transform="translate(-162.507 -231.241)" fill="#fff" opacity="0.2"/>
  <path id="Path_462" data-name="Path 462" d="M228.949,542.48h-1.835l8.288,23.244s-3.951,3.945-12.172,4.227c9.463.306,14.007-4.227,14.007-4.227Z" transform="translate(-181.19 -268.451)" fill="#fff" opacity="0.2"/>
  <path id="Path_463" data-name="Path 463" d="M205.343,605.48H204.12s6.117,1.223,4.893,3.67h1.223C211.46,606.7,205.343,605.48,205.343,605.48Z" transform="translate(-173.769 -292.915)" fill="#fff" opacity="0.2"/>
  <path id="Path_464" data-name="Path 464" d="M237.343,605.48H236.12s6.117,1.223,4.893,3.67h1.223C243.46,606.7,237.343,605.48,237.343,605.48Z" transform="translate(-186.195 -292.915)" fill="#fff" opacity="0.2"/>
  <rect id="Rectangle_104" data-name="Rectangle 104" width="234.27" height="8.869" transform="translate(306.215 102.565)" fill="#f5f5f5"/>
  <rect id="Rectangle_105" data-name="Rectangle 105" width="243.446" height="303.389" transform="translate(301.554 99.733)" fill="url(#linear-gradient)"/>
  <rect id="Rectangle_106" data-name="Rectangle 106" width="234.27" height="281.063" transform="translate(306.215 111.434)" fill="#fff"/>
  <circle id="Ellipse_52" data-name="Ellipse 52" cx="2.141" cy="2.141" r="2.141" transform="translate(309.506 105.012)" fill="#ff5252"/>
  <circle id="Ellipse_53" data-name="Ellipse 53" cx="2.141" cy="2.141" r="2.141" transform="translate(315.39 105.012)" fill="#ff0"/>
  <circle id="Ellipse_54" data-name="Ellipse 54" cx="2.141" cy="2.141" r="2.141" transform="translate(321.281 105.012)" fill="#69f0ae"/>
  <g id="Group_18" data-name="Group 18" transform="translate(320.896 123.974)" opacity="0.2">
    <rect id="Rectangle_107" data-name="Rectangle 107" width="205.522" height="5.505" fill="#186585"/>
  </g>
  <rect id="Rectangle_108" data-name="Rectangle 108" width="88.692" height="94.198" transform="translate(319.672 147.829)" fill="url(#linear-gradient)"/>
  <rect id="Rectangle_109" data-name="Rectangle 109" width="85.022" height="88.081" transform="translate(321.507 150.887)" fill="#fff"/>
  <rect id="Rectangle_110" data-name="Rectangle 110" width="88.692" height="94.198" transform="translate(437.725 194.928)" fill="url(#linear-gradient)"/>
  <rect id="Rectangle_111" data-name="Rectangle 111" width="85.022" height="88.081" transform="translate(439.56 197.986)" fill="#fff"/>
  <rect id="Rectangle_112" data-name="Rectangle 112" width="208.58" height="64.837" transform="translate(321.507 311.145)" fill="url(#linear-gradient)"/>
  <rect id="Rectangle_113" data-name="Rectangle 113" width="200.628" height="58.109" transform="translate(325.789 315.427)" fill="#186585" opacity="0.5"/>
  <path id="Path_465" data-name="Path 465" d="M537.513,521.185H733.249V515.68H532.62v58.109h4.893Z" transform="translate(-206.831 -200.253)" fill="#fff" opacity="0.5"/>
  <path id="Path_466" data-name="Path 466" d="M753.759,364.335a37.924,37.924,0,1,0,9.175,24.742A37.924,37.924,0,0,0,753.759,364.335Zm-15.292,47.386a14.984,14.984,0,1,1,.018,0Z" transform="translate(-361.316 -194.149)" fill="url(#linear-gradient-21)"/>
  <path id="Path_467" data-name="Path 467" d="M768.112,373.893l8.349-7.187A36,36,0,0,0,749.12,354.16v11.01a25.024,25.024,0,0,1,18.992,8.722Z" transform="translate(-385.407 -195.321)" fill="#ff5252"/>
  <path id="Path_468" data-name="Path 468" d="M739.664,451.917a24.92,24.92,0,0,1-10.349-2.245L724.77,459.71a36.088,36.088,0,0,0,33.33-1.835l-5.627-9.475A24.921,24.921,0,0,1,739.664,451.917Z" transform="translate(-375.952 -231.917)" fill="#69f0ae"/>
  <path id="Path_469" data-name="Path 469" d="M793.34,398.2a35.936,35.936,0,0,0-8.747-23.543l-8.349,7.187a25.036,25.036,0,0,1-6.184,37.924l5.627,9.475A36.089,36.089,0,0,0,793.34,398.2Z" transform="translate(-393.539 -203.282)" fill="#ff9800"/>
  <path id="Path_470" data-name="Path 470" d="M701.129,390.239a25.079,25.079,0,0,1,25.079-25.079V354.15a36.089,36.089,0,0,0-14.894,68.96l4.545-10.038A25.079,25.079,0,0,1,701.129,390.239Z" transform="translate(-362.495 -195.317)" fill="#186585"/>
  <rect id="Rectangle_114" data-name="Rectangle 114" width="64.837" height="11.01" transform="translate(451.182 210.831)" fill="url(#linear-gradient)"/>
  <rect id="Rectangle_115" data-name="Rectangle 115" width="63.614" height="9.787" transform="translate(451.793 211.443)" fill="#186585"/>
  <rect id="Rectangle_116" data-name="Rectangle 116" width="46.487" height="9.787" transform="translate(451.793 227.958)" fill="#ff5252"/>
  <rect id="Rectangle_117" data-name="Rectangle 117" width="31.807" height="9.787" transform="translate(451.793 244.473)" fill="#69f0ae"/>
  <rect id="Rectangle_118" data-name="Rectangle 118" width="57.497" height="9.787" transform="translate(451.793 260.988)" fill="#ff9800"/>
  <rect id="Rectangle_119" data-name="Rectangle 119" width="91.139" height="5.505" transform="translate(321.507 256.707)" fill="#f5f5f5"/>
  <rect id="Rectangle_120" data-name="Rectangle 120" width="51.38" height="5.505" transform="translate(321.507 265.882)" fill="#f5f5f5"/>
  <rect id="Rectangle_121" data-name="Rectangle 121" width="17.738" height="5.505" transform="translate(382.063 265.882)" fill="#f5f5f5"/>
  <rect id="Rectangle_122" data-name="Rectangle 122" width="17.738" height="5.505" transform="translate(382.063 286.067)" fill="#f5f5f5"/>
  <rect id="Rectangle_123" data-name="Rectangle 123" width="51.38" height="5.505" transform="translate(321.507 284.232)" fill="#f5f5f5"/>
  <rect id="Rectangle_124" data-name="Rectangle 124" width="91.139" height="5.505" transform="translate(321.507 275.057)" fill="#f5f5f5"/>
  <rect id="Rectangle_125" data-name="Rectangle 125" width="91.139" height="5.505" transform="translate(436.502 148.441)" fill="#f5f5f5"/>
  <rect id="Rectangle_126" data-name="Rectangle 126" width="51.38" height="5.505" transform="translate(436.502 157.616)" fill="#f5f5f5"/>
  <rect id="Rectangle_127" data-name="Rectangle 127" width="17.738" height="5.505" transform="translate(497.057 157.616)" fill="#f5f5f5"/>
  <rect id="Rectangle_128" data-name="Rectangle 128" width="17.738" height="5.505" transform="translate(497.057 177.801)" fill="#f5f5f5"/>
  <rect id="Rectangle_129" data-name="Rectangle 129" width="51.38" height="5.505" transform="translate(436.502 175.966)" fill="#f5f5f5"/>
  <rect id="Rectangle_130" data-name="Rectangle 130" width="91.139" height="5.505" transform="translate(436.502 166.791)" fill="#f5f5f5"/>
  <circle id="Ellipse_55" data-name="Ellipse 55" cx="6.728" cy="6.728" r="6.728" transform="translate(458.522 414.518)" fill="url(#linear-gradient)"/>
  <circle id="Ellipse_56" data-name="Ellipse 56" cx="4.893" cy="4.893" r="4.893" transform="translate(460.357 416.353)" fill="#ff5252"/>
  <rect id="Rectangle_131" data-name="Rectangle 131" width="210.415" height="74.012" transform="translate(266.457 346.622)" fill="url(#linear-gradient)"/>
  <rect id="Rectangle_132" data-name="Rectangle 132" width="200.628" height="58.109" transform="translate(272.573 349.681)" fill="#fff"/>
  <line id="Line_22" data-name="Line 22" x2="185.948" transform="translate(279.302 396.78)" fill="#fff" stroke="#186585" stroke-miterlimit="10" stroke-width="3"/>
  <rect id="Rectangle_133" data-name="Rectangle 133" width="27.525" height="33.642" transform="translate(281.137 361.303)" fill="url(#linear-gradient)"/>
  <rect id="Rectangle_134" data-name="Rectangle 134" width="24.467" height="31.195" transform="translate(282.666 362.832)" fill="#186585"/>
  <rect id="Rectangle_135" data-name="Rectangle 135" width="24.467" height="9.787" transform="translate(435.89 385.158)" fill="#69f0ae"/>
  <rect id="Rectangle_136" data-name="Rectangle 136" width="24.467" height="22.02" transform="translate(390.014 372.313)" fill="#ff9800"/>
  <rect id="Rectangle_137" data-name="Rectangle 137" width="24.467" height="18.35" transform="translate(336.187 375.983)" fill="#ff5252"/>
  <rect id="Rectangle_138" data-name="Rectangle 138" width="200.628" height="8.563" transform="translate(272.573 407.79)" fill="#ff5252"/>
  <circle id="Ellipse_57" data-name="Ellipse 57" cx="6.728" cy="6.728" r="6.728" transform="translate(274.408 414.518)" fill="url(#linear-gradient)"/>
  <circle id="Ellipse_58" data-name="Ellipse 58" cx="4.893" cy="4.893" r="4.893" transform="translate(276.243 416.353)" fill="#ff5252"/>
  <rect id="Rectangle_139" data-name="Rectangle 139" width="4.893" height="64.226" transform="translate(267.68 352.127)" fill="#ff5252"/>
  <rect id="Rectangle_140" data-name="Rectangle 140" width="4.893" height="64.226" transform="translate(267.68 352.127)" opacity="0.2"/>
  <path id="Path_471" data-name="Path 471" d="M556.257,657.2v-.5a.293.293,0,0,0-.037-.19,2.112,2.112,0,0,1-.073-.269c-.031-.086-.037-.116-.061-.177s-.073-.171-.11-.257l-.073-.153c-.049-.086-.1-.171-.159-.251l-.079-.116a4.035,4.035,0,0,0-.257-.318h0a5.887,5.887,0,0,0-1.707-1.26,4.924,4.924,0,0,0,1.095-1.884,3.932,3.932,0,0,0,.147-.575v-.177a3.322,3.322,0,0,0,.031-.355v-.5a.294.294,0,0,0-.037-.19,2.076,2.076,0,0,1-.073-.269c-.031-.086-.037-.116-.061-.177s-.073-.171-.11-.257l-.073-.153c-.049-.086-.1-.171-.159-.251l-.08-.116a4.04,4.04,0,0,0-.257-.318h0a6.162,6.162,0,0,0-2.172-1.468s-3.884,1.437-4.141,3.016c-2.85.612-19.463,4.068-30.871,3.792l-.086-.226a10.148,10.148,0,0,0-5.4-8.973v-3.841a4.574,4.574,0,0,0,0-.489h0a4.523,4.523,0,0,0-.073-.465l.073-.043.312-.171.453-.275.287-.19q.318-.22.612-.465l.232-.2c.141-.122.275-.245.41-.373l.239-.232q.251-.257.477-.526l.165-.208q.214-.269.41-.55l.165-.251q.177-.275.343-.563l.1-.184c.135-.245.257-.5.367-.758l.092-.232q.129-.312.233-.612l.073-.226c.086-.281.159-.563.22-.85a.341.341,0,0,1,.031-.171q.067-.367.11-.74v-.251c0-.306.049-.612.049-.924a10.1,10.1,0,0,0-1.3-4.96c.654-.16,1.052-.288,1-.349-.251-.336-.5-.655-.765-.96l-.251-.287c-.183-.208-.361-.4-.544-.612l-.294-.3c-.183-.183-.367-.355-.551-.52l-.287-.257q-.349-.294-.7-.569l-.153-.122c-.281-.208-.563-.4-.85-.612l-.318-.2c-.184-.116-.373-.226-.563-.324l-.379-.2-.526-.251-.385-.171c-.184-.079-.373-.147-.563-.214l-.349-.128c-.281-.092-.563-.177-.844-.251l-.434-.1-.471-.1-.471-.073-.434-.049-.483-.043h-.9q-.4,0-.8.037h0c-6.257.514-11.738,5.976-11.738,14.68V641.1h9.787v3.266a10.148,10.148,0,0,0-5.9,9.206v27.837l-8.306,38.162h-.11l-1.633,7.285,11.72,1.9h0l.508.079c1.223-.526-.826-2.991-1.749-4.893a5.215,5.215,0,0,1-.245-.612,4.629,4.629,0,0,1-.232-1.187l9-29.538h-.043l.214-.691s11.463,4.893,14.411,14.735c2.392,7.952.905,13.126.257,14.8h-.043v.1c-.128.318-.22.5-.22.5h.22v5.4h12.392c1.15-.581-1.291-2.275-2.508-3.67a3.468,3.468,0,0,1-.807-1.56h.208l.1-.44a42.529,42.529,0,0,0-12.759-40.23.463.463,0,0,0,.055-.1,45.54,45.54,0,0,0,2.147-11.047c9.475.905,22.081.257,31.507-7.047a29.357,29.357,0,0,0,2.575-2.19c.814-.061,2.239-.514,3.028-2.814a3.923,3.923,0,0,0,.147-.575v-.177A3.36,3.36,0,0,0,556.257,657.2Z" transform="translate(-283.359 -298.243)" fill="url(#linear-gradient-27)"/>
  <path id="Path_472" data-name="Path 472" d="M518.692,692.257s28.687,9.12,44.579-6.117l-3.37-4.41s-30.828,6.869-38.174,1.835S518.692,692.257,518.692,692.257Z" transform="translate(-295.437 -322.526)" fill="#186585"/>
  <path id="Path_473" data-name="Path 473" d="M562.99,688l.563.734c-15.9,15.243-44.579,6.117-44.579,6.117s-.073-.232-.183-.612C522.209,695.26,548.163,702.24,562.99,688Z" transform="translate(-295.964 -324.96)" fill="#fff" opacity="0.2"/>
  <path id="Path_474" data-name="Path 474" d="M589.351,684.387s2.349.532,3.432-2.618-2.691-4.539-2.691-4.539-3.933,1.45-3.921,2.991S589.351,684.387,589.351,684.387Z" transform="translate(-322.129 -320.778)" fill="#985454"/>
  <path id="Path_475" data-name="Path 475" d="M589.4,684.765s2.349.532,3.432-2.618a2.954,2.954,0,0,0-.275-2.667,3,3,0,0,1,.648,3.156c-1.083,3.156-3.431,2.618-3.431,2.618a16.712,16.712,0,0,1-2.52-2.636A18.25,18.25,0,0,0,589.4,684.765Z" transform="translate(-322.549 -321.652)" fill="#fff" opacity="0.2"/>
  <path id="_Path_3" data-name="&lt;Path&gt;" d="M541.7,781.75h8.5a2.789,2.789,0,0,0,.8,2.184c1.144,1.321,3.444,2.918,2.361,3.462H541.7Z" transform="translate(-304.861 -361.366)" fill="#186585"/>
  <path id="Path_476" data-name="Path 476" d="M555.376,783.934a2.79,2.79,0,0,1-.8-2.184h.612a2.789,2.789,0,0,0,.8,2.184c1.144,1.321,3.444,2.918,2.361,3.462h-.612C558.82,786.851,556.52,785.261,555.376,783.934Z" transform="translate(-309.857 -361.366)" fill="#fff" opacity="0.2"/>
  <path id="_Path_4" data-name="&lt;Path&gt;" d="M491.244,778.89l7.952,1.3a4.049,4.049,0,0,0,.361,2.8c.869,1.835,2.82,4.123,1.645,4.618l-11.512-1.835Z" transform="translate(-284.664 -360.255)" fill="#186585"/>
  <path id="Path_477" data-name="Path 477" d="M499.922,782.973a4.05,4.05,0,0,1-.361-2.8l-7.371-1.223v-.1l7.952,1.3a4.05,4.05,0,0,0,.361,2.8c.869,1.835,2.82,4.123,1.645,4.618l-.483-.08C502.57,786.894,500.753,784.7,499.922,782.973Z" transform="translate(-285.634 -360.24)" fill="#fff" opacity="0.2"/>
  <rect id="Rectangle_141" data-name="Rectangle 141" width="8.631" height="12.79" rx="4.315" transform="translate(228.619 352.978) rotate(180)" fill="#985454"/>
  <circle id="Ellipse_59" data-name="Ellipse 59" cx="9.554" cy="9.554" r="9.554" transform="translate(214.593 325.55)" fill="#985454"/>
  <path id="Path_478" data-name="Path 478" d="M524.007,649.833v-4.16a4.27,4.27,0,0,0-.1-.905,9.554,9.554,0,0,0-3.829-18.038h.538a9.554,9.554,0,0,1,4.374,18.051,4.286,4.286,0,0,1,.1.905v4.159a4.282,4.282,0,0,1-4.857,4.282A4.331,4.331,0,0,0,524.007,649.833Z" transform="translate(-296.465 -301.167)" fill="#fff" opacity="0.2"/>
  <path id="Path_479" data-name="Path 479" d="M505.08,697.482s18.43,2.08,19.109,0c4.777-14.643,0-26.2,0-26.2a9.554,9.554,0,0,0-9.554-9.554h0a9.554,9.554,0,0,0-9.554,9.554Z" transform="translate(-290.64 -314.759)" fill="#186585"/>
  <path id="Path_480" data-name="Path 480" d="M499.795,720.18,491.47,758.4h8.325l8.631-28.357s10.79,4.624,13.561,13.873,0,14.484,0,14.484h8.955l.092-.416a39.759,39.759,0,0,0-12.111-37.807h0" transform="translate(-285.355 -337.457)" fill="#263238"/>
  <path id="Path_481" data-name="Path 481" d="M528.886,697.494c4.777-14.643,0-26.2,0-26.2a9.555,9.555,0,0,0-8.938-9.536h.613a9.554,9.554,0,0,1,9.554,9.554,40.747,40.747,0,0,1,0,26.2c-.245.746-2.765.954-5.9.924C526.763,698.381,528.678,698.136,528.886,697.494Z" transform="translate(-296.413 -314.77)" fill="#fff" opacity="0.2"/>
  <g id="Group_19" data-name="Group 19" transform="translate(213.217 382.876)" opacity="0.2">
    <path id="Path_482" data-name="Path 482" d="M512.775,737.08,504.3,764.917H503.08l8.631-28.357S512.108,736.731,512.775,737.08Z" transform="translate(-503.08 -726.694)" fill="#fff"/>
    <path id="Path_483" data-name="Path 483" d="M534.31,720.43h1.223a39.759,39.759,0,0,1,12.111,37.807l-.092.416H546.33l.092-.416A39.759,39.759,0,0,0,534.31,720.43Z" transform="translate(-515.208 -720.43)" fill="#fff"/>
  </g>
  <path id="Path_484" data-name="Path 484" d="M516.692,682.257s28.687,9.12,44.579-6.117l-3.37-4.41s-30.828,6.869-38.174,1.835S516.692,682.257,516.692,682.257Z" transform="translate(-294.661 -318.642)" fill="#186585"/>
  <path id="Path_485" data-name="Path 485" d="M560.99,678l.563.734c-15.9,15.243-44.579,6.117-44.579,6.117s-.073-.232-.183-.612C520.209,685.261,546.163,692.24,560.99,678Z" transform="translate(-295.187 -321.077)" fill="#fff" opacity="0.2"/>
  <path id="Path_486" data-name="Path 486" d="M587.351,674.387s2.349.532,3.432-2.618-2.691-4.539-2.691-4.539-3.933,1.45-3.921,2.991S587.351,674.387,587.351,674.387Z" transform="translate(-321.353 -316.895)" fill="#985454"/>
  <path id="Path_487" data-name="Path 487" d="M587.4,674.765s2.349.532,3.431-2.618a2.954,2.954,0,0,0-.275-2.667,3,3,0,0,1,.648,3.156c-1.083,3.156-3.431,2.618-3.431,2.618a16.717,16.717,0,0,1-2.52-2.636,18.251,18.251,0,0,0,2.147,2.147Z" transform="translate(-321.772 -317.768)" fill="#fff" opacity="0.2"/>
  <path id="Path_488" data-name="Path 488" d="M513.188,632.188l-.612,12.845H499.12v-6.82c0-13.7,14.478-18.895,22.632-7.891C521.954,630.622,513.188,632.188,513.188,632.188Z" transform="translate(-288.326 -300.252)" fill="#263238"/>
  <path id="Path_489" data-name="Path 489" d="M517.18,624.47c3.431.281,6.961,2.153,9.75,5.915.2.269-8.563,1.835-8.563,1.835l-.612,12.845h1.835l.612-12.845s8.765-1.566,8.563-1.835C525.48,625.944,521.162,624.17,517.18,624.47Z" transform="translate(-295.339 -300.277)" fill="#fff" opacity="0.2"/>
</svg>
