<?xml version="1.0" encoding="utf-8"?>
<svg viewBox="171.067 243.982 573.91 104.785" xmlns="http://www.w3.org/2000/svg">
  <polygon class="cls-1" points="211.509 116.515 244.949 116.515 260.859 116.515 260.859 132.425 260.859 184.705 244.949 184.705 244.949 132.425 211.509 132.425 211.509 116.515" style="" transform="matrix(1, 0, 0, 1, 139.497746, 145.246174)"/>
  <polygon class="cls-1" points="318.199 184.705 284.749 184.705 268.839 184.705 268.839 168.795 268.839 116.515 284.749 116.515 284.749 168.795 318.199 168.795 318.199 184.705" style="" transform="matrix(1, 0, 0, 1, 139.497746, 145.246174)"/>
  <polygon class="cls-1" points="123.179 185.785 140.519 185.785 104.389 116.515 68.269 185.785 85.609 185.785 104.389 149.775 123.179 185.785" style="" transform="matrix(1, 0, 0, 1, 139.497746, 145.246174)"/>
  <path class="cls-1" d="M 216.889 201.735 L 197.499 174.585 C 201.151 171.146 204.046 166.984 205.999 162.365 L 190.119 155.645 C 184.478 169.139 166.344 171.466 157.478 159.834 C 148.612 148.201 155.663 131.333 170.17 129.471 C 179.124 128.322 187.651 133.632 190.569 142.175 L 206.899 136.635 C 197.967 110.214 163.783 103.369 145.368 124.315 C 126.953 145.261 138.117 178.287 165.464 183.762 C 171.064 184.883 176.85 184.665 182.349 183.125 L 195.659 201.745 Z" style="" transform="matrix(1, 0, 0, 1, 139.497746, 145.246174)"/>
  <polygon class="cls-1" points="369.209 116.515 351.869 116.515 333.089 152.535 314.309 116.515 296.969 116.515 325.239 170.725 325.239 170.725 325.239 184.705 340.939 184.705 340.939 170.725 369.209 116.515" style="" transform="matrix(1, 0, 0, 1, 139.497746, 145.246174)"/>
  <polygon class="cls-1" points="85.489 132.425 94.619 116.515 47.479 116.515 31.569 116.515 31.569 132.425 31.569 184.705 47.479 184.705 47.479 158.865 73.709 158.865 80.919 143.625 47.479 143.625 47.479 132.425 85.489 132.425" style="" transform="matrix(1, 0, 0, 1, 139.497746, 145.246174)"/>
  <text style="font-family: Arial, sans-serif; font-size: 17.2px; white-space: pre;" transform="matrix(4.984147, 0, 0, 5.456654, -1541.500534, -630.7029)" x="414.755" y="175.868">LABS</text>
  <path d="M 169.187 153.586 C 169.453 153.182 169.332 152.625 168.921 152.347 L 163.438 148.626 L 168.921 144.882 C 169.308 144.604 169.429 144.072 169.187 143.641 C 168.921 143.237 168.39 143.111 168.004 143.364 L 161.433 147.817 C 161.191 147.995 161.047 148.248 161.047 148.576 C 161.047 148.906 161.191 149.158 161.433 149.335 L 168.004 153.788 C 168.148 153.89 168.318 153.916 168.463 153.916 C 168.753 153.991 169.043 153.84 169.187 153.586 Z" style="" transform="matrix(1, 0, 0, 1, 139.497746, 145.246174)"/>
  <path d="M 183.632 147.893 L 177.062 143.439 C 176.675 143.161 176.144 143.287 175.878 143.718 C 175.612 144.123 175.733 144.68 176.144 144.958 L 181.627 148.703 L 176.144 152.448 C 175.758 152.726 175.637 153.258 175.878 153.687 C 176.047 153.966 176.312 154.092 176.603 154.092 C 176.772 154.092 176.917 154.042 177.062 153.966 L 183.632 149.411 C 183.874 149.234 184.018 148.981 184.018 148.652 C 183.995 148.323 183.849 148.045 183.632 147.893 Z" style="" transform="matrix(1, 0, 0, 1, 139.497746, 145.246174)"/>
  <path d="M 175.588 139.365 C 175.154 139.214 174.67 139.441 174.502 139.922 L 168.921 156.825 C 168.777 157.281 168.994 157.786 169.453 157.964 C 169.549 158.014 169.646 158.014 169.719 158.014 C 170.057 158.014 170.395 157.786 170.515 157.408 L 176.096 140.504 C 176.265 140.023 176.022 139.518 175.588 139.365 Z" style="" transform="matrix(1, 0, 0, 1, 139.497746, 145.246174)"/>
</svg>