<svg xmlns="http://www.w3.org/2000/svg" width="308.173" height="220.038" viewBox="0 0 308.173 220.038">
  <g id="undraw_data_processing_yrrv" transform="translate(0 0)">
    <circle id="Ellipse_6" data-name="Ellipse 6" cx="4.911" cy="4.911" r="4.911" transform="translate(9.333 34.98)" fill="#e6e6e6"/>
    <circle id="Ellipse_7" data-name="Ellipse 7" cx="4.911" cy="4.911" r="4.911" transform="translate(24.064 34.98)" fill="#e6e6e6"/>
    <circle id="Ellipse_8" data-name="Ellipse 8" cx="4.911" cy="4.911" r="4.911" transform="translate(38.796 34.98)" fill="#e6e6e6"/>
    <circle id="Ellipse_9" data-name="Ellipse 9" cx="4.911" cy="4.911" r="4.911" transform="translate(53.528 34.98)" fill="#e6e6e6"/>
    <circle id="Ellipse_10" data-name="Ellipse 10" cx="4.911" cy="4.911" r="4.911" transform="translate(68.259 34.98)" fill="#e6e6e6"/>
    <circle id="Ellipse_11" data-name="Ellipse 11" cx="4.911" cy="4.911" r="4.911" transform="translate(82.991 34.98)" fill="#e6e6e6"/>
    <circle id="Ellipse_12" data-name="Ellipse 12" cx="4.911" cy="4.911" r="4.911" transform="translate(97.722 34.98)" fill="#e6e6e6"/>
    <path id="Path_48" data-name="Path 48" d="M287.865,250.7H176.78a2,2,0,0,1-2-2v-7.963a2,2,0,0,1,2-2H287.865a2,2,0,0,1,2,2V248.7A2,2,0,0,1,287.865,250.7ZM176.78,239.539a1.2,1.2,0,0,0-1.2,1.2V248.7a1.2,1.2,0,0,0,1.2,1.2H287.865a1.2,1.2,0,0,0,1.2-1.2v-7.963a1.2,1.2,0,0,0-1.2-1.2Z" transform="translate(-173.885 -204.83)" fill="#e6e6e6"/>
    <path id="Path_49" data-name="Path 49" d="M198.96,145.76a1.149,1.149,0,0,1,1.148,1.148v24.881a1.149,1.149,0,0,1-1.148,1.148H174.587a1.149,1.149,0,0,1-1.148-1.148V146.908a1.149,1.149,0,0,1,1.148-1.148H198.96m0-1.148H174.587a2.3,2.3,0,0,0-2.3,2.3v24.881a2.3,2.3,0,0,0,2.3,2.3H198.96a2.3,2.3,0,0,0,2.3-2.3V146.908a2.3,2.3,0,0,0-2.3-2.3Z" transform="translate(-172.291 -144.612)" fill="#e6e6e6"/>
    <path id="Path_50" data-name="Path 50" d="M205.87,163.914H189.609a.574.574,0,1,1,0-1.148H205.87a.574.574,0,0,1,0,1.148Z" transform="translate(-183.002 -156.226)" fill="#186585"/>
    <path id="Path_51" data-name="Path 51" d="M205.87,175.2H189.609a.574.574,0,1,1,0-1.148H205.87a.574.574,0,0,1,0,1.148Z" transform="translate(-183.002 -163.446)" fill="#186585"/>
    <path id="Path_52" data-name="Path 52" d="M205.87,186.482H189.609a.574.574,0,1,1,0-1.148H205.87a.574.574,0,0,1,0,1.148Z" transform="translate(-183.002 -170.664)" fill="#186585"/>
    <path id="Path_53" data-name="Path 53" d="M205.87,197.767H189.609a.574.574,0,1,1,0-1.148H205.87a.574.574,0,0,1,0,1.148Z" transform="translate(-183.002 -177.883)" fill="#186585"/>
    <path id="Path_54" data-name="Path 54" d="M205.87,209.052H189.609a.574.574,0,1,1,0-1.148H205.87a.574.574,0,0,1,0,1.148Z" transform="translate(-183.002 -185.103)" fill="#186585"/>
    <path id="Path_55" data-name="Path 55" d="M430.02,145.76a1.149,1.149,0,0,1,1.148,1.148v24.881a1.149,1.149,0,0,1-1.148,1.148H405.648a1.149,1.149,0,0,1-1.148-1.148V146.908a1.149,1.149,0,0,1,1.148-1.148H430.02m0-1.148H405.648a2.3,2.3,0,0,0-2.3,2.3v24.881a2.3,2.3,0,0,0,2.3,2.3H430.02a2.3,2.3,0,0,0,2.3-2.3V146.908a2.3,2.3,0,0,0-2.3-2.3Z" transform="translate(-320.11 -144.612)" fill="#e6e6e6"/>
    <path id="Path_56" data-name="Path 56" d="M436.931,163.914H420.67a.574.574,0,1,1,0-1.148h16.261a.574.574,0,1,1,0,1.148Z" transform="translate(-330.821 -156.226)" fill="#186585"/>
    <path id="Path_57" data-name="Path 57" d="M436.931,175.2H420.67a.574.574,0,1,1,0-1.148h16.261a.574.574,0,1,1,0,1.148Z" transform="translate(-330.821 -163.446)" fill="#186585"/>
    <path id="Path_58" data-name="Path 58" d="M436.931,186.482H420.67a.574.574,0,1,1,0-1.148h16.261a.574.574,0,1,1,0,1.148Z" transform="translate(-330.821 -170.664)" fill="#186585"/>
    <path id="Path_59" data-name="Path 59" d="M436.931,197.767H420.67a.574.574,0,1,1,0-1.148h16.261a.574.574,0,1,1,0,1.148Z" transform="translate(-330.821 -177.883)" fill="#186585"/>
    <path id="Path_60" data-name="Path 60" d="M436.931,209.052H420.67a.574.574,0,1,1,0-1.148h16.261a.574.574,0,1,1,0,1.148Z" transform="translate(-330.821 -185.103)" fill="#186585"/>
    <path id="Path_61" data-name="Path 61" d="M659.959,278.552a1.149,1.149,0,0,1,1.148,1.148v24.88a1.149,1.149,0,0,1-1.148,1.148H635.587a1.149,1.149,0,0,1-1.148-1.148V279.7a1.149,1.149,0,0,1,1.148-1.148h24.372m0-1.148H635.587a2.3,2.3,0,0,0-2.3,2.3v24.88a2.3,2.3,0,0,0,2.3,2.3h24.372a2.3,2.3,0,0,0,2.3-2.3V279.7a2.3,2.3,0,0,0-2.3-2.3Z" transform="translate(-467.211 -229.565)" fill="#186585"/>
    <path id="Path_62" data-name="Path 62" d="M666.87,296.705H650.609a.574.574,0,1,1,0-1.148H666.87a.574.574,0,0,1,0,1.148Z" transform="translate(-477.923 -241.178)" fill="#186585"/>
    <path id="Path_63" data-name="Path 63" d="M666.87,307.99H650.609a.574.574,0,1,1,0-1.148H666.87a.574.574,0,1,1,0,1.148Z" transform="translate(-477.923 -248.397)" fill="#186585"/>
    <path id="Path_64" data-name="Path 64" d="M666.87,319.274H650.609a.574.574,0,1,1,0-1.148H666.87a.574.574,0,1,1,0,1.148Z" transform="translate(-477.923 -255.616)" fill="#186585"/>
    <path id="Path_65" data-name="Path 65" d="M666.87,330.558H650.609a.574.574,0,1,1,0-1.148H666.87a.574.574,0,1,1,0,1.148Z" transform="translate(-477.923 -262.835)" fill="#186585"/>
    <path id="Path_66" data-name="Path 66" d="M666.87,341.843H650.609a.574.574,0,1,1,0-1.148H666.87a.574.574,0,0,1,0,1.148Z" transform="translate(-477.923 -270.055)" fill="#186585"/>
    <path id="Path_67" data-name="Path 67" d="M313.789,185.582H288.779a2.554,2.554,0,0,1-2.551-2.551v-17.9a2.554,2.554,0,0,1,2.551-2.551h25.01a2.554,2.554,0,0,1,2.551,2.551v17.9A2.554,2.554,0,0,1,313.789,185.582Zm-25.011-21.851a1.4,1.4,0,0,0-1.4,1.4v17.9a1.4,1.4,0,0,0,1.4,1.4h25.01a1.4,1.4,0,0,0,1.4-1.4v-17.9a1.4,1.4,0,0,0-1.4-1.4Z" transform="translate(-245.181 -156.109)" fill="#e6e6e6"/>
    <path id="Path_68" data-name="Path 68" d="M320.695,182.773H304.434a.574.574,0,1,1,0-1.148h16.261a.574.574,0,1,1,0,1.148Z" transform="translate(-256.461 -168.291)" fill="#186585"/>
    <path id="Path_69" data-name="Path 69" d="M320.695,194.058H304.434a.574.574,0,1,1,0-1.148h16.261a.574.574,0,1,1,0,1.148Z" transform="translate(-256.461 -175.511)" fill="#186585"/>
    <path id="Path_70" data-name="Path 70" d="M320.695,205.342H304.434a.574.574,0,1,1,0-1.148h16.261a.574.574,0,1,1,0,1.148Z" transform="translate(-256.461 -182.729)" fill="#186585"/>
    <path id="Path_71" data-name="Path 71" d="M547.167,202.176l-24.021-6.966a2.554,2.554,0,0,1-1.74-3.161l4.985-17.188a2.554,2.554,0,0,1,3.161-1.74l24.021,6.966a2.554,2.554,0,0,1,1.74,3.161l-4.985,17.188a2.554,2.554,0,0,1-3.161,1.74Zm-17.935-27.952a1.4,1.4,0,0,0-1.738.957l-4.985,17.188a1.4,1.4,0,0,0,.957,1.738l24.021,6.966a1.4,1.4,0,0,0,1.738-.957l4.985-17.188a1.4,1.4,0,0,0-.957-1.739Z" transform="translate(-395.57 -162.786)" fill="#e6e6e6"/>
    <path id="Path_72" data-name="Path 72" d="M564.549,200.563l-15.617-4.529a.574.574,0,0,1,.32-1.1l15.618,4.529a.574.574,0,1,1-.32,1.1Z" transform="translate(-412.978 -176.789)" fill="#186585"/>
    <path id="Path_73" data-name="Path 73" d="M561.406,211.4l-15.618-4.529a.574.574,0,1,1,.32-1.1l15.618,4.529a.574.574,0,1,1-.32,1.1Z" transform="translate(-410.967 -183.722)" fill="#186585"/>
    <path id="Path_74" data-name="Path 74" d="M558.263,222.239l-15.617-4.529a.574.574,0,1,1,.32-1.1l15.618,4.529a.574.574,0,0,1-.32,1.1Z" transform="translate(-408.957 -190.656)" fill="#186585"/>
    <rect id="Rectangle_35" data-name="Rectangle 35" width="251.934" height="1.081" transform="translate(56.239 218.956)" fill="#e6e6e6"/>
    <path id="Path_75" data-name="Path 75" d="M489.389,571.026H448.421l1.389-18.053H488Z" transform="translate(-286.873 -353.76)" fill="#e6e6e6"/>
    <rect id="Rectangle_36" data-name="Rectangle 36" width="45.829" height="4.166" transform="translate(159.465 215.184)" fill="#e6e6e6"/>
    <path id="Path_76" data-name="Path 76" d="M609.918,374.74H453.337a4.166,4.166,0,0,0-4.166,4.166h0v95.476H614.084V378.906a4.166,4.166,0,0,0-4.166-4.166Z" transform="translate(-349.422 -291.835)" fill="#3f3d56"/>
    <path id="Path_77" data-name="Path 77" d="M449.171,651.326v15.623a4.166,4.166,0,0,0,4.166,4.166H609.919a4.166,4.166,0,0,0,4.166-4.166h0V651.326Z" transform="translate(-349.422 -468.778)" fill="#e6e6e6"/>
    <rect id="Rectangle_37" data-name="Rectangle 37" width="148.596" height="83.325" transform="translate(108.081 91.585)" fill="#e6e6e6"/>
    <circle id="Ellipse_13" data-name="Ellipse 13" cx="4.166" cy="4.166" r="4.166" transform="translate(178.213 188.103)" fill="#3f3d56"/>
    <circle id="Ellipse_14" data-name="Ellipse 14" cx="0.791" cy="0.791" r="0.791" transform="translate(111.924 93.523)" fill="#fff"/>
    <circle id="Ellipse_15" data-name="Ellipse 15" cx="0.791" cy="0.791" r="0.791" transform="translate(114.925 93.523)" fill="#fff"/>
    <circle id="Ellipse_16" data-name="Ellipse 16" cx="0.791" cy="0.791" r="0.791" transform="translate(117.926 93.523)" fill="#fff"/>
    <rect id="Rectangle_38" data-name="Rectangle 38" width="140.471" height="69.979" transform="translate(111.924 97.001)" fill="#fff"/>
    <path id="Path_78" data-name="Path 78" d="M508,443.411a.5.5,0,0,0-.5.5v25.1a.5.5,0,0,0,.5.5h28.988a.5.5,0,0,0,.5-.5v-25.1a.5.5,0,0,0-.5-.5Z" transform="translate(-386.742 -335.766)" fill="#e6e6e6"/>
    <path id="Path_79" data-name="Path 79" d="M637.2,443.635a.5.5,0,0,0-.5.5v25.021a.5.5,0,0,0,.5.5h28.9a.5.5,0,0,0,.5-.5v-25.02a.5.5,0,0,0-.5-.5Z" transform="translate(-469.394 -335.91)" fill="#e6e6e6"/>
    <path id="Path_80" data-name="Path 80" d="M765.04,442.907a.5.5,0,0,0-.5.5v25.283a.5.5,0,0,0,.5.5h29.2a.5.5,0,0,0,.5-.5V443.4a.5.5,0,0,0-.5-.5Z" transform="translate(-551.179 -335.444)" fill="#e6e6e6"/>
    <path id="Path_81" data-name="Path 81" d="M508.533,550.333a1.027,1.027,0,1,0,0,2.053h27.254a1.027,1.027,0,1,0,0-2.053Z" transform="translate(-386.742 -404.169)" fill="#e6e6e6"/>
    <path id="Path_82" data-name="Path 82" d="M508.533,563.889a1.027,1.027,0,1,0,0,2.054H520.8a1.027,1.027,0,0,0,0-2.054Z" transform="translate(-386.741 -412.841)" fill="#186585"/>
    <path id="Path_83" data-name="Path 83" d="M639.117,550.333a1.027,1.027,0,1,0,0,2.053h27.255a1.027,1.027,0,0,0,0-2.053Z" transform="translate(-470.281 -404.169)" fill="#e6e6e6"/>
    <path id="Path_84" data-name="Path 84" d="M639.117,563.889a1.027,1.027,0,0,0,0,2.054h12.271a1.027,1.027,0,0,0,0-2.054Z" transform="translate(-470.281 -412.841)" fill="#186585"/>
    <path id="Path_85" data-name="Path 85" d="M766.437,550.333a1.027,1.027,0,0,0,0,2.053h27.254a1.027,1.027,0,0,0,0-2.053Z" transform="translate(-551.733 -404.169)" fill="#e6e6e6"/>
    <path id="Path_86" data-name="Path 86" d="M508.533,536.333a1.027,1.027,0,1,0,0,2.053h27.254a1.027,1.027,0,1,0,0-2.053Z" transform="translate(-386.742 -395.212)" fill="#e6e6e6"/>
    <path id="Path_87" data-name="Path 87" d="M639.117,536.333a1.027,1.027,0,1,0,0,2.053h27.255a1.027,1.027,0,0,0,0-2.053Z" transform="translate(-470.281 -395.212)" fill="#e6e6e6"/>
    <path id="Path_88" data-name="Path 88" d="M766.437,536.333a1.027,1.027,0,0,0,0,2.053h27.254a1.027,1.027,0,0,0,0-2.053Z" transform="translate(-551.733 -395.212)" fill="#e6e6e6"/>
    <path id="Path_89" data-name="Path 89" d="M766.437,563.889a1.027,1.027,0,0,0,0,2.054h12.271a1.027,1.027,0,1,0,0-2.054Z" transform="translate(-551.733 -412.841)" fill="#186585"/>
  </g>
</svg>
