<svg xmlns="http://www.w3.org/2000/svg" xmlns:xlink="http://www.w3.org/1999/xlink" width="413.426" height="382.562" viewBox="0 0 413.426 382.562">
  <defs>
    <linearGradient id="linear-gradient" x1="0.677" y1="4.48" x2="0.657" y2="-0.432" gradientUnits="objectBoundingBox">
      <stop offset="0.01"/>
      <stop offset="0.13" stop-opacity="0.69"/>
      <stop offset="1" stop-opacity="0"/>
    </linearGradient>
    <linearGradient id="linear-gradient-2" x1="1.492" y1="2.172" x2="4.864" y2="1.846" xlink:href="#linear-gradient"/>
    <linearGradient id="linear-gradient-3" x1="0.347" y1="2.297" x2="2.762" y2="3.438" xlink:href="#linear-gradient"/>
    <linearGradient id="linear-gradient-4" x1="2.688" y1="16.679" x2="1.457" y2="20.049" xlink:href="#linear-gradient"/>
    <linearGradient id="linear-gradient-5" x1="1.391" y1="4.479" x2="2.251" y2="4.319" xlink:href="#linear-gradient"/>
    <linearGradient id="linear-gradient-6" x1="0.608" y1="4.723" x2="1.594" y2="4.834" xlink:href="#linear-gradient"/>
    <linearGradient id="linear-gradient-7" x1="0.285" y1="3.774" x2="1.933" y2="3.468" xlink:href="#linear-gradient"/>
    <linearGradient id="linear-gradient-8" x1="1.389" y1="6.034" x2="0.767" y2="3.187" xlink:href="#linear-gradient"/>
    <linearGradient id="linear-gradient-9" x1="1.527" y1="10.37" x2="2.528" y2="10.37" gradientUnits="objectBoundingBox">
      <stop offset="0" stop-color="#ecc4d7"/>
      <stop offset="0.42" stop-color="#efd4d1"/>
      <stop offset="1" stop-color="#f2eac9"/>
    </linearGradient>
    <linearGradient id="linear-gradient-10" x1="2.744" y1="18.911" x2="2.552" y2="13.96" xlink:href="#linear-gradient"/>
    <linearGradient id="linear-gradient-11" x1="1.061" y1="6.412" x2="2.109" y2="6.412" xlink:href="#linear-gradient-9"/>
    <linearGradient id="linear-gradient-12" x1="0.419" y1="3.782" x2="1.419" y2="3.782" xlink:href="#linear-gradient"/>
    <linearGradient id="linear-gradient-13" x1="1.47" y1="3.404" x2="1.076" y2="3.129" gradientUnits="objectBoundingBox">
      <stop offset="0.02" stop-color="#fff" stop-opacity="0"/>
      <stop offset="0.58" stop-color="#fff" stop-opacity="0.388"/>
      <stop offset="0.68" stop-color="#fff" stop-opacity="0.678"/>
      <stop offset="1" stop-color="#fff"/>
    </linearGradient>
    <linearGradient id="linear-gradient-14" x1="1.365" y1="7.431" x2="2.364" y2="7.431" xlink:href="#linear-gradient-9"/>
    <linearGradient id="linear-gradient-15" x1="141.046" y1="1136.339" x2="142.003" y2="1136.339" xlink:href="#linear-gradient"/>
    <linearGradient id="linear-gradient-16" x1="0.513" y1="1.66" x2="3.25" y2="1.83" xlink:href="#linear-gradient"/>
    <linearGradient id="linear-gradient-17" x1="0.246" y1="3.902" x2="1.842" y2="3.714" xlink:href="#linear-gradient"/>
    <linearGradient id="linear-gradient-18" x1="1.198" y1="2.182" x2="2.247" y2="1.382" xlink:href="#linear-gradient"/>
    <linearGradient id="linear-gradient-19" x1="0.445" y1="3.443" x2="1.445" y2="3.443" xlink:href="#linear-gradient"/>
    <linearGradient id="linear-gradient-20" x1="0.802" y1="3.512" x2="1.008" y2="3.28" xlink:href="#linear-gradient-13"/>
    <linearGradient id="linear-gradient-21" x1="0.934" y1="4.191" x2="1.236" y2="3.495" xlink:href="#linear-gradient-13"/>
    <linearGradient id="linear-gradient-22" x1="0.633" y1="12.177" x2="1.633" y2="12.177" xlink:href="#linear-gradient-13"/>
    <linearGradient id="linear-gradient-23" x1="1.521" y1="4.908" x2="2.522" y2="4.908" xlink:href="#linear-gradient-9"/>
  </defs>
  <g id="reasearch_image" data-name="reasearch image" transform="translate(0.504)">
    <path id="blob_6_" data-name="blob(6)" d="M334.349,28.728c33.845,47.989,31.319,126.288-3.031,188.421s-101.535,108.1-181.349,115.174C70.155,339.9-22.793,309.087-37.948,258.571-53.1,207.551,9.537,136.325,56.01,80.758S132.793-14.715,182.3-25.828C232.308-36.942,301.009-19.262,334.349,28.728Z" transform="translate(54.473 29.035)" fill="#f06"/>
    <path id="blob_6_2" data-name="blob(6)" d="M-16.2,27.312c-33.788,46.813-31.267,123.192,3.026,183.8S88.193,316.568,167.873,323.467c79.68,7.392,172.472-22.667,187.6-71.944,15.129-49.77-47.4-119.25-93.8-173.455S185.02-15.066,135.6-25.907C85.672-36.748,17.087-19.5-16.2,27.312Z" transform="translate(40.257 57.466)" fill="#fbeeee" stroke="#707070" stroke-width="1"/>
    <g id="_86_data_analysis" data-name="#86_data_analysis" transform="translate(19.546 77.844)">
      <path id="Path_721" data-name="Path 721" d="M357.525,220.423c1.207-19-14.7-36.877-10.5-55.436,1.543-6.813,5.71-12.807,7.422-19.6,1.889-7.453.682-15.368-1.512-22.747A88.722,88.722,0,0,0,323.2,78.7c-20.365-16.166-46.986-22.538-72.977-23.923s-52,1.743-78.015,2.351c-16.46.441-33.255-.1-49,4.913C104.6,67.982,88.954,81.5,78.153,97.794S61.042,133,57.253,152.17c-1.449,7.422-2.572,15.116-.934,22.5,2.981,13.384,14.4,23.262,19.651,35.932,3.674,8.807,4.2,18.643,7.589,27.6,5.6,15.074,18.717,26.432,33.35,33.077s30.788,9.185,46.765,10.97a587.089,587.089,0,0,0,79.894,3.411c26.778-.693,45.432-9.1,68.778-20.753C331.335,255.462,355.972,245.081,357.525,220.423Z" transform="translate(-55.509 -35.121)" fill="#68e1fd" opacity="0.18"/>
      <path id="Path_722" data-name="Path 722" d="M297.158,244.509c2.362.64,4.965,1.543,6.025,3.737,2.467,5.154-5.375,8.807-11.064,9.133A991.672,991.672,0,0,1,116.6,251.71c-6.624-.808-14.014-2.1-17.845-7.558,6.781-8.933,19.651-9.689,30.841-9.689C185.446,234.558,242.761,229.666,297.158,244.509Z" transform="translate(-53.359 -26.205)" fill="url(#linear-gradient)"/>
      <path id="Path_723" data-name="Path 723" d="M287.181,179.436l-20.375,11.914-2.866-.777c-8.072-2.236-30.557-8.681-32.541-11.925C228.932,174.7,220.02,156.1,220.02,156.1l4.2-12.87L229.037,128s19.084,30.925,22.538,32.909S287.181,179.436,287.181,179.436Z" transform="translate(-47.329 -31.463)" fill="#68e1fd"/>
      <path id="Path_724" data-name="Path 724" d="M158.426,208.176s-6.361-8.755-14.045-4.388-13.164,38.619-4.388,44.981,17.551-12.733,17.551-12.733Z" transform="translate(-51.532 -27.756)" fill="#68e1fd"/>
      <path id="Path_725" data-name="Path 725" d="M158.426,208.176s-6.361-8.755-14.045-4.388-13.164,38.619-4.388,44.981,17.551-12.733,17.551-12.733Z" transform="translate(-51.532 -27.756)" fill="url(#linear-gradient-2)"/>
      <path id="Path_726" data-name="Path 726" d="M181.051,256.633s-28.143-21.719-29.13-25.666-4.934-12.838-.514-18.759,13.825-4.451,13.825-4.451S185.975,232.94,181.051,256.633Z" transform="translate(-50.843 -27.506)" fill="#68e1fd"/>
      <path id="Path_727" data-name="Path 727" d="M181.051,256.633s-28.143-21.719-29.13-25.666-4.934-12.838-.514-18.759,13.825-4.451,13.825-4.451S185.975,232.94,181.051,256.633Z" transform="translate(-50.843 -27.506)" fill="#3f3d56"/>
      <path id="Path_728" data-name="Path 728" d="M263.211,255.1c-4.934,4.944-25.676,4.944-30.117.987s-13.5-5.1-13-14.486l2.792-4.115-.514-.136-2.75-.724L217.81,217.91,200.637,222.9l-3.233.934-1.973-29.476s31.754-17.751,44.088-15.273,8.4,31.093,8.881,32.541c.357,1.05.462,13.09,1.554,21.194.157,1.186-3.4,1.69-3.2,2.666.378,1.722,4.566,3.643,5.112,4.272C254.813,243.251,268.1,250.158,263.211,255.1Z" transform="translate(-48.552 -28.935)" fill="#3f3d56"/>
      <path id="Path_729" data-name="Path 729" d="M234.232,236.347l-12.1.147-2.75-.724-1.816-18.717-17.173,4.976-.168-.157-.871-17.331s25-9.448,28.342-8.114S234.232,236.347,234.232,236.347Z" transform="translate(-48.357 -28.067)" fill="url(#linear-gradient-3)"/>
      <path id="Path_730" data-name="Path 730" d="M222.92,185.326l4.818,11.263-67.623,6.9c-6.7.441-7.128-12.145-6.372-20.543.126-1.344.273-2.572.441-3.643,2.215-14.3,6.235-33.591,9.448-48.035,2.309-10.3,4.2-18.118,4.839-19.945,1.973-5.931,23.682-6.3,23.682-6.3h.336c22.265-1.3,39.847,24.123,39.847,24.123l-8.471,29.392-5.018,17.373.819,1.911.756,1.763Z" transform="translate(-50.638 -32.608)" fill="#68e1fd"/>
      <path id="Path_731" data-name="Path 731" d="M176.67,196.389c.661-1.417,2.278-2.1,3.727-2.614a47.51,47.51,0,0,0,8.24-4.2,8.493,8.493,0,0,1,2.572-1.3,4.9,4.9,0,0,1,4.451,1.407c4.913,4.829-1.543,4.787-5.249,5.249C188.847,195.181,177.111,195.454,176.67,196.389Z" transform="translate(-49.485 -28.471)" fill="url(#linear-gradient-4)"/>
      <path id="Path_732" data-name="Path 732" d="M221.833,156.8l-5.007,17.373.819,1.9a5.249,5.249,0,0,0,.388,1.1c.115.231.231.451.357.672.966,1.627,2.414,3.086,2.54,4.934a3.952,3.952,0,0,1,0,.861c-.3,1.984-2.1,3.611-3.685,4.923A15.619,15.619,0,0,1,212,191.8c-3.065.882-6.424-.22-8.975-2.1a31.493,31.493,0,0,1-6.3-7.159c-1.176-1.648-2.4-3.454-2.4-5.48a8.25,8.25,0,0,1,.693-2.96c2.267-5.868,6.456-10.76,10.571-15.525l15.011-17.425a2.95,2.95,0,0,1,1.984-1.312c1.05,0,1.816,1.05,2.341,1.942l.514.913-4.2,12.87S221.455,155.964,221.833,156.8Z" transform="translate(-48.607 -30.875)" fill="url(#linear-gradient-5)"/>
      <path id="Path_733" data-name="Path 733" d="M263.92,189.842c-8.072-2.236-30.557-8.681-32.541-11.914C228.912,173.981,220,155.38,220,155.38l4.2-12.87,13.184,22.936c1.921,3.338,3.894,6.75,6.886,9.164a31.168,31.168,0,0,0,6.781,3.81C253.339,179.5,269.054,184.94,263.92,189.842Z" transform="translate(-47.33 -30.742)" fill="url(#linear-gradient-6)"/>
      <path id="Path_734" data-name="Path 734" d="M218.537,175.848l8.881,20.742-61.556,6.3a6.067,6.067,0,0,0,.294-3.559c-.619-2.719-2.981-5.815-1.05-7.852a4.135,4.135,0,0,1,1.753-1.05,15.1,15.1,0,0,1,13.342,1.68c2.729,1.858,4.808,4.587,7.663,6.235s7.149,1.722,8.849-1.113c-3.7-5.962-.42-14.413-4.146-20.344-1.627-2.572-4.335-4.2-6.823-6.025a59.666,59.666,0,0,1-10.812-9.951,7.537,7.537,0,0,1-2.026-3.7,7.978,7.978,0,0,1,.514-3.433c1.281-4.272,4.9-9.825-.241-12.093-3.863-1.711-9.678,1.648-12.219,4.314-.357.367-.7.756-1.05,1.155,3.643-17.425,7.348-33.161,8.293-35.827,1.973-5.931,23.682-6.3,23.682-6.3,22.391-1.638,40.162,24.028,40.162,24.028Z" transform="translate(-50.318 -32.609)" fill="none"/>
      <path id="Path_735" data-name="Path 735" d="M197,195.525c-9.741-12.681-36.593-9.227-37.066-8.744-1.911,2.1,1.05,8.293,1.638,11.022.273,1.186,5.039,2.194,4.6,3.328l-6.067.619c-7.726.514-7.117-16.512-5.931-24.2,1.459-9.448,3.727-21.141,6.025-32.142a13.38,13.38,0,0,1,1.05-1.155c2.54-2.666,8.4-6.015,12.219-4.314,5.154,2.267,1.522,7.831.241,12.1a7.957,7.957,0,0,0-.514,3.433,7.652,7.652,0,0,0,2.026,3.685,59.718,59.718,0,0,0,10.812,9.962c2.488,1.774,5.2,3.443,6.823,6.025C196.582,181.112,193.307,189.562,197,195.525Z" transform="translate(-50.639 -30.892)" fill="url(#linear-gradient-7)"/>
      <path id="Path_736" data-name="Path 736" d="M272.885,174l34.368,17.845a6.96,6.96,0,0,1,.609,5.249c-.945,2.561-4.125,7.778-8.828,6.855s-34.284-16.8-34.284-16.8Z" transform="translate(-45.105 -29.176)" fill="#68e1fd"/>
      <path id="Path_737" data-name="Path 737" d="M272.885,174l34.368,17.845a6.96,6.96,0,0,1,.609,5.249c-.945,2.561-4.125,7.778-8.828,6.855s-34.284-16.8-34.284-16.8Z" transform="translate(-45.105 -29.176)" fill="url(#linear-gradient-8)"/>
      <path id="Path_738" data-name="Path 738" d="M202.969,127.367a6.886,6.886,0,0,1-4.839-.745c-5.123-2.509-8.3-8.156-8.618-13.846s1.974-11.326,5.5-15.746a3.58,3.58,0,0,1,2.572-1.7,3.684,3.684,0,0,1,2.5,1.638c4.01,4.8,10.655,12.7,11.61,19.094.483,3.3-1.312,3.559-3.464,6.141C206.674,124.071,205.583,126.622,202.969,127.367Z" transform="translate(-48.848 -33.088)" fill="url(#linear-gradient-9)"/>
      <path id="Path_739" data-name="Path 739" d="M197,108s-.441,15.578,2.635,18.433,5.7-2.635,5.7-2.635l7.464-8.125Z" transform="translate(-48.475 -32.458)" fill="url(#linear-gradient-10)"/>
      <path id="Path_740" data-name="Path 740" d="M241.679,115.681a39.228,39.228,0,0,1-7.117,6.529,27.293,27.293,0,0,1-18.58,3.978,24.227,24.227,0,0,1-13.856-6.151c-4.5-4.335-6.624-10.718-6.855-16.984s1.3-12.439,3.149-18.412a48.8,48.8,0,0,1,5.553-12.7c7.537-11.326,22.044-16.008,35.691-16.418,6.739-.21,13.9.567,19.367,4.535,3.978,2.876,7.3,8.524,6.571,13.646-.567,4.01-3.769,8.167-5.175,11.988a93.164,93.164,0,0,1-18.748,29.991Z" transform="translate(-48.561 -35.069)" fill="url(#linear-gradient-11)"/>
      <path id="Path_741" data-name="Path 741" d="M267.905,84.894a15.745,15.745,0,0,1-3.149,5.091,10.151,10.151,0,0,1-11.872,1.963c-2.876-1.543-4.955-4.367-7.505-6.456-5.354-4.388-13.164-5.112-18.748-1.113-1.6,1.144-3.086,2.666-4.965,2.918-2.372.325-4.682-1.47-7.033-1.05-2.194.4-3.716,2.572-4.829,4.7s-2.162,4.472-4.115,5.668l.7-5.815a13.415,13.415,0,0,0,0-5.249c-.451-1.669-1.764-3.2-3.349-3.2s-2.939,1.522-3.485,3.149a24.874,24.874,0,0,0-.693,5.249,12.019,12.019,0,0,1-1.994,6.046c-1.249,1.69.619,4.829-1.3,4.325s-7.348-4.745-8.24-6.886c-2.908-7.138-1.942-15.441-.409-23.094a74.646,74.646,0,0,1,5.406-17.95c2.719-5.626,6.655-10.707,11.736-13.751a24.532,24.532,0,0,1,14.549-3.317,27.418,27.418,0,0,1,6.036,1.176,10.057,10.057,0,0,0,2.4.588,10.97,10.97,0,0,0,3.664-.787c7.547-2.3,15.609.084,22.894,3.275,3.9,1.722,7.841,3.769,10.665,7.212,4.073,4.976,4.9,11.694,5.06,18.129C269.533,72.34,270.477,78.606,267.905,84.894Z" transform="translate(-49.048 -36.036)" fill="#3f3d56"/>
      <path id="Path_742" data-name="Path 742" d="M275.034,139.864c-13.247-8.492-37.611-2.1-55.383,14.9-12.061,11.547-18.087,25-17.11,35.691-.42-.262-.829-.556-1.228-.85-12.933-9.731-8.555-31.807,9.773-49.337s43.679-23.787,56.685-14.045a18.664,18.664,0,0,1,7.264,13.646Z" transform="translate(-48.629 -31.78)" fill="#68e1fd"/>
      <path id="Path_743" data-name="Path 743" d="M275.034,139.864c-13.247-8.492-37.611-2.1-55.383,14.9-12.061,11.547-18.087,25-17.11,35.691-.42-.262-.829-.556-1.228-.85-12.933-9.731-8.555-31.807,9.773-49.337s43.679-23.787,56.685-14.045a18.664,18.664,0,0,1,7.264,13.646Z" transform="translate(-48.629 -31.78)" fill="url(#linear-gradient-12)"/>
      <path id="Path_744" data-name="Path 744" d="M225.1,210.365c-6.655,0-12.481-1.711-16.921-5.06a20.8,20.8,0,0,1-8.24-15.284c-1.05-11.841,5.574-25.876,17.845-37.58,18.465-17.614,44.088-24.28,58.26-15.168a16.073,16.073,0,0,1,1.365.945,20.994,20.994,0,0,1,8.324,16.155c.682,11.641-6,25.351-17.845,36.74h0a71.381,71.381,0,0,1-31.376,17.845A46.924,46.924,0,0,1,225.1,210.365Zm35.334-72.515a43.446,43.446,0,0,0-11.085,1.543A67.423,67.423,0,0,0,221,155.821c-11.043,10.55-17.32,23.482-16.386,33.759a16.134,16.134,0,0,0,6.4,11.967c12.04,9.059,36.079,2.845,53.588-13.867,10.9-10.4,17.047-22.758,16.449-33.035a16.481,16.481,0,0,0-6.466-12.7,11.819,11.819,0,0,0-1.05-.724,24.144,24.144,0,0,0-13.111-3.37Z" transform="translate(-48.333 -31.205)" fill="#68e1fd"/>
      <g id="Group_20" data-name="Group 20" transform="translate(151.452 102.011)" opacity="0.69">
        <path id="Path_745" data-name="Path 745" d="M285.678,154.393a20.994,20.994,0,0,0-8.314-16.166c-.472-.357-.924-.661-1.365-.934-14.2-9.122-39.795-2.456-58.26,15.158-12.24,11.694-18.895,25.75-17.845,37.591a21,21,0,0,0,8.24,15.273,22.464,22.464,0,0,0,4,2.4,30.168,30.168,0,0,0,12.933,2.656,47.34,47.34,0,0,0,11.326-1.47,65.273,65.273,0,0,0,16.439-6.634,76.345,76.345,0,0,0,14.959-11.18c8.24-7.883,14.014-16.911,16.512-25.592A32.73,32.73,0,0,0,285.678,154.393ZM264.568,187.7c-17.5,16.67-41.538,22.968-53.588,13.867a16.166,16.166,0,0,1-6.4-11.977c-.934-10.266,5.343-23.2,16.4-33.749a67.446,67.446,0,0,1,28.343-16.428,43.449,43.449,0,0,1,11.085-1.543,23.943,23.943,0,0,1,13.09,3.391,9.177,9.177,0,0,1,1.05.724,16.481,16.481,0,0,1,6.466,12.7c.619,10.256-5.532,22.611-16.428,33.014Z" transform="translate(-199.787 -133.215)" fill="url(#linear-gradient-13)"/>
      </g>
      <path id="Path_746" data-name="Path 746" d="M276.91,177.7a11.022,11.022,0,0,1-2.1,5.049c-1.659,1.931-4.43,2.519-6.3,4.2a2.51,2.51,0,0,0-.63.808,2.268,2.268,0,0,0,1.3,2.572,4.5,4.5,0,0,0,5.123-.546,19.564,19.564,0,0,0-2.1,1.05c-.294.189-.63.42-.661.777s.357.714.714.9a5.553,5.553,0,0,0,6.3-.861l-1.879,1.05c-.388.231-.819.556-.756,1s.357.546.661.693a5.249,5.249,0,0,0,5.983-1.144l-3.842,2.267a3.254,3.254,0,0,0,3.149,1.218,7.58,7.58,0,0,0,3.233-1.543,23.442,23.442,0,0,0,5.249-5.249c1.743-2.435,3.034-5.564,2.1-8.4s-4-4.587-6.771-5.941a18.527,18.527,0,0,0-6.55-2.236c-1.207-.095-1.638-.2-1.9.892S277.152,176.6,276.91,177.7Z" transform="translate(-44.952 -29.211)" fill="url(#linear-gradient-14)"/>
      <path id="Path_747" data-name="Path 747" d="M190.18,167.681,188.836,184.6s-26.537-1.291-34.641-1.921c-.955-.073-1.648-.136-2.015-.189a3.253,3.253,0,0,1-1.543-.766c-3.317-2.656-7.212-11.809-6.361-22.433.987-12.355,24.679-48.214,24.679-48.214a31.65,31.65,0,0,1,5.616,4.4c11.694,11.641,4.745,26.044,4.745,26.044S166.96,154.36,168.955,158.8,190.18,167.681,190.18,167.681Z" transform="translate(-51.101 -32.305)" fill="#68e1fd"/>
      <path id="Path_748" data-name="Path 748" d="M184.332,257.84a16.563,16.563,0,0,1-3.8-.514l-.252-.073c-15.746-4.493-20.48-58.176-20.48-58.176h.1l11.652-1.7,25.55-3.727L201.747,207S205.736,257.935,184.332,257.84Z" transform="translate(-50.324 -28.199)" fill="#3f3d56"/>
      <path id="Path_749" data-name="Path 749" d="M158.3,191.7l-.241-.084S158.133,191.465,158.3,191.7Z" transform="translate(-50.41 -28.303)" fill="url(#linear-gradient-15)"/>
      <path id="Path_750" data-name="Path 750" d="M186.6,257.151a8.061,8.061,0,0,1-2.278.514,8.618,8.618,0,0,1-4.052-.577,9.448,9.448,0,0,1-4.2-3.559c-4.283-6.3-11.841-20.071-14.476-42.115-.672-5.574-1.228-9.6-1.7-12.534l11.652-1.7c1.438,4.073,5.92,17.257,6.466,24.438.661,8.555-4.934,24.028,2.635,28.626S186.6,257.151,186.6,257.151Z" transform="translate(-50.319 -28.024)" fill="url(#linear-gradient-16)"/>
      <path id="Path_751" data-name="Path 751" d="M197.354,195.521c-1.7,2.834-5.994,2.761-8.849,1.113s-4.934-4.377-7.663-6.235a15.106,15.106,0,0,0-13.342-1.7,4.136,4.136,0,0,0-1.753,1.05c-1.9,2.1.462,5.144,1.05,7.852a6.067,6.067,0,0,1-.294,3.559,7.579,7.579,0,0,1-3.894,4.2,10.014,10.014,0,0,1-9.1-.882c-4.661-2.845-6.96-8.555-7.117-14.024s1.47-10.812,3.086-16.008q2.309-7.474,4.629-14.959c1.543-4.934,3.149-10.025,6.393-13.993a15.374,15.374,0,0,1,1.05-1.155c2.53-2.666,8.4-6.025,12.219-4.314,5.144,2.267,1.522,7.82.231,12.093a8.313,8.313,0,0,0-.514,3.433,7.789,7.789,0,0,0,2.036,3.7,59.321,59.321,0,0,0,10.812,9.951c2.488,1.784,5.186,3.443,6.813,6.025C196.935,181.108,193.659,189.558,197.354,195.521Z" transform="translate(-50.991 -30.889)" fill="none"/>
      <path id="Path_752" data-name="Path 752" d="M192.995,105.061a8.3,8.3,0,0,1-1.984,5.364c-2.918,2.95-10.707,3.6-14.612,4.734-.609.168-1.218.357-1.816.577a7.127,7.127,0,0,0-1.931,1.05,10.969,10.969,0,0,0-2.708,3.674l-5.815,10.781L155.9,146.5c-3.149,5.889-6.4,12.009-6.834,18.685-.357,5.616,1.3,11.18,1.543,16.8-3.307-2.656-7.212-11.809-6.361-22.433.987-12.355,24.689-48.214,24.689-48.214,1.963-5.931,23.682-6.3,23.682-6.3Z" transform="translate(-51.103 -32.605)" fill="url(#linear-gradient-17)"/>
      <path id="Path_753" data-name="Path 753" d="M262.043,252.418c-4.934,4.944-25.676,4.944-30.116.987s-13.5-5.1-13-14.486l2.792-4.115s17.509.934,23.86-1.973c.367,1.722,4.556,3.643,5.1,4.272C253.645,240.566,266.935,247.474,262.043,252.418Z" transform="translate(-47.384 -26.251)" fill="url(#linear-gradient-18)"/>
      <path id="Path_754" data-name="Path 754" d="M264.342,187.321c-17.509,16.67-41.537,22.968-53.588,13.867a16.166,16.166,0,0,1-6.4-11.977s7.033,15.441,39.281-3.307,29.634-45.044,29.634-45.044a9.169,9.169,0,0,1,1.05.724,16.512,16.512,0,0,1,6.466,12.7C281.389,164.563,275.238,176.918,264.342,187.321Z" transform="translate(-48.108 -30.824)" fill="#68e1fd"/>
      <path id="Path_755" data-name="Path 755" d="M264.342,187.321c-17.509,16.67-41.537,22.968-53.588,13.867a16.166,16.166,0,0,1-6.4-11.977s7.033,15.441,39.281-3.307,29.634-45.044,29.634-45.044a9.169,9.169,0,0,1,1.05.724,16.512,16.512,0,0,1,6.466,12.7C281.389,164.563,275.238,176.918,264.342,187.321Z" transform="translate(-48.108 -30.824)" fill="url(#linear-gradient-19)"/>
      <g id="Group_21" data-name="Group 21" transform="translate(155.982 106.519)" opacity="0.69">
        <path id="Path_756" data-name="Path 756" d="M264.2,187.361c-17.509,16.7-41.548,22.926-53.6,13.856a16.166,16.166,0,0,1-6.4-11.977c-.934-10.266,5.343-23.2,16.4-33.749a67.413,67.413,0,0,1,28.342-16.428,43.311,43.311,0,0,1,11.075-1.543,24.039,24.039,0,0,1,13.069,3.391,10.919,10.919,0,0,1,1.05.735,16.48,16.48,0,0,1,6.466,12.7C281.244,164.572,275.093,176.917,264.2,187.361Z" transform="translate(-204.103 -137.509)" fill="url(#linear-gradient-20)"/>
      </g>
      <path id="Path_757" data-name="Path 757" d="M254.215,137.9l-51,50.492s1.312,9.542,4.272,8.555l58.784-58.438A57.45,57.45,0,0,0,254.215,137.9Z" transform="translate(-48.165 -30.975)" fill="url(#linear-gradient-21)"/>
      <path id="Path_758" data-name="Path 758" d="M268.063,127.711l13.415,17.11s-12.744-17.362-42.724-6.3L227.67,127.417S252.758,114.054,268.063,127.711Z" transform="translate(-46.949 -31.783)" fill="#68e1fd"/>
      <path id="Path_759" data-name="Path 759" d="M268.063,127.711l13.415,17.11s-12.744-17.362-42.724-6.3L227.67,127.417S252.758,114.054,268.063,127.711Z" transform="translate(-46.949 -31.783)" fill="url(#linear-gradient-22)"/>
      <path id="Path_760" data-name="Path 760" d="M197.227,157.55a6.582,6.582,0,0,1,.441,5.721,46.264,46.264,0,0,1-2.572,5.343,5.322,5.322,0,0,0-.682,3.716,5.784,5.784,0,0,0,1.365,2.1c2.1,2.393,4.671,4.965,7.883,5.007,1.155,0,2.792,0,2.876,1.2a1.742,1.742,0,0,1-.483,1.155,7.348,7.348,0,0,1-5.417,2.729h5.427a1.239,1.239,0,0,1,1.05.336,1.134,1.134,0,0,1,0,.976,7.9,7.9,0,0,1-5.249,5.249,7.663,7.663,0,0,0,2.929-.724,2.855,2.855,0,0,1-1.449,4.629c.7-.441,1.7-.871,2.278-.273s.136,1.543-.451,2.1c-2.519,2.393-6.876,1.186-9.332-1.291s-3.727-5.847-5.752-8.692c-1.05-1.512-2.372-2.876-3.317-4.472C180.484,171.6,190.919,164.468,197.227,157.55Z" transform="translate(-49.079 -29.994)" fill="url(#linear-gradient-23)"/>
    </g>
  </g>
</svg>
