<svg xmlns="http://www.w3.org/2000/svg" xmlns:xlink="http://www.w3.org/1999/xlink" width="415.048" height="384.062" viewBox="0 0 415.048 384.062">
  <defs>
    <linearGradient id="linear-gradient" x1="0.506" y1="-4.378" x2="0.443" y2="7.714" gradientUnits="objectBoundingBox">
      <stop offset="0.01"/>
      <stop offset="0.08" stop-opacity="0.69"/>
      <stop offset="0.21" stop-opacity="0.322"/>
      <stop offset="1" stop-opacity="0"/>
    </linearGradient>
    <linearGradient id="linear-gradient-2" x1="0.554" y1="-3.231" x2="0.435" y2="4.994" xlink:href="#linear-gradient"/>
    <linearGradient id="linear-gradient-3" x1="-0.722" y1="0.54" x2="3.04" y2="0.419" xlink:href="#linear-gradient"/>
    <linearGradient id="linear-gradient-4" x1="0.512" y1="2.083" x2="0.459" y2="-5.025" xlink:href="#linear-gradient"/>
    <linearGradient id="linear-gradient-5" x1="0.51" y1="-1.181" x2="0.465" y2="6.329" xlink:href="#linear-gradient"/>
    <linearGradient id="linear-gradient-6" x1="0.709" y1="-5.339" x2="0.201" y2="8.896" xlink:href="#linear-gradient"/>
  </defs>
  <g id="training_image" data-name="training image" transform="translate(0.504 0)">
    <path id="blob_6_" data-name="blob(6)" d="M335.82,28.955c33.978,48.178,31.442,126.784-3.043,189.161S230.843,326.643,150.716,333.743C70.588,341.35-22.724,310.414-37.938,259.7-53.153,208.48,9.732,136.974,56.389,81.19S133.473-14.659,183.172-25.816C233.379-36.973,302.349-19.223,335.82,28.955Z" transform="translate(54.529 29.035)" fill="#ffd740"/>
    <path id="blob_6_2" data-name="blob(6)" d="M-16.1,27.533c-33.921,47-31.39,123.676,3.038,184.525S88.7,317.925,168.691,324.851c79.993,7.421,173.149-22.756,188.338-72.227,15.188-49.965-47.591-119.719-94.169-174.136S185.9-15.011,136.289-25.895C86.166-36.778,17.312-19.464-16.1,27.533Z" transform="translate(40.257 57.578)" fill="#fbeeee" stroke="#707070" stroke-width="1"/>
    <g id="business_conference_" transform="translate(19.623 53.518)">
      <path id="Path_600" data-name="Path 600" d="M27.976,221.186c1.8,11.1,12.824,62.73,53.074,73.688,30.466,8.311,115.977-20.188,164.73-5.852,98.067,28.824,116.029-48.572,110.531-69.477-3.828-14.57-8.531-29.188-8.656-44.4-.129-15.919,5.445-31.58,6.058-47.6,1.541-40.571-26.963-80.387-65.855-92.033C271.208,30.527,257.6,25.46,240.225,25.3c-35.26-.3-118.939,0-160.156,59.955-7.364,10.718-18.063,18.733-26.279,28.81-11.005,13.5-18.264,29.786-22.671,46.639A147.557,147.557,0,0,0,27.976,221.186Z" transform="translate(-26.193 -25.267)" fill="#68e1fd" opacity="0.18"/>
      <rect id="Rectangle_155" data-name="Rectangle 155" width="2.747" height="70.42" transform="translate(254.494 138.908)" fill="#68e1fd"/>
      <rect id="Rectangle_156" data-name="Rectangle 156" width="2.747" height="70.42" transform="translate(254.494 138.908)" fill="#bcdbf2"/>
      <path id="Path_601" data-name="Path 601" d="M194.74,451.635l54.644,2.11a40.41,40.41,0,0,1,7.4.732c3.44.833,4.388,2.531,3.12,3.876s-4.306,2.392-7.512,3.249c-19.9,5.34-47.792,5.216-73.4,4.852l-120.776-1.7a93.053,93.053,0,0,1-13.709-.861c-4.23-.718-7.718-2.254-7.125-3.828.536-1.435,4.086-2.459,7.656-3.182,10.479-2.12,22.915-2.794,35.049-3.4q27.595-1.378,55.3-2.517" transform="translate(-31.997 -247.275)" fill="url(#linear-gradient)"/>
      <path id="Path_602" data-name="Path 602" d="M595.436,455.7l19.518,1.507a5.455,5.455,0,0,1,2.651.67,3.553,3.553,0,0,1,1.129,3.981,7.706,7.706,0,0,1-2.67,3.469c-7.082,5.785-17.044,6.005-26.188,5.948l-43.141-.263a11.668,11.668,0,0,1-4.9-.723,4.058,4.058,0,0,1-2.56-3.895c.187-1.488,1.435-2.6,2.723-3.4,3.732-2.325,8.173-3.182,12.5-3.962q9.847-1.775,19.738-3.3" transform="translate(-293.759 -249.742)" fill="url(#linear-gradient-2)"/>
      <rect id="Rectangle_157" data-name="Rectangle 157" width="92.531" height="85.124" transform="translate(208.224 63.1)" fill="#fff"/>
      <rect id="Rectangle_158" data-name="Rectangle 158" width="39.275" height="66.496" transform="translate(255.862 74.517)" fill="#68e1fd" opacity="0.18"/>
      <rect id="Rectangle_159" data-name="Rectangle 159" width="34.375" height="31.858" transform="translate(258.958 80.9)" fill="#fff"/>
      <rect id="Rectangle_160" data-name="Rectangle 160" width="96.866" height="3.641" transform="translate(205.535 61.067)" fill="#68e1fd"/>
      <rect id="Rectangle_161" data-name="Rectangle 161" width="96.866" height="3.641" transform="translate(205.535 146.965)" fill="#68e1fd"/>
      <rect id="Rectangle_162" data-name="Rectangle 162" width="2.115" height="19.561" transform="translate(102.578 203.81) rotate(180)" fill="#4c506d"/>
      <rect id="Rectangle_163" data-name="Rectangle 163" width="23.489" height="2.742" transform="translate(114.717 206.155) rotate(180)" fill="#4c506d"/>
      <rect id="Rectangle_164" data-name="Rectangle 164" width="23.489" height="2.742" transform="translate(114.717 206.155) rotate(180)" fill="#2f3554"/>
      <rect id="Rectangle_165" data-name="Rectangle 165" width="20.269" height="7.139" rx="3.57" transform="translate(110.597 184.254) rotate(180)" fill="#4c506d"/>
      <rect id="Rectangle_166" data-name="Rectangle 166" width="20.269" height="7.139" rx="3.57" transform="translate(114.832 184.254) rotate(180)" fill="#2f3554"/>
      <path id="Path_603" data-name="Path 603" d="M202.94,335.31v6.8a4.546,4.546,0,0,0,4.546,4.546h6.795a4.55,4.55,0,0,0,4.55-4.546v-6.8a4.55,4.55,0,0,0-4.55-4.55h-6.795a4.235,4.235,0,0,0-.608.043A4.546,4.546,0,0,0,202.94,335.31Z" transform="translate(-118.368 -184.584)" fill="#4c506d"/>
      <path id="Path_604" data-name="Path 604" d="M206.727,342.146a4.522,4.522,0,0,0,.766,2c1.23,1.684,3.622,1.89,5.7,1.943,1.55.038,6.957,1.2,6.57-1.4a30.365,30.365,0,0,0-1.435-4.129c-.411-1.316-1.282-3.014-1.282-4.345a24.632,24.632,0,0,0-1.158-3.7,8.063,8.063,0,0,0-1.053-1.756h-5.455a1.729,1.729,0,0,0-.565.067c.22,1.828-.99,3.12-1.656,4.718a11.311,11.311,0,0,0-.569,4.546,14.835,14.835,0,0,0,.134,2.057Z" transform="translate(-120.27 -184.582)" fill="#2f3554"/>
      <path id="Path_605" data-name="Path 605" d="M224.679,340.9a12.963,12.963,0,0,1,.847,2.431c.182,1.024.478,2.024.675,3.053a34.79,34.79,0,0,1,.512,6.263,3.164,3.164,0,0,0,.593,2.34,2.939,2.939,0,0,0,1.517.622c1.077.215,2.048.641,3.12.823a21.244,21.244,0,0,0,3.531.211c3.483,0,9.967-.388,9.752-5.263-.234-5.522-.665-10.89-1.435-16.393a37.125,37.125,0,0,0-.876-5.742c-.478-1.488-2.206-1.5-3.646-1.349l-.273.029c-.278.029-.555.062-.828.1a39.473,39.473,0,0,1-5.775.167c-2.172-.067-5.641-.282-7.775,1.761a4.681,4.681,0,0,0-.416.45C222.052,332.992,223.21,337.193,224.679,340.9Z" transform="translate(-128.839 -183.055)" fill="#fff"/>
      <path id="Path_606" data-name="Path 606" d="M272.114,340.289a22.633,22.633,0,0,1,.287,3.512,2.134,2.134,0,0,1-.254,1.187,2.012,2.012,0,0,1-1.79.651,8.044,8.044,0,0,1-5.589-2.34,34.7,34.7,0,0,1-3.79-4.46,3.661,3.661,0,0,1-.857-2.7c0-1.335.053-2.675.172-4,.029-.311,2.177-.067,2.392,0a8.771,8.771,0,0,1,2.273,1.019,17.008,17.008,0,0,0-.239-2.766,1.345,1.345,0,0,1,.091-.78c.244-.435.852-.478,1.354-.431a3.975,3.975,0,0,1,2.938,1.1,4.158,4.158,0,0,1,.622,1.316A52.054,52.054,0,0,1,272.114,340.289Z" transform="translate(-148.182 -183.749)" fill="#fff"/>
      <path id="Path_607" data-name="Path 607" d="M263.351,343.333a1.914,1.914,0,0,1-.129,1.3c-.479.727-1.579.479-2.359.124a18.339,18.339,0,0,1-2.971-1.789.8.8,0,0,0-.589-.23.775.775,0,0,0-.392.287,15.427,15.427,0,0,1-5.216,3.751c-.675.3-1.565.479-2.053-.053s-.1-1.526.33-2.191l5.129-7.924a.579.579,0,0,1,.273-.263c.2-.067.392.081.55.215a10.658,10.658,0,0,0,2.33,1.531,1.359,1.359,0,0,0,.99.177c.479-.163.641-.746.7-1.244a13.2,13.2,0,0,0,.067-2.5,2.326,2.326,0,0,1,.067-1.029,1.148,1.148,0,0,1,1.641-.479c.632.479.531,2.287.636,3.058Z" transform="translate(-142.605 -185.673)" fill="#d8dae1"/>
      <path id="Path_608" data-name="Path 608" d="M232.768,345.492a7.426,7.426,0,0,0,1.842,2.206c.837.651,2.775,3.211,3.976,2.431a4.861,4.861,0,0,1-1.823,1c1.857,1.306,4.2,1.656,6.426,2.072a4.36,4.36,0,0,1,1.646.555,1.55,1.55,0,0,1,.756,1.469c-.163,1-1.435,1.306-2.459,1.368-2.5.153-5.019.206-7.508.512-2.12.258-4.4.813-5.708,2.5a.957.957,0,0,1-.378.344.584.584,0,0,1-.67-.325,1.808,1.808,0,0,1-.139-.8,22.968,22.968,0,0,0-.957-6.134c-.239-.8-.268-1.622-.5-2.392-.287-.957-.809-1.852-1.134-2.794a27.356,27.356,0,0,1-1.306-5.871c-.153-1.4-.053-3.1,1.153-3.828a2.646,2.646,0,0,1,2.871.3,6.034,6.034,0,0,1,1.761,2.445A52.181,52.181,0,0,0,232.768,345.492Z" transform="translate(-129.755 -188.11)" fill="#d8dae1"/>
      <path id="Path_609" data-name="Path 609" d="M249.436,333.594a.871.871,0,0,0-.158.3.7.7,0,0,0,.072.349,65.15,65.15,0,0,1,2.641,9.115,46.8,46.8,0,0,1,1.435,8.235,1.7,1.7,0,0,1-.043.6c-.211.689-1.11.9-1.5,1.507l-1.306-1.488a1.047,1.047,0,0,1-.2-.3,1.077,1.077,0,0,1,0-.478,23.7,23.7,0,0,0-.742-8.948,30.892,30.892,0,0,1-1.311-7.627,1.105,1.105,0,0,0-.234-.876,1.8,1.8,0,0,0-.431-.211A1.436,1.436,0,0,1,247,331.8a1.732,1.732,0,0,0,.794-.2,1.163,1.163,0,0,1,.8-.105A1.9,1.9,0,0,1,249.436,333.594Z" transform="translate(-141.256 -184.954)" fill="#68e1fd"/>
      <path id="Path_610" data-name="Path 610" d="M226.34,329.8c2.134-2.043,5.6-1.828,7.775-1.761a39.456,39.456,0,0,0,5.775-.168c.273-.038.55-.072.828-.1-1.144-.479-2.77-.153-4-.115q-2.78.091-5.555.34C229.412,328.151,227.479,328.453,226.34,329.8Z" transform="translate(-130.571 -182.889)" fill="#fff"/>
      <path id="Path_611" data-name="Path 611" d="M239.188,316.32a3.909,3.909,0,0,0,4.751,2.349s-.9,2.747.23,4.407c0,0-.751,1.914-5.8-.914,0,0,1.364-.115.99-2.914a6.058,6.058,0,0,0-.99-2.694.478.478,0,0,0,.818-.234Z" transform="translate(-136.845 -177.054)" fill="#d68369"/>
      <path id="Path_612" data-name="Path 612" d="M239.9,308.617c2.665.785,4.838-1.411,5.823-4.656.105-.354.2-.722.273-1.1a14.122,14.122,0,0,0,.292-3.282c-.144-5.321-7.795-4.785-7.795-4.785C232.3,296.181,235.259,307.258,239.9,308.617Z" transform="translate(-135.074 -165.819)" fill="#ec9c7d"/>
      <path id="Path_613" data-name="Path 613" d="M279.708,392.713l-.158-.163c.627.7,1.048,1.211,1.177,1.369C280.411,393.5,280.067,393.1,279.708,392.713Z" transform="translate(-158.321 -216.808)" fill="#dc9bd5"/>
      <path id="Path_614" data-name="Path 614" d="M241.456,291.089a4.072,4.072,0,0,1,2.392,1.665,12.15,12.15,0,0,0,.833,1.335c.478.579,1.187,1,1.435,1.7a5.364,5.364,0,0,1-3.507-.636.981.981,0,0,1-.837.478,2.933,2.933,0,0,1-.99-.187.91.91,0,0,0-.55-.048,1.091,1.091,0,0,0-.364.263,2.45,2.45,0,0,1-2.306.479c-.478-.144-.957-.435-1.4-.287a1.455,1.455,0,0,0-.737,1.349,5.533,5.533,0,0,1-.043,1.641c-.335.057-.4-.479-.7-.68s-.579.053-.732.306a1.206,1.206,0,0,0,.139,1.4.794.794,0,0,1,.23.321.593.593,0,0,1-.062.368l-.517,1.306a31,31,0,0,0-2.55-4.7,2.579,2.579,0,0,1-.7-1.986c.187-.7.957-1.22.785-1.914a3.964,3.964,0,0,1-.115-.388,1.014,1.014,0,0,1,.12-.565,5.263,5.263,0,0,1,3.622-2.761,11.593,11.593,0,0,1,4.68.043c1.55.268,3.081.655,4.651.775a.358.358,0,0,1,.335.148.3.3,0,0,1,0,.172c-.062.335-.378.56-.632.794s-.478.612-.292.9" transform="translate(-132.711 -162.981)" fill="#2f3554"/>
      <path id="Path_615" data-name="Path 615" d="M241.39,379.823s3.239,8.1,5.842,8.948,12.23,3.785,12.23,3.785l13.4,25.221,5.263-3.239-11.819-29.5-10.489-5.373S253.132,379.737,241.39,379.823Z" transform="translate(-138.42 -210.086)" fill="#2f3554"/>
      <path id="Path_616" data-name="Path 616" d="M231.933,381.464s-.608,7.383,2,8.235,12.225,3.79,12.225,3.79l14.316,27.36,5.948-2.392-13.4-32.485L242.536,380.6S236.445,378.378,231.933,381.464Z" transform="translate(-133.456 -210.172)" fill="#4c506d"/>
      <path id="Path_617" data-name="Path 617" d="M315.646,454.251a13.938,13.938,0,0,1,2.048.206,3.393,3.393,0,0,1,1.737.7,1.651,1.651,0,0,1,.541.957,1.244,1.244,0,0,1-.321,1.038,2.11,2.11,0,0,1-.842.45c-.723.258-1.435.507-2.172.761a17.7,17.7,0,0,1-4.785,1.163.651.651,0,0,1-.287-.029.8.8,0,0,1-.191-.144,6.686,6.686,0,0,1-2.153-3.455.272.272,0,0,1,0-.139.263.263,0,0,1,.115-.124,11.528,11.528,0,0,1,3.23-1.517C313.618,453.825,314.579,454.227,315.646,454.251Z" transform="translate(-173.789 -248.862)" fill="#2f3554"/>
      <path id="Path_618" data-name="Path 618" d="M299.221,460.751a14.012,14.012,0,0,1,2.048.206,3.426,3.426,0,0,1,1.737.7,1.622,1.622,0,0,1,.536.957,1.235,1.235,0,0,1-.321,1.038,2.081,2.081,0,0,1-.842.45c-.723.258-1.435.507-2.172.756a17.447,17.447,0,0,1-4.785,1.167.665.665,0,0,1-.292-.029.773.773,0,0,1-.187-.144,6.687,6.687,0,0,1-2.153-3.455.293.293,0,0,1,0-.144.307.307,0,0,1,.115-.12,11.594,11.594,0,0,1,3.23-1.517C297.192,460.34,298.149,460.751,299.221,460.751Z" transform="translate(-165.221 -252.257)" fill="#2f3554"/>
      <path id="Path_619" data-name="Path 619" d="M223.609,335.441s4.57,10.24,9.412,11.622S243.7,334.1,243.7,334.1l-3.885-1.464-6.522,6.555S229.246,330.6,227.6,331,222.992,333.68,223.609,335.441Z" transform="translate(-129.104 -184.7)" fill="#fff"/>
      <path id="Path_620" data-name="Path 620" d="M267.75,321.483a2.062,2.062,0,0,0,.478,1.081,6.7,6.7,0,0,1,.6,2.029,4.277,4.277,0,0,0,.823,1.943,1.67,1.67,0,0,0,1.914.507,1.618,1.618,0,0,0,.785-1.211,3.541,3.541,0,0,0-.167-1.479,9.419,9.419,0,0,0-.708-1.8,4.489,4.489,0,0,0-1.1-1.435C269.712,320.545,267.841,320.057,267.75,321.483Z" transform="translate(-152.167 -179.259)" fill="#d68369"/>
      <path id="Path_621" data-name="Path 621" d="M261.665,322.447a2.684,2.684,0,0,1,1.029-1.038,2.87,2.87,0,0,1,1.3-.182,2.477,2.477,0,0,1,2.278.909,1.943,1.943,0,0,1-.187,1.861c-.33.56-.8,1.029-1.139,1.589-.478.794-.708,1.79-1.435,2.369a2.555,2.555,0,0,1-1.048.478c-1.263.292-2.914-.311-2.617-1.818A13.134,13.134,0,0,1,261.665,322.447Z" transform="translate(-148.025 -179.607)" fill="#ec9c7d"/>
      <rect id="Rectangle_167" data-name="Rectangle 167" width="2.115" height="19.561" transform="translate(50.685 203.542) rotate(180)" fill="#4c506d"/>
      <rect id="Rectangle_168" data-name="Rectangle 168" width="23.489" height="2.742" transform="translate(62.82 205.882) rotate(180)" fill="#4c506d"/>
      <rect id="Rectangle_169" data-name="Rectangle 169" width="23.489" height="2.742" transform="translate(62.82 205.882) rotate(180)" fill="#2f3554"/>
      <rect id="Rectangle_170" data-name="Rectangle 170" width="20.269" height="7.139" rx="3.57" transform="translate(58.705 183.981) rotate(180)" fill="#4c506d"/>
      <rect id="Rectangle_171" data-name="Rectangle 171" width="20.269" height="7.139" rx="3.57" transform="translate(62.939 183.981) rotate(180)" fill="#2f3554"/>
      <path id="Path_622" data-name="Path 622" d="M94.48,334.746v6.8a4.55,4.55,0,0,0,4.546,4.55h6.8a4.55,4.55,0,0,0,4.55-4.55v-6.8a4.546,4.546,0,0,0-4.55-4.546h-6.79a4.3,4.3,0,0,0-.608.038A4.555,4.555,0,0,0,94.48,334.746Z" transform="translate(-61.805 -184.292)" fill="#4c506d"/>
      <path id="Path_623" data-name="Path 623" d="M98.288,341.59a4.522,4.522,0,0,0,.766,2c1.23,1.684,3.617,1.89,5.7,1.943,1.55.043,6.952,1.2,6.565-1.4a29.057,29.057,0,0,0-1.435-4.125c-.416-1.316-1.282-3.015-1.282-4.345a24.882,24.882,0,0,0-1.158-3.708,8.034,8.034,0,0,0-1.053-1.751h-5.44a1.709,1.709,0,0,0-.565.062c.22,1.833-.99,3.12-1.66,4.718a11.406,11.406,0,0,0-.565,4.55A14.086,14.086,0,0,0,98.288,341.59Z" transform="translate(-63.723 -184.294)" fill="#2f3554"/>
      <path id="Path_624" data-name="Path 624" d="M111.571,302.874c1.038,1.435,4.192,2.79,4.192,2.79.364-1.4-.407-1.914-.407-1.914-.813.072-1.871-1.914-1.526-2.522.431-.77,1.024-.479,1.435-.163a3.77,3.77,0,0,0,1.435-2.651c.053-.608-1-2.325,1.014-3.067a9.685,9.685,0,0,1,4.842,0s.732-1.876-1.608-2.77c-5.263-2.024-11.57,1.435-11.216,7.35.091,1.6.2,3.426-.914,4.584a6.029,6.029,0,0,1-2.278,1.254,6.967,6.967,0,0,0-2.871,1.77,2.8,2.8,0,0,0-.478,3.148c.282.478.766.914.641,1.435a1.5,1.5,0,0,1-.4.622,8.613,8.613,0,0,0-2.235,4.713,6.182,6.182,0,0,0,1.531,4.9,7.517,7.517,0,0,0,6.555,1.8,8.422,8.422,0,0,0,5.019-2.488c1.943-2.153,2.191-5.263,2.737-8.134a1.713,1.713,0,0,1,.4-.957c.569-.531,1.479-.1,2.258-.12,1.34-.029,2.239-1.5,2.273-2.837a17.8,17.8,0,0,0-.78-3.928c-.268-1.311-.191-2.871.823-3.737.383-.33.861-.526,1.268-.823,1.813-1.306,1.7-4.306.158-5.909a7,7,0,0,0-6.22-1.622c-1.766.306-5.742,1.287-6.574,2.919S110.528,301.448,111.571,302.874Z" transform="translate(-65.283 -164.368)" fill="#ff681c"/>
      <path id="Path_625" data-name="Path 625" d="M111.625,325.38a5.656,5.656,0,0,1,1.2-4.019A10.33,10.33,0,0,1,117,318.969a2.669,2.669,0,0,0,1.6-1.211,5.637,5.637,0,0,0,.211-1.34c.072-.45.335-.957.785-1a1.062,1.062,0,0,1,.77.273,3.36,3.36,0,0,1,1.043,3.268,8.8,8.8,0,0,1-1.546,3.23,13.254,13.254,0,0,0-1.775,3.129c-.292.866-.373,1.79-.584,2.68-.478,1.957-2.11,3.12-4.038,2.01C112.123,329.247,111.707,326.749,111.625,325.38Z" transform="translate(-70.735 -176.583)" fill="#ff681c"/>
      <path id="Path_626" data-name="Path 626" d="M130.816,327.5a65.123,65.123,0,0,1-6.881.258c-2.321-.067-6.12-.311-8.192,2.211-2.574,3.129-.359,8.613,1.435,12.757.67,1.541,1,6.527.651,10.173,0,0,7.216,2.522,13.56,1.211l2.177-8.187S139.62,336.95,130.816,327.5Z" transform="translate(-72.284 -182.884)" fill="#4c506d"/>
      <path id="Path_627" data-name="Path 627" d="M140.065,293.2s3.062.177,3.971,4.613-3.512,4.359-3.512,4.359l-2.684-7.694Z" transform="translate(-84.418 -164.996)" fill="#ff681c"/>
      <path id="Path_628" data-name="Path 628" d="M130.9,308.857c2.77.23,4.455-2.354,4.785-5.742a10.931,10.931,0,0,0,.043-1.129,13.915,13.915,0,0,0-.373-3.273c-1.215-5.187-8.613-3.11-8.613-3.11C120.948,298.206,126.082,308.46,130.9,308.857Z" transform="translate(-77.287 -166.035)" fill="#ec9c7d"/>
      <path id="Path_629" data-name="Path 629" d="M130.728,315.75c.479,1.531,2.493,4.235,4.785,3.6a2.962,2.962,0,0,0,.182,3.153s-.746,1.914-5.795-.909c0,0,1.364-.115.99-2.919a6.024,6.024,0,0,0-.99-2.689.479.479,0,0,0,.828-.239Z" transform="translate(-80.277 -176.756)" fill="#d68369"/>
      <path id="Path_630" data-name="Path 630" d="M131.022,294.921c-.723,2.507-1.684,6.067-4.134,7.44a2.057,2.057,0,0,1-1.129.354c-.373-.077-.34-.373-.627-.636a.651.651,0,0,0-.742-.129.766.766,0,0,0-.3.665,1.79,1.79,0,0,0,.857,1.531,4.47,4.47,0,0,1,.694.392,1.407,1.407,0,0,1,.411.9,2.421,2.421,0,0,1-1.2,2.311.287.287,0,0,1-.163.053.321.321,0,0,1-.182-.105l-1.1-1a9.168,9.168,0,0,1-1.4-1.493,4.5,4.5,0,0,1-.78-2.517c0-.407.158-.813.153-1.206a5.741,5.741,0,0,0-.407-1.5,5.264,5.264,0,0,1-.368-1.938,3.822,3.822,0,0,1,2.335-2.909,13.86,13.86,0,0,1,6.034-1.038,3.068,3.068,0,0,1,1.215.163C130.548,294.413,130.692,294.8,131.022,294.921Z" transform="translate(-75.432 -165.463)" fill="#ff681c"/>
      <path id="Path_631" data-name="Path 631" d="M122.464,346.458l-2.115,4.651s-4.565-5.675-6.283-11.8c-1.512-5.412,1.172-6.775,1.172-6.775,2.048-.751,3.445,2.172,5.464,8.086C121.813,343.874,122.464,346.458,122.464,346.458Z" transform="translate(-71.779 -185.449)" fill="#ec9c7d"/>
      <path id="Path_632" data-name="Path 632" d="M127.7,363.517s-.081-3.78,1.761-4.531,14.752-2.775,14.752-2.775l1.211,1.4S132.747,364.914,127.7,363.517Z" transform="translate(-79.129 -197.857)" fill="#ec9c7d"/>
      <path id="Path_633" data-name="Path 633" d="M171.253,392.153c-.048-.057-.1-.11-.153-.163.627.7,1.048,1.211,1.177,1.368C171.956,392.952,171.617,392.54,171.253,392.153Z" transform="translate(-101.763 -216.516)" fill="#dc9bd5"/>
      <path id="Path_634" data-name="Path 634" d="M119.64,385.066a8.6,8.6,0,0,0,3.708,5.378,21.082,21.082,0,0,0,6.106,2.684c1.268.388,2.053,2.01,3.2,2.684a2.823,2.823,0,0,1,1.048.876,2.953,2.953,0,0,1,0,2.3q-1.435,5.043-2.914,10.091a9.714,9.714,0,0,0-.507,5.12c.45,1.68,2.225,3.125,3.871,2.57q4.838-7.8,9.666-15.6s1.589-6.278-1.746-11.618c-1.435-2.3-12.714-11.795-12.714-11.795-2.871-.416-5.814-.612-8.613-.775C120.425,379.7,119.181,382.373,119.64,385.066Z" transform="translate(-74.874 -208.688)" fill="#68e1fd"/>
      <path id="Path_635" data-name="Path 635" d="M140,377.781s11.484,9.364,12.714,11.795c3.349,6.78,1.746,11.618,1.746,11.618l8.455,13.584c1.957.043,4.579-.478,4.675-2.44a3.8,3.8,0,0,0-.383-1.589q-3.182-7.933-6.364-15.857a39.339,39.339,0,0,0-4.574-9.053l-.182-.234h0l-.024-.029c-.129-.158-.55-.665-1.177-1.368-1.828-2.048-5.4-5.7-8.7-7.177a20.685,20.685,0,0,1-6.139.775Z" transform="translate(-85.544 -208.714)" fill="#68e1fd"/>
      <path id="Path_636" data-name="Path 636" d="M140,377.781s11.484,9.364,12.714,11.795c3.349,6.78,1.746,11.618,1.746,11.618l8.455,13.584c1.957.043,4.579-.478,4.675-2.44a3.8,3.8,0,0,0-.383-1.589q-3.182-7.933-6.364-15.857a39.339,39.339,0,0,0-4.574-9.053l-.182-.234h0l-.024-.029c-.129-.158-.55-.665-1.177-1.368-1.828-2.048-5.4-5.7-8.7-7.177a20.685,20.685,0,0,1-6.139.775Z" transform="translate(-85.544 -208.714)" fill="url(#linear-gradient-3)"/>
      <path id="Path_637" data-name="Path 637" d="M145.725,460.3c.756.7,1.761,1.392,1.723,2.421a.478.478,0,0,1-.081.287.55.55,0,0,1-.392.158c-2.321.258-4.474-1.153-6.278-2.636a2.565,2.565,0,0,1-1.038-1.383,2.871,2.871,0,0,1,.479-1.694,15.648,15.648,0,0,0,1.043-2.7c-.077.277,1.091,1.258,1.287,1.435a8.5,8.5,0,0,1,1.354,1.072,13.475,13.475,0,0,1,.636,1.412,6.551,6.551,0,0,0,1.268,1.627Z" transform="translate(-85.365 -249.246)" fill="#ec9c7d"/>
      <path id="Path_638" data-name="Path 638" d="M196.627,454.872a4.444,4.444,0,0,1,2.278,1.139.794.794,0,0,1,.172.431c0,.426-.478.66-.914.746a14.964,14.964,0,0,1-5.1-.144,1.436,1.436,0,0,1-.622-.191,1.407,1.407,0,0,1-.44-.761l-.67-2.053a.33.33,0,0,1,0-.191.288.288,0,0,1,.134-.148,8.691,8.691,0,0,1,1.435-.823c.689-.311.732-.3,1.2.244A5.991,5.991,0,0,0,196.627,454.872Z" transform="translate(-112.308 -248.162)" fill="#ec9c7d"/>
      <path id="Path_639" data-name="Path 639" d="M162.285,355.449c1.33-.211,2.833-.383,3.914.426a5.023,5.023,0,0,1,1.234,1.584,1,1,0,0,1-.727,1.756,6.28,6.28,0,0,1-3.737.115,20.317,20.317,0,0,0-2.483-1.278,1.234,1.234,0,0,1-.44-.153.756.756,0,0,1-.254-.4C159.246,355.683,161.074,355.621,162.285,355.449Z" transform="translate(-95.814 -197.368)" fill="#ec9c7d"/>
      <path id="Path_640" data-name="Path 640" d="M194.234,461.153a.613.613,0,0,0,.206.234.7.7,0,0,0,.421,0,11.353,11.353,0,0,1,2.282-.081,30.582,30.582,0,0,0,4.622-.426,2.527,2.527,0,0,0,1.8-.789.426.426,0,0,0,.091-.215.479.479,0,0,0-.134-.321,5.675,5.675,0,0,0-2.55-1.742,3.279,3.279,0,0,0-1.167-.254,1.378,1.378,0,0,0-1.057.478c-.277.349-.316.852-.627,1.168a1.675,1.675,0,0,1-1.278.34,10.182,10.182,0,0,1-1.569-.182,3.569,3.569,0,0,0-1.364-.239C193.009,459.354,193.966,460.694,194.234,461.153Z" transform="translate(-113.461 -250.711)" fill="#68e1fd"/>
      <path id="Path_641" data-name="Path 641" d="M138.461,464.078a.636.636,0,0,0,.043.354.718.718,0,0,0,.392.268,13.031,13.031,0,0,1,2.22,1.383,34.689,34.689,0,0,0,4.651,2.536,2.885,2.885,0,0,0,2.211.4.479.479,0,0,0,.225-.148.565.565,0,0,0,.077-.388,6.527,6.527,0,0,0-1.311-3.278,3.756,3.756,0,0,0-.957-.957,1.574,1.574,0,0,0-1.306-.225c-.478.153-.842.608-1.34.708a1.914,1.914,0,0,1-1.435-.478,12.35,12.35,0,0,1-1.378-1.168c-.321-.325-.694-.957-1.139-1.1C138.442,461.59,138.494,463.475,138.461,464.078Z" transform="translate(-84.737 -252.99)" fill="#68e1fd"/>
      <path id="Path_642" data-name="Path 642" d="M111.881,332.587a14.98,14.98,0,0,0-.656,3.048l-.2,1.4a1.531,1.531,0,0,0,.048.871c.23.478,1.163.292,1.622.364l2.474.392q2.469.378,4.952.727a9.732,9.732,0,0,0-.048-2.531c-.148-.794-.479-1.541-.689-2.325-.158-.636-.215-1.3-.378-1.914a6.067,6.067,0,0,0-2.258-3.349c-1.737-1.273-4.306,1.8-4.818,3.191A.958.958,0,0,0,111.881,332.587Z" transform="translate(-70.412 -183.65)" fill="#4c506d"/>
      <rect id="Rectangle_172" data-name="Rectangle 172" width="2.115" height="19.561" transform="translate(152.853 203.456) rotate(180)" fill="#4c506d"/>
      <rect id="Rectangle_173" data-name="Rectangle 173" width="23.489" height="2.742" transform="translate(164.992 205.796) rotate(180)" fill="#4c506d"/>
      <rect id="Rectangle_174" data-name="Rectangle 174" width="23.489" height="2.742" transform="translate(164.992 205.796) rotate(180)" fill="#2f3554"/>
      <rect id="Rectangle_175" data-name="Rectangle 175" width="20.269" height="7.139" rx="3.57" transform="translate(160.872 183.9) rotate(180)" fill="#4c506d"/>
      <rect id="Rectangle_176" data-name="Rectangle 176" width="20.269" height="7.139" rx="3.57" transform="translate(165.107 183.9) rotate(180)" fill="#2f3554"/>
      <path id="Path_643" data-name="Path 643" d="M308,334.565v6.8a4.546,4.546,0,0,0,4.546,4.55h6.795a4.5,4.5,0,0,0,2.2-.569,4.6,4.6,0,0,0,1.435-1.234,4.488,4.488,0,0,0,.923-2.747v-6.8a4.546,4.546,0,0,0-4.55-4.546h-6.795a4.242,4.242,0,0,0-.608.038A4.546,4.546,0,0,0,308,334.565Z" transform="translate(-173.158 -184.198)" fill="#4c506d"/>
      <path id="Path_644" data-name="Path 644" d="M311.826,341.4a4.522,4.522,0,0,0,.766,2c1.23,1.684,3.622,1.89,5.7,1.943,1.55.038,6.957,1.2,6.57-1.4a30.3,30.3,0,0,0-1.435-4.125c-.411-1.316-1.282-3.019-1.282-4.35a24.811,24.811,0,0,0-1.158-3.7,7.918,7.918,0,0,0-1.053-1.751h-5.474a1.738,1.738,0,0,0-.569.062c.225,1.833-.986,3.12-1.656,4.718a11.307,11.307,0,0,0-.565,4.546A14.1,14.1,0,0,0,311.826,341.4Z" transform="translate(-175.07 -184.195)" fill="#2f3554"/>
      <path id="Path_645" data-name="Path 645" d="M332.032,302.879c1.038,1.435,4.2,2.79,4.2,2.79.364-1.407-.412-1.914-.412-1.914-.809.072-1.871-1.914-1.526-2.522.431-.775,1.024-.478,1.435-.163a3.766,3.766,0,0,0,1.435-2.651c.048-.608-1-2.326,1.01-3.067a9.707,9.707,0,0,1,4.847,0s.727-1.88-1.613-2.775c-1.914-.727-4.747-.3-6.728-.072a6.6,6.6,0,0,0-3.034.919,6.031,6.031,0,0,0-2.168,4.158,29.764,29.764,0,0,1-.756,4.756,9.247,9.247,0,0,0-.742,2.55c-.024.89.579,1.914,1.469,1.89.345,0,.723-.153,1.019.029s.354.67.622.957c.478.479,1.287,0,1.962-.153.88-.182,1.861.306,2.656-.105.33-.172.6-.478.957-.526.478-.048.876.392,1.354.45.818.1,1.435-.909,2.249-.885a3.23,3.23,0,0,1,1.038.359,2.3,2.3,0,0,0,2.919-1.6.546.546,0,0,0,.8-.153,1.55,1.55,0,0,0,.182-.9c0-2.675.746-6.857-1.3-8.986a6.969,6.969,0,0,0-6.22-1.627c-1.766.311-5.742,1.287-6.579,2.924S330.994,301.453,332.032,302.879Z" transform="translate(-183.577 -164.46)" fill="#32384f"/>
      <path id="Path_646" data-name="Path 646" d="M366.483,345.141c-1.665-4.306-3.254-9.316-3.254-9.316L362,327.308c4.2-.287,5.5,5.019,6.407,7.89.761,2.393,2.785,8.134,3.431,9.943Z" transform="translate(-201.319 -182.778)" fill="#d68369"/>
      <path id="Path_647" data-name="Path 647" d="M390.641,357.6c-1.086,1.33-3.048,1.435-4.785,1.435l-8.431-.029a1.685,1.685,0,0,1-.957-.187,1.608,1.608,0,0,1-.517-.708c-.368-.794-2-4.048-1.325-4.785s3.938.67,4.785.9Q385.061,355.813,390.641,357.6Z" transform="translate(-207.82 -196.244)" fill="#d68369"/>
      <path id="Path_648" data-name="Path 648" d="M364.158,327.423a8.275,8.275,0,0,1,1.914,2.22L371.7,338a3.952,3.952,0,0,0,2.526,1.962l5.56,2.081c.2.072.411.167.478.359s-.11.478-.282.665l-2.048,2.144a1.684,1.684,0,0,1-.761.536,1.636,1.636,0,0,1-.89-.115l-10.886-3.5a2.545,2.545,0,0,1-.957-.479,2.731,2.731,0,0,1-.6-1.857,21.6,21.6,0,0,0-.957-5.5c-.636-1.88-1.708-3.665-1.952-5.661-.086-.675-.244-1.579.435-1.947S363.574,327.006,364.158,327.423Z" transform="translate(-200.721 -182.405)" fill="#68e1fd"/>
      <path id="Path_649" data-name="Path 649" d="M344.3,327.32a65.155,65.155,0,0,1-6.881.258c-2.316-.067-6.12-.311-8.192,2.211-2.569,3.129-.354,8.613,1.436,12.757.67,1.536,1,6.527.651,10.173,0,0,7.216,2.522,13.56,1.206l2.177-8.168S353.123,336.765,344.3,327.32Z" transform="translate(-183.619 -182.79)" fill="#68e1fd"/>
      <path id="Path_650" data-name="Path 650" d="M353.575,293s3.062.182,3.971,4.613-3.512,4.364-3.512,4.364l-2.684-7.694Z" transform="translate(-195.765 -164.892)" fill="#32384f"/>
      <path id="Path_651" data-name="Path 651" d="M344.425,308.677c2.77.23,4.455-2.359,4.785-5.742.034-.368.048-.746.048-1.129a13.923,13.923,0,0,0-.378-3.273c-1.211-5.187-8.613-3.11-8.613-3.11C334.5,298.025,339.612,308.28,344.425,308.677Z" transform="translate(-188.649 -165.941)" fill="#ec9c7d"/>
      <path id="Path_652" data-name="Path 652" d="M344.258,315.57c.479,1.531,2.493,4.235,4.785,3.6a2.952,2.952,0,0,0,.187,3.153s-.751,1.914-5.8-.914c0,0,1.364-.11.99-2.914a5.958,5.958,0,0,0-.99-2.689.478.478,0,0,0,.828-.239Z" transform="translate(-191.635 -176.662)" fill="#d68369"/>
      <path id="Path_653" data-name="Path 653" d="M344.547,294.741c-.718,2.507-1.684,6.067-4.129,7.441a2.087,2.087,0,0,1-1.134.354c-.373-.077-.335-.373-.627-.636a.646.646,0,0,0-.742-.129.77.77,0,0,0-.3.665,1.771,1.771,0,0,0,.861,1.526,4.44,4.44,0,0,1,.689.4,1.4,1.4,0,0,1,.411.9,2.421,2.421,0,0,1-1.2,2.311.3.3,0,0,1-.167.053.32.32,0,0,1-.182-.105l-1.086-1a8.989,8.989,0,0,1-1.4-1.493,4.54,4.54,0,0,1-.78-2.517c0-.407.158-.818.153-1.206a5.939,5.939,0,0,0-.4-1.5,5.344,5.344,0,0,1-.373-1.938,3.824,3.824,0,0,1,2.335-2.909,13.8,13.8,0,0,1,6.039-1.038,3.057,3.057,0,0,1,1.211.163C344.073,294.233,344.222,294.621,344.547,294.741Z" transform="translate(-186.79 -165.369)" fill="#32384f"/>
      <path id="Path_654" data-name="Path 654" d="M335.987,346.278l-2.115,4.646s-4.565-5.67-6.278-11.795c-1.517-5.417,1.168-6.775,1.168-6.775,2.053-.751,3.45,2.172,5.464,8.086C335.336,343.694,335.987,346.278,335.987,346.278Z" transform="translate(-183.134 -185.355)" fill="#ec9c7d"/>
      <path id="Path_655" data-name="Path 655" d="M341.219,363.332s-.081-3.775,1.761-4.527,14.752-2.775,14.752-2.775l1.215,1.4S346.267,364.734,341.219,363.332Z" transform="translate(-190.482 -197.763)" fill="#ec9c7d"/>
      <path id="Path_656" data-name="Path 656" d="M325.917,336.911a11.828,11.828,0,0,0,1.6,7.4,5.925,5.925,0,0,0,1.182,1.5,5.416,5.416,0,0,0,1.957,1,18.33,18.33,0,0,0,5.527.579c3.316,0,6.622-.215,9.929-.411a3.019,3.019,0,0,0,1.292-.268,3.059,3.059,0,0,0,.957-1,.956.956,0,0,0,.2-.416.9.9,0,0,0-.134-.479l-1.077-2.225a.732.732,0,0,0-1.1-.4A48.56,48.56,0,0,1,338,343.6a1.723,1.723,0,0,1-.909-.1,1.521,1.521,0,0,1-.478-.478,11.368,11.368,0,0,1-1.493-3.6,28.977,28.977,0,0,0-2.952-7.35c-.555-.885-1.459-1.914-2.608-1.435a6.012,6.012,0,0,0-2.392,2.617A10.048,10.048,0,0,0,325.917,336.911Z" transform="translate(-182.462 -184.457)" fill="#68e1fd"/>
      <path id="Path_657" data-name="Path 657" d="M390.615,320.06h26.963a1.689,1.689,0,0,0,1.656-1.507l1.809-20.441a1.359,1.359,0,0,0-1.383-1.5H392.7a1.684,1.684,0,0,0-1.651,1.5l-1.813,20.441a1.364,1.364,0,0,0,1.383,1.507Z" transform="translate(-215.517 -166.774)" fill="#68e1fd"/>
      <path id="Path_658" data-name="Path 658" d="M392.794,320.06h26.963a1.684,1.684,0,0,0,1.651-1.507l1.813-20.441a1.359,1.359,0,0,0-1.383-1.5H394.875a1.689,1.689,0,0,0-1.656,1.5l-1.809,20.441a1.359,1.359,0,0,0,1.383,1.507Z" transform="translate(-216.653 -166.774)" fill="#fff"/>
      <path id="Path_659" data-name="Path 659" d="M0,0H7.828V12.838a3.914,3.914,0,0,1-3.914,3.914h0A3.914,3.914,0,0,1,0,12.838V0Z" transform="translate(196.673 161.44) rotate(180)" fill="#68e1fd"/>
      <path id="Path_660" data-name="Path 660" d="M.01,0H7.828V12.838a3.914,3.914,0,0,1-3.914,3.914h0A3.914,3.914,0,0,1,0,12.838V0Z" transform="translate(198.501 161.44) rotate(180)" fill="#fff"/>
      <path id="Path_661" data-name="Path 661" d="M384.828,391.973l-.158-.163c.627.7,1.048,1.211,1.177,1.364C385.507,392.762,385.163,392.379,384.828,391.973Z" transform="translate(-213.142 -216.422)" fill="#dc9bd5"/>
      <path id="Path_662" data-name="Path 662" d="M333.17,384.886a8.609,8.609,0,0,0,3.7,5.378,21.112,21.112,0,0,0,6.11,2.684c1.263.388,2.048,2,3.192,2.68a2.872,2.872,0,0,1,1.048.876,2.965,2.965,0,0,1,0,2.306q-1.435,5.043-2.909,10.087a9.774,9.774,0,0,0-.512,5.12c.445,1.675,2.225,3.129,3.876,2.574l9.661-15.608s1.589-6.273-1.747-11.613c-1.435-2.3-12.709-11.795-12.709-11.795-2.871-.421-5.818-.612-8.613-.775C333.95,379.523,332.711,382.188,333.17,384.886Z" transform="translate(-186.232 -208.594)" fill="#4c506d"/>
      <path id="Path_663" data-name="Path 663" d="M353.55,377.6s11.484,9.364,12.709,11.795c3.378,6.78,1.747,11.613,1.747,11.613L376.46,414.6c1.957.043,4.579-.479,4.68-2.44a3.877,3.877,0,0,0-.383-1.589q-3.187-7.929-6.364-15.857a39.44,39.44,0,0,0-4.579-9.053l-.177-.234h0l-.024-.034c-.129-.153-.55-.66-1.177-1.364h0c-1.828-2.048-5.4-5.7-8.7-7.177a20.854,20.854,0,0,1-6.139.775Z" transform="translate(-196.913 -208.621)" fill="#2f3554"/>
      <path id="Path_664" data-name="Path 664" d="M359.255,460.09c.751.694,1.756,1.392,1.723,2.393a.479.479,0,0,1-.081.287.555.555,0,0,1-.392.163c-2.321.258-4.479-1.158-6.283-2.641a2.541,2.541,0,0,1-1.034-1.383,2.833,2.833,0,0,1,.478-1.689,16.471,16.471,0,0,0,1.043-2.7c-.081.277,1.086,1.258,1.282,1.435a8.293,8.293,0,0,1,1.354,1.072,13.056,13.056,0,0,1,.636,1.412A6.742,6.742,0,0,0,359.255,460.09Z" transform="translate(-196.722 -249.126)" fill="#ec9c7d"/>
      <path id="Path_665" data-name="Path 665" d="M410.147,454.691a4.474,4.474,0,0,1,2.278,1.134.751.751,0,0,1,.172.435c0,.426-.478.66-.914.746a15.059,15.059,0,0,1-5.091-.143,1.437,1.437,0,0,1-.627-.2,1.392,1.392,0,0,1-.44-.756l-.67-2.057a.33.33,0,0,1,0-.191.321.321,0,0,1,.134-.144,9.094,9.094,0,0,1,1.435-.828c.684-.306.732-.292,1.191.249A6.018,6.018,0,0,0,410.147,454.691Z" transform="translate(-223.661 -248.067)" fill="#ec9c7d"/>
      <path id="Path_666" data-name="Path 666" d="M375.81,355.259c1.335-.211,2.833-.383,3.914.431a5.057,5.057,0,0,1,1.235,1.579,1,1,0,0,1-.727,1.761,6.266,6.266,0,0,1-3.732.115,20.375,20.375,0,0,0-2.488-1.278,1.235,1.235,0,0,1-.44-.153.742.742,0,0,1-.249-.4C372.776,355.494,374.6,355.451,375.81,355.259Z" transform="translate(-207.172 -197.269)" fill="#ec9c7d"/>
      <path id="Path_667" data-name="Path 667" d="M407.772,460.969a.545.545,0,0,0,.206.234.622.622,0,0,0,.416,0,11.4,11.4,0,0,1,2.287-.077,30.574,30.574,0,0,0,4.617-.426,2.546,2.546,0,0,0,1.8-.79.478.478,0,0,0,.091-.22.512.512,0,0,0-.139-.316,5.651,5.651,0,0,0-2.55-1.742,3.274,3.274,0,0,0-1.163-.254,1.392,1.392,0,0,0-1.062.478c-.273.354-.311.857-.627,1.172a1.679,1.679,0,0,1-1.273.34,10.786,10.786,0,0,1-1.574-.182,3.651,3.651,0,0,0-1.364-.244C406.562,459.174,407.519,460.514,407.772,460.969Z" transform="translate(-224.827 -250.618)" fill="#68e1fd"/>
      <path id="Path_668" data-name="Path 668" d="M351.991,463.893a.6.6,0,0,0,.048.354.727.727,0,0,0,.392.268,12.7,12.7,0,0,1,2.215,1.383,35.89,35.89,0,0,0,4.656,2.536,2.879,2.879,0,0,0,2.211.4.546.546,0,0,0,.225-.148.565.565,0,0,0,.072-.388,6.426,6.426,0,0,0-1.311-3.278,3.678,3.678,0,0,0-.957-.957,1.574,1.574,0,0,0-1.306-.23c-.479.158-.837.612-1.34.713a1.881,1.881,0,0,1-1.435-.479,11.488,11.488,0,0,1-1.378-1.172c-.325-.321-.7-.957-1.139-1.1C351.991,461.386,352.024,463.3,351.991,463.893Z" transform="translate(-196.095 -252.891)" fill="#68e1fd"/>
      <path id="Path_669" data-name="Path 669" d="M52.26,372.089v45.2a1.453,1.453,0,0,0,1.282,1.574h19.69a1.453,1.453,0,0,0,1.282-1.574v-45.2a.306.306,0,0,1,.268-.33H227.55a.306.306,0,0,1,.268.33v39.49a7.12,7.12,0,0,0,.675.321l.34.11V372.089a1.847,1.847,0,0,0-.029-.33H248.8a.306.306,0,0,1,.268.33v45.2a.311.311,0,0,1-.268.335H229.1a.311.311,0,0,1-.268-.335v-1.158a2.278,2.278,0,0,1-1.014.053v1.105a1.453,1.453,0,0,0,1.282,1.574H248.8a1.453,1.453,0,0,0,1.282-1.574v-45.2a1.448,1.448,0,0,0-1.282-1.569H53.571A1.453,1.453,0,0,0,52.26,372.089Zm1.01,0a.306.306,0,0,1,.273-.33H73.529a1.843,1.843,0,0,0-.029.33v45.2a.311.311,0,0,1-.268.335H53.542a.311.311,0,0,1-.273-.335Z" transform="translate(-39.787 -205.319)" fill="#fff"/>
      <path id="Path_670" data-name="Path 670" d="M52.26,372.089v45.2a1.453,1.453,0,0,0,1.282,1.574h19.69a1.453,1.453,0,0,0,1.282-1.574v-45.2a.306.306,0,0,1,.268-.33H227.55a.306.306,0,0,1,.268.33v39.49a7.12,7.12,0,0,0,.675.321l.34.11V372.089a1.847,1.847,0,0,0-.029-.33H248.8a.306.306,0,0,1,.268.33v45.2a.311.311,0,0,1-.268.335H229.1a.311.311,0,0,1-.268-.335v-1.158a2.278,2.278,0,0,1-1.014.053v1.105a1.453,1.453,0,0,0,1.282,1.574H248.8a1.453,1.453,0,0,0,1.282-1.574v-45.2a1.448,1.448,0,0,0-1.282-1.569H53.571A1.453,1.453,0,0,0,52.26,372.089Zm1.01,0a.306.306,0,0,1,.273-.33H73.529a1.843,1.843,0,0,0-.029.33v45.2a.311.311,0,0,1-.268.335H53.542a.311.311,0,0,1-.273-.335Z" transform="translate(-39.787 -205.319)" fill="url(#linear-gradient-4)"/>
      <path id="Path_671" data-name="Path 671" d="M53.542,418.862h19.69a1.453,1.453,0,0,0,1.282-1.574v-45.2a.306.306,0,0,1,.268-.33H248.8a.306.306,0,0,1,.273.33v45.2a.306.306,0,0,1-.273.33.636.636,0,0,0,0,1.244,1.453,1.453,0,0,0,1.282-1.574v-45.2a1.453,1.453,0,0,0-1.282-1.574H74.783a1.453,1.453,0,0,0-1.282,1.574v45.2a.306.306,0,0,1-.268.33H53.542a.306.306,0,0,1-.273-.33v-45.2a.306.306,0,0,1,.273-.33.636.636,0,0,0,0-1.244,1.453,1.453,0,0,0-1.282,1.574v45.2A1.453,1.453,0,0,0,53.542,418.862Z" transform="translate(-39.787 -205.314)" fill="#fff"/>
      <path id="Path_672" data-name="Path 672" d="M53.542,418.862h19.69a1.453,1.453,0,0,0,1.282-1.574v-45.2a.306.306,0,0,1,.268-.33H248.8a.306.306,0,0,1,.273.33v45.2a.306.306,0,0,1-.273.33.636.636,0,0,0,0,1.244,1.453,1.453,0,0,0,1.282-1.574v-45.2a1.453,1.453,0,0,0-1.282-1.574H74.783a1.453,1.453,0,0,0-1.282,1.574v45.2a.306.306,0,0,1-.268.33H53.542a.306.306,0,0,1-.273-.33v-45.2a.306.306,0,0,1,.273-.33.636.636,0,0,0,0-1.244,1.453,1.453,0,0,0-1.282,1.574v45.2A1.453,1.453,0,0,0,53.542,418.862Z" transform="translate(-39.787 -205.314)" fill="url(#linear-gradient-5)"/>
      <path id="Path_673" data-name="Path 673" d="M1.426,0H178.673V2.359H0V1.426A1.435,1.435,0,0,1,1.426,0Z" transform="translate(211.64 165.181) rotate(180)" fill="#fff"/>
      <path id="Path_674" data-name="Path 674" d="M0,0H20.412a1.435,1.435,0,0,1,1.435,1.435V2.952H0V.01Z" transform="translate(32.962 165.181) rotate(180)" fill="#fff"/>
      <path id="Path_675" data-name="Path 675" d="M89.13,362.89H271.737a.411.411,0,0,1,.359.445v1.311a.411.411,0,0,1-.359.445H89.13Z" transform="translate(-59.015 -201.34)" fill="#68e1fd"/>
      <path id="Path_676" data-name="Path 676" d="M46.838,362.89H70.523a.411.411,0,0,1,.359.445v1.311a.412.412,0,0,1-.359.445H46.838a.479.479,0,0,1-.421-.517v-1.153a.479.479,0,0,1,.421-.531Z" transform="translate(-36.738 -201.34)" fill="#68e1fd"/>
      <path id="Path_677" data-name="Path 677" d="M46.838,362.89H70.523a.411.411,0,0,1,.359.445v1.311a.412.412,0,0,1-.359.445H46.838a.479.479,0,0,1-.421-.517v-1.153a.479.479,0,0,1,.421-.531Z" transform="translate(-36.738 -201.34)" fill="url(#linear-gradient-6)"/>
      <path id="Path_678" data-name="Path 678" d="M354.751,298.613a.722.722,0,0,1-.062.22.479.479,0,0,1-.579.163,1.4,1.4,0,0,1-.507-.411.4.4,0,0,1-.249.426.957.957,0,0,1-.531.029,3.408,3.408,0,0,1-1.148-.412.9.9,0,0,1-1.6.517l-.244.478c-.225-.115-.478,0-.737-.029a1.077,1.077,0,0,1-.876-1.086,3.718,3.718,0,0,1,.383-1.464,13.078,13.078,0,0,0,.7-2.479,1.914,1.914,0,0,1,.254-.78,1.307,1.307,0,0,1,.694-.445,3.751,3.751,0,0,1,3.57,1.436A5.349,5.349,0,0,1,354.751,298.613Z" transform="translate(-194.132 -165.022)" fill="#32384f"/>
      <path id="Path_679" data-name="Path 679" d="M619.912,455.767a6.846,6.846,0,0,1-.55,2.933,4.89,4.89,0,0,1-2.134,1.981,8.393,8.393,0,0,1-6.22.612,1.215,1.215,0,0,1-.723-.435,1.086,1.086,0,0,1-.129-.617,4.631,4.631,0,0,1,1.636-2.928,10.326,10.326,0,0,0,2.244-2.574c.957-1.914.244-7.067,3.88-6.244C620.945,449.168,619.993,453.618,619.912,455.767Z" transform="translate(-330.732 -245.937)" fill="#fdb9a9"/>
      <path id="Path_680" data-name="Path 680" d="M617.7,470.9s.517,1.268-.12,2.01-7.177,4.785-11.556,1.536,5.962-3.689,5.962-3.689Z" transform="translate(-328.015 -257.595)" fill="#68e1fd"/>
      <path id="Path_681" data-name="Path 681" d="M617.848,464.395a.957.957,0,0,0-1.177.306,3.828,3.828,0,0,1-3.5,1.254c-1.435-.344-2-2-2.718-2s-4.512,3.23-4.723,4.617,1.723,2.392,3.871,2.546,7.005-1.354,7.928-2.479A4.587,4.587,0,0,0,617.848,464.395Z" transform="translate(-328.42 -254.044)" fill="#fff"/>
      <path id="Path_682" data-name="Path 682" d="M645.965,459.993a6.861,6.861,0,0,1-.55,2.933,4.913,4.913,0,0,1-2.134,1.981,8.412,8.412,0,0,1-6.22.612,1.216,1.216,0,0,1-.723-.435,1.053,1.053,0,0,1-.124-.617,4.6,4.6,0,0,1,1.632-2.928,10.171,10.171,0,0,0,2.244-2.579c.957-1.914.244-7.062,3.88-6.22C647,453.385,646.047,457.821,645.965,459.993Z" transform="translate(-344.321 -248.149)" fill="#fdb9a9"/>
      <path id="Path_683" data-name="Path 683" d="M643.747,475.054s.517,1.273-.12,2.014-7.177,4.785-11.556,1.531,5.962-3.689,5.962-3.689Z" transform="translate(-341.601 -259.76)" fill="#68e1fd"/>
      <path id="Path_684" data-name="Path 684" d="M643.9,468.515a.957.957,0,0,0-1.177.3,3.828,3.828,0,0,1-3.5,1.254c-1.436-.34-2-1.991-2.718-2s-4.512,3.225-4.723,4.617,1.723,2.392,3.871,2.546,7.005-1.354,7.929-2.483A4.576,4.576,0,0,0,643.9,468.515Z" transform="translate(-342.005 -256.193)" fill="#fff"/>
      <path id="Path_685" data-name="Path 685" d="M646.8,355.284s.679,37.322-2.086,49.8l-7.005.866L632.85,354.82Z" transform="translate(-342.57 -197.132)" fill="#473f47"/>
      <path id="Path_686" data-name="Path 686" d="M615.316,347.27s-3.3,20.14.7,52.49l7.019.866L627.9,349.5Z" transform="translate(-332.759 -193.194)" fill="#473f47"/>
      <path id="Path_687" data-name="Path 687" d="M599.523,296.282c.076,1.349.512,2.526,1.684,2.919a2.5,2.5,0,0,0,.3.081c2.153.431,4.981-1.211,6.953-2.641a27.39,27.39,0,0,0,2.354-1.914V280.3l-10.484,10.733A16.7,16.7,0,0,0,599.523,296.282Z" transform="translate(-325.181 -158.269)" fill="#68e1fd"/>
      <path id="Path_688" data-name="Path 688" d="M617.238,292.881c0,.675-.086,1.364-.086,2.038,0,3.727.861,7.57-.249,11.221a4.068,4.068,0,0,0-.311,2.493,3.082,3.082,0,0,0,1.56,1.5c3.282,1.794,7.082,2.345,10.785,2.871,2.79.388,6.742,1.215,9.321-.287a4.645,4.645,0,0,0,1.818-3.014,57.274,57.274,0,0,0,1.737-11.757c.043-.517.077-1.034.105-1.55q.325-5.35.22-10.709c-.053-2.589-.254-5.388-1.947-7.345-2.254-2.6-6.6-4.306-9.9-4.933a11.134,11.134,0,0,0-3.258-.182,13.874,13.874,0,0,0-4.407,1.5c-1.641.809-3.1,1.5-3.909,3.12a21.964,21.964,0,0,0-1.828,5.9,21.22,21.22,0,0,0-.11,5.8c.1.957.349,1.885.435,2.823C617.21,292.541,617.234,292.714,617.238,292.881Z" transform="translate(-334.035 -154.557)" fill="#68e1fd"/>
      <path id="Path_689" data-name="Path 689" d="M648.33,319.739c1.081.321,3.574-.67,4.4-.818.479-.086.957-.33,1.436-.455,2.469-.612,2.761-7.546,3.005-9.412.636-4.933,1.622-10.048,1.679-14.982a17.083,17.083,0,0,0-.656-5.651,6.55,6.55,0,0,0-3.7-4.11c-3.153-1.139-4.091,8.828-4.522,10.9l-2.369,11.273a25.734,25.734,0,0,0-.646,4.216c-.086,1.976.546,3.349,1.053,5.134.287.981-.478,2.871-.115,3.589A.685.685,0,0,0,648.33,319.739Z" transform="translate(-349.925 -160.314)" fill="#020202" opacity="0.1"/>
      <path id="Path_690" data-name="Path 690" d="M633.411,256.081a2.426,2.426,0,0,0,1.522.761,8.314,8.314,0,0,0,1.464.024h.273a.316.316,0,0,1,.2.034.3.3,0,0,1,.086.22,16.227,16.227,0,0,1,.057,2.933h0a4.881,4.881,0,0,1-.048.526,1.034,1.034,0,0,0,.048.555.957.957,0,0,0,.593.388,4.306,4.306,0,0,0,1.325.225,5.929,5.929,0,0,0,2.7-.957,26.879,26.879,0,0,1,.263-5c.311-2.139.871-4.278.636-6.426a3.513,3.513,0,0,0-4.062-3.474,8.068,8.068,0,0,0-4.369,1.2,1.717,1.717,0,0,0-.651,1.292c-.167.842-.3,1.7-.392,2.55-.105.957-.167,1.952-.182,2.933A3.154,3.154,0,0,0,633.411,256.081Z" transform="translate(-342.58 -140.322)" fill="#fdb9a9"/>
      <path id="Path_691" data-name="Path 691" d="M633.771,242.53a16,16,0,0,1,3.349.416A3.255,3.255,0,0,1,638.7,246.9c.416.148.478-.6.818-.909s1.048.105,1.1.627a3.236,3.236,0,0,1-.479,1.488,4.421,4.421,0,0,0-.2,2.924c.067.225.235.478.479.435s.388-.445.526-.617a6.3,6.3,0,0,1,.732-.742c.507-.445,1.067-.837,1.589-1.273A4.008,4.008,0,0,0,645,245.8a2.69,2.69,0,0,0-.478-1.364,3.078,3.078,0,0,0-.9-.876c-.148-.091-.316-.191-.349-.364a.7.7,0,0,1,.038-.282,3.3,3.3,0,0,0-1.369-3.292,8,8,0,0,0-3.512-1.3c-.8-.148-1.617-.258-2.431-.354a5.5,5.5,0,0,1-1.952-.478,5.521,5.521,0,0,1,.646-1.249,6.319,6.319,0,0,0-1.632.751,2.657,2.657,0,0,1,.215-.813,4.952,4.952,0,0,0-2.393,1.368,2.871,2.871,0,0,0-.086,3.254,4.049,4.049,0,0,0,2.7,1.651Z" transform="translate(-341.256 -135.26)" fill="#f9692d"/>
      <path id="Path_692" data-name="Path 692" d="M640.21,267.766h.273a.316.316,0,0,1,.2.033.3.3,0,0,1,.086.22,16.2,16.2,0,0,1,.057,2.933h0a3.935,3.935,0,0,0,2.708-4.163,16.694,16.694,0,0,1-3.306.981Z" transform="translate(-346.408 -151.223)" fill="#de9f93"/>
      <path id="Path_693" data-name="Path 693" d="M581.27,302.131a20.631,20.631,0,0,0,5.034,5.015,10.047,10.047,0,0,0,4.732,1.7,1.705,1.705,0,0,0,.66-.072,1.8,1.8,0,0,0,.909-.632,5.292,5.292,0,0,0,1.215-2.991c.115-2.871-3-4.546-3-4.546s-7.091-2.258-7.933-1.914c-.479.2-.9,1.2-1.206,2.062C581.433,301.5,581.27,302.131,581.27,302.131Z" transform="translate(-315.67 -167.841)" fill="#68e1fd"/>
      <path id="Path_694" data-name="Path 694" d="M581.27,304.428a20.63,20.63,0,0,0,5.034,5.015,10.048,10.048,0,0,0,4.732,1.7,1.705,1.705,0,0,0,.66-.072,2.513,2.513,0,0,0,.3.081c2.153.431,4.981-1.211,6.953-2.641v-.048l-.67-4.306a16.978,16.978,0,0,1-4.441,3.292,6.345,6.345,0,0,1-3.828.7,3.759,3.759,0,0,1-1.024-.306,33.49,33.49,0,0,1-7.307-4.785C581.433,303.8,581.27,304.428,581.27,304.428Z" transform="translate(-315.67 -170.138)" fill="#020202" opacity="0.1"/>
      <path id="Path_695" data-name="Path 695" d="M665.416,298.852c.957,2.531,1.756,5.216,1.378,7.886-.479,3.239-2.617,5.948-4.689,8.479-1.632.244-3.771.211-4.345-1.33a3.58,3.58,0,0,1-.11-1.531l.23-3.349a12.423,12.423,0,0,0-.23-4.455,19.231,19.231,0,0,0-2.512-4.431,17.225,17.225,0,0,1-2.522-7.814c-.187-2.593,1.775-11.005,5.608-8.469,1.589,1.038,3,5.354,3.828,7.086A86.063,86.063,0,0,1,665.416,298.852Z" transform="translate(-352.872 -159.868)" fill="#68e1fd"/>
      <path id="Path_696" data-name="Path 696" d="M661.078,351.419a.7.7,0,0,0-.134.435.247.247,0,0,0,.325.225c.387,1.2-.421,2.459-.421,3.723a.958.958,0,0,0,.043.335.747.747,0,0,0,.282.34,1.5,1.5,0,0,0,1.435.091,3.742,3.742,0,0,0,1.191-.89,6.076,6.076,0,0,0,1.613-2.431,7.209,7.209,0,0,0,.239-1.321l.388-3.3C663.557,347.821,662.222,349.457,661.078,351.419Z" transform="translate(-357.171 -193.793)" fill="#fdb9a9"/>
      <path id="Path_697" data-name="Path 697" d="M574.991,292.188a1.345,1.345,0,0,0-.364-.584.445.445,0,0,0-.617.043,1.306,1.306,0,0,0-.12.388.794.794,0,0,1-.756.479,2.589,2.589,0,0,1-.923-.225,23.2,23.2,0,0,0-2.574-.8,1.062,1.062,0,0,0-.622,0,.89.89,0,0,0-.44.541,3.383,3.383,0,0,0,.536,3.168,5.416,5.416,0,0,0,2.756,1.813,13.74,13.74,0,0,0,3.306.478,1.436,1.436,0,0,0,.833-.115C577.379,296.58,575.34,293.078,574.991,292.188Z" transform="translate(-308.956 -164.08)" fill="#fdb9a9"/>
      <rect id="Rectangle_177" data-name="Rectangle 177" width="4.661" height="26.58" transform="translate(212.602 83.537)" fill="#68e1fd"/>
      <rect id="Rectangle_178" data-name="Rectangle 178" width="4.661" height="15.666" transform="translate(219.133 94.451)" fill="#68e1fd"/>
      <rect id="Rectangle_179" data-name="Rectangle 179" width="4.661" height="10.78" transform="translate(225.66 99.341)" fill="#68e1fd"/>
      <rect id="Rectangle_180" data-name="Rectangle 180" width="4.661" height="19.058" transform="translate(232.186 91.058)" fill="#68e1fd"/>
      <rect id="Rectangle_181" data-name="Rectangle 181" width="4.661" height="23.791" transform="translate(238.713 86.326)" fill="#68e1fd"/>
      <rect id="Rectangle_182" data-name="Rectangle 182" width="4.661" height="26.58" transform="translate(245.24 83.537)" fill="#68e1fd"/>
    </g>
  </g>
</svg>
