<svg xmlns="http://www.w3.org/2000/svg" width="954.126" height="712.254" viewBox="0 0 954.126 712.254">
  <g id="Group_23" data-name="Group 23" transform="translate(0)">
    <rect id="Rectangle_271" data-name="Rectangle 271" width="480" height="379" transform="translate(308.254 245.868)" fill="#f2f2f2"/>
    <path id="Path_952" data-name="Path 952" d="M844.19,674.741h-482v-381h482Zm-480-2h478v-377h-478Z" transform="translate(-122.937 -93.873)" fill="#3f3d56"/>
    <rect id="Rectangle_272" data-name="Rectangle 272" width="556.108" height="2.361" transform="translate(21.541 698.167)" fill="#3f3d56"/>
    <path id="Path_953" data-name="Path 953" d="M413.254,503.238l-.281-198,224.14,98.683Z" fill="#d0cde1"/>
    <path id="Path_954" data-name="Path 954" d="M490.666,407.724s21.117-23.729,25.5-14.687-21.461,22.791-21.461,22.791Z" transform="translate(-122.937 -93.873)" fill="#a0616a"/>
    <path id="Path_955" data-name="Path 955" d="M501.72,417.511s-9.39,3.45-12.11,7.64-11.77,8.58-11.77,8.58l-.79.47-8.54,5.09-11.19,6.66-35.42,21.1-46.75,18.72c-.36-6.53-.71-13.06-1.04-19.24-.1-1.85-.12-3.69-.08-5.53.59-.18,1.19-.34,1.8-.47,13.83-2.95,19.71-7.24,19.71-7.24l27.04-16.31s21.23-13.53,34.7-19.88c1.89-.9,3.63-1.65,5.13-2.2l31.92-11.72.23.45,4.88,9.45Z" transform="translate(-122.937 -93.873)" fill="#d0cde1"/>
    <path id="Path_956" data-name="Path 956" d="M501.72,417.511s-9.39,3.45-12.11,7.64-11.77,8.58-11.77,8.58l-.79.47-8.54,5.09-11.19,6.66-35.42,21.1-46.75,18.72c-.36-6.53-.71-13.06-1.04-19.24-.1-1.85-.12-3.69-.08-5.53.59-.18,1.19-.34,1.8-.47,13.83-2.95,19.71-7.24,19.71-7.24l27.04-16.31s21.23-13.53,34.7-19.88c1.89-.9,3.63-1.65,5.13-2.2l31.92-11.72.23.45,4.88,9.45Z" transform="translate(-122.937 -93.873)" opacity="0.1"/>
    <path id="Path_957" data-name="Path 957" d="M371.394,503.027l-.28-198,224.14,98.682Z" fill="#186585"/>
    <path id="Path_958" data-name="Path 958" d="M580.932,397.4,371.376,490.375l.018,12.652,223.86-99.318Z" opacity="0.2"/>
    <path id="Path_959" data-name="Path 959" d="M308.754,666.368v21h16l-2-22Z" fill="#a0616a"/>
    <path id="Path_960" data-name="Path 960" d="M246.754,665.368l-5,24,20,1v-25Z" fill="#a0616a"/>
    <path id="Path_961" data-name="Path 961" d="M377.69,569.241s-5-2-6,16-2,80-2,80-10,55-6,71,4,27,4,27h18l1-10,1-27s10-25,7-48l24-73,12,78s-5,19-4,39,1,46,1,46l20-2,16-94s9-94,0-99S377.69,569.241,377.69,569.241Z" transform="translate(-122.937 -93.873)" fill="#2f2e41"/>
    <path id="Path_962" data-name="Path 962" d="M437.69,774.241s-9-12-13-3-13,21-6,27,16,8,19,6,34-18,34-18,6-17-6-18-16-4-16-4Z" transform="translate(-122.937 -93.873)" fill="#2f2e41"/>
    <path id="Path_963" data-name="Path 963" d="M368.69,777.241s0-10-4-7-7,16-7,16-24,19-1,19,38,4,36-5-5-24-5-24S377.69,763.241,368.69,777.241Z" transform="translate(-122.937 -93.873)" fill="#2f2e41"/>
    <circle id="Ellipse_92" data-name="Ellipse 92" cx="25" cy="25" r="25" transform="translate(283.754 252.368)" fill="#a0616a"/>
    <path id="Path_964" data-name="Path 964" d="M412.19,379.741s-4,29-10,33,40,5,40,5-3-23,0-29Z" transform="translate(-122.937 -93.873)" fill="#a0616a"/>
    <path id="Path_965" data-name="Path 965" d="M490.69,578.241s15,28,5,29-14-28-14-28Z" transform="translate(-122.937 -93.873)" fill="#a0616a"/>
    <path id="Path_966" data-name="Path 966" d="M408.593,389.395a18.653,18.653,0,0,0,22.682-5.043c3.364-4.4,5.314-10.8,10.677-12.164,3.5-.892,7.54.792,10.667-1.02,5.835-3.381,1.737-14.1,7.155-18.114a9.3,9.3,0,0,1-9.145-8.646c-.138,1.872-2.6,2.711-4.395,2.163s-3.205-1.928-4.881-2.773c-2.929-1.476-6.395-1.207-9.66-.9-8.344.776-17.347,1.836-23.476,7.55-5.76,5.37-7.674,13.956-6.553,21.75s3.1,10.352,7.294,17.018Z" transform="translate(-122.937 -93.873)" fill="#2f2e41"/>
    <path id="Path_967" data-name="Path 967" d="M470.69,423.241l-.14,1-2.04,15.05-8.37,61.66-.45,3.29s.99,2.41,2.23,6.25c2.1,6.47,4.94,17,5.05,26.92a44.764,44.764,0,0,1-.28,5.83c-1.5,12.75-1.88,25.5-1.97,31.08-.03,1.86-.03,2.92-.03,2.92l-91-3a41.922,41.922,0,0,0,1.51-3.92,71.823,71.823,0,0,0,3.49-30.08c-.89-8.46-2.28-31.51-3.54-54.47-.36-6.53-.71-13.06-1.04-19.24-.1-1.85-.12-3.69-.08-5.53a73.413,73.413,0,0,1,27.66-55.76s1.84.08,4.74.25c9.12.53,28.76,1.91,34.93,4.18a7.421,7.421,0,0,1,.83.35c2.98,1.47,9.21,4.38,15.09,7.08C464.23,420.3,470.69,423.241,470.69,423.241Z" transform="translate(-122.937 -93.873)" fill="#d0cde1"/>
    <path id="Path_968" data-name="Path 968" d="M456.69,424.241h14s12,14,10,28,0,21,0,21l6,31s7,32,7,45v34l-16,2s0-10-3-14-4-14-4-14l-12-64Z" transform="translate(-122.937 -93.873)" fill="#d0cde1"/>
    <rect id="Rectangle_273" data-name="Rectangle 273" width="30.913" height="29.842" transform="matrix(0.933, -0.361, 0.361, 0.933, 100.458, 323.561)" fill="#186585"/>
    <path id="Path_969" data-name="Path 969" d="M257.778,431.92l-30.349,11.738L216.1,414.36l30.349-11.738Zm-29.4,9.686,27.314-10.564-10.2-26.368-27.314,10.564Z" transform="translate(-122.937 -93.873)" fill="#3f3d56"/>
    <rect id="Rectangle_274" data-name="Rectangle 274" width="30.913" height="29.842" transform="translate(865.017 92.48) rotate(71.027)" fill="#186585"/>
    <path id="Path_970" data-name="Path 970" d="M972.175,220.168,961.6,189.4,991.3,179.183l10.579,30.772Zm-8.565-29.744,9.521,27.695,26.736-9.192-9.521-27.695Z" transform="translate(-122.937 -93.873)" fill="#3f3d56"/>
    <path id="Path_971" data-name="Path 971" d="M207.43,793.546l-1.267-.475c-.278-.1-27.992-10.723-40.975-34.8s-6.626-53.067-6.56-53.356l.3-1.32,1.267.475c.278.1,27.992,10.723,40.975,34.8s6.626,53.067,6.56,53.356Zm-40.163-36.4c10.976,20.357,32.877,30.792,38.426,33.174,1.055-5.947,4.364-30-6.6-50.334s-32.874-30.786-38.426-33.174C159.608,712.768,156.3,736.815,167.267,757.151Z" transform="translate(-122.937 -93.873)" fill="#3f3d56"/>
    <path id="Path_972" data-name="Path 972" d="M175.11,749.826c23.331,14.037,32.317,41.918,32.317,41.918s-28.842,5.123-52.173-8.914-32.317-41.918-32.317-41.918S151.778,735.789,175.11,749.826Z" transform="translate(-122.937 -93.873)" fill="#186585"/>
    <rect id="Rectangle_275" data-name="Rectangle 275" width="933" height="2" transform="translate(21.127 25.061)" fill="#3f3d56"/>
    <circle id="Ellipse_93" data-name="Ellipse 93" cx="9.061" cy="9.061" r="9.061" transform="translate(31.127 0)" fill="#3f3d56"/>
    <circle id="Ellipse_94" data-name="Ellipse 94" cx="9.061" cy="9.061" r="9.061" transform="translate(59.066 0)" fill="#3f3d56"/>
    <circle id="Ellipse_95" data-name="Ellipse 95" cx="9.061" cy="9.061" r="9.061" transform="translate(87.004 0)" fill="#3f3d56"/>
    <rect id="Rectangle_276" data-name="Rectangle 276" width="213.403" height="2.398" transform="translate(367.48 93.454)" fill="#3f3d56"/>
    <rect id="Rectangle_277" data-name="Rectangle 277" width="213.403" height="2.398" transform="translate(367.48 110.239)" fill="#3f3d56"/>
    <rect id="Rectangle_278" data-name="Rectangle 278" width="213.403" height="2.398" transform="translate(367.48 127.024)" fill="#3f3d56"/>
  </g>
</svg>
